{"glyphs":{"0":{"ha":856,"x_min":88,"x_max":768,"o":"m 768 517 l 768 429 q 728 196 768 296 q 613 41 689 96 q 428 -14 536 -14 q 243 41 319 -14 q 127 196 167 96 q 88 429 88 296 l 88 517 q 127 749 88 650 q 243 903 167 849 q 428 958 319 958 q 613 903 536 958 q 728 749 689 849 q 768 517 768 650 m 583 614 q 543 841 583 772 q 428 910 503 910 q 313 841 353 910 q 272 614 272 772 l 272 332 q 313 103 272 172 q 428 35 353 35 q 543 103 503 35 q 583 332 583 172 l 583 614 z "},"1":{"ha":507,"x_min":26,"x_max":460,"o":"m 26 821 l 219 944 l 353 944 l 353 117 q 357 60 353 69 q 383 49 361 51 l 460 39 l 460 0 l 51 0 l 51 39 l 156 49 q 182 60 178 51 q 186 117 186 69 l 186 864 l 53 779 l 26 821 z "},"2":{"ha":740,"x_min":54,"x_max":667,"o":"m 611 307 l 650 307 l 650 0 l 68 0 l 68 97 q 95 242 68 183 q 168 344 122 301 q 267 421 214 388 q 369 492 318 456 q 453 583 419 529 q 486 719 486 636 q 360 910 486 910 q 251 842 282 910 q 233 649 219 774 l 67 671 q 81 811 54 746 q 178 917 108 876 q 361 958 249 958 q 538 923 471 958 q 635 830 604 888 q 667 706 667 772 q 633 571 667 624 q 546 484 600 518 q 429 426 492 450 q 308 374 367 401 q 188 288 238 342 q 126 144 138 235 l 506 144 q 553 147 539 144 q 572 156 567 149 q 581 181 576 164 l 611 307 z "},"3":{"ha":726,"x_min":39,"x_max":661,"o":"m 290 460 l 253 460 l 253 508 l 290 508 q 430 567 389 508 q 471 717 471 625 q 344 910 471 910 q 235 842 267 910 q 218 649 204 774 l 51 671 q 66 811 39 746 q 163 917 93 876 q 346 958 233 958 q 522 924 456 958 q 620 835 589 890 q 651 717 651 781 q 585 560 651 619 q 394 485 518 501 q 592 407 524 468 q 661 236 661 346 q 578 56 661 126 q 329 -14 494 -14 q 142 37 219 -14 q 44 206 65 88 l 143 232 q 202 81 157 126 q 317 35 247 35 q 442 85 403 35 q 481 236 481 136 q 438 397 481 335 q 290 460 394 460 z "},"4":{"ha":711,"x_min":17,"x_max":679,"o":"m 406 117 l 406 244 l 17 244 l 17 293 q 134 438 86 367 q 216 584 182 508 q 276 748 250 660 q 328 944 303 836 l 529 944 q 423 703 486 814 q 276 493 360 593 q 85 293 192 393 l 406 293 l 406 506 l 572 531 l 572 293 l 679 293 l 679 244 l 572 244 l 572 117 q 576 60 572 69 q 603 49 581 51 l 679 39 l 679 0 l 271 0 l 271 39 l 375 49 q 401 60 397 51 q 406 117 406 69 z "},"5":{"ha":714,"x_min":57,"x_max":651,"o":"m 567 1065 l 606 1065 l 606 800 l 163 800 l 147 532 q 234 573 185 558 q 339 588 283 588 q 503 551 433 588 q 613 450 574 515 q 651 294 651 385 q 619 142 651 213 q 516 29 588 72 q 328 -14 444 -14 q 150 37 222 -14 q 57 206 78 88 l 156 232 q 210 81 169 126 q 315 35 251 35 q 433 95 396 35 q 471 294 471 156 q 458 422 471 367 q 410 508 444 476 q 313 539 375 539 q 224 522 271 539 q 128 461 176 506 l 94 482 l 121 944 l 475 944 q 534 950 524 944 q 550 981 544 956 l 567 1065 z "},"6":{"ha":807,"x_min":92,"x_max":738,"o":"m 738 271 q 652 63 738 140 q 422 -14 567 -14 q 178 100 264 -14 q 92 424 92 214 l 92 511 q 178 849 92 740 q 418 958 265 958 q 580 926 511 958 q 685 838 649 893 q 721 717 722 783 l 557 697 q 526 855 564 800 q 418 910 489 910 q 341 885 375 910 q 288 791 307 860 q 269 593 269 722 l 269 474 q 360 540 310 521 q 465 560 411 560 q 605 526 543 560 q 702 430 667 492 q 738 285 738 368 l 738 271 m 269 342 q 288 158 269 225 q 341 63 306 90 q 428 35 376 35 q 528 86 490 35 q 567 263 567 138 l 567 276 q 536 439 567 379 q 431 499 506 499 q 346 476 390 499 q 269 401 301 453 l 269 342 z "},"7":{"ha":642,"x_min":40,"x_max":618,"o":"m 79 638 l 40 638 l 40 944 l 618 944 l 618 814 q 515 653 558 735 q 442 476 471 571 q 397 265 414 382 q 374 0 381 149 l 172 0 q 211 192 186 99 q 280 379 236 285 q 392 576 324 474 q 560 800 460 679 l 185 800 q 138 798 153 800 q 119 788 124 796 q 110 764 114 781 l 79 638 z "},"8":{"ha":769,"x_min":69,"x_max":700,"o":"m 700 254 q 666 117 700 178 q 563 22 632 57 q 390 -14 494 -14 q 210 18 282 -14 q 104 103 139 50 q 69 218 69 157 q 122 356 69 296 q 269 458 174 417 q 138 558 186 500 q 89 710 89 615 q 124 834 89 778 q 223 924 158 890 q 379 958 288 958 q 597 895 518 958 q 675 738 675 832 q 628 625 675 674 q 486 538 581 576 q 642 430 585 493 q 700 254 700 367 m 374 586 l 440 557 q 506 634 489 590 q 522 736 522 678 q 376 910 522 910 q 269 870 307 910 q 231 761 231 831 q 268 656 231 697 q 374 586 306 615 m 222 222 q 265 84 222 133 q 390 35 307 35 q 515 78 472 35 q 558 204 558 121 q 525 317 558 272 q 410 397 492 363 l 317 436 q 246 349 269 406 q 222 222 222 293 z "},"9":{"ha":807,"x_min":69,"x_max":715,"o":"m 715 433 q 618 95 715 204 q 358 -14 521 -14 q 180 37 257 -14 q 82 206 103 88 l 181 232 q 239 81 194 126 q 351 35 283 35 q 444 60 401 35 q 512 153 486 85 q 538 351 538 222 l 538 443 q 447 376 497 396 q 342 357 396 357 q 202 391 264 357 q 105 487 140 425 q 69 632 69 549 l 69 669 q 156 880 69 801 q 385 958 242 958 q 629 845 543 958 q 715 521 715 732 l 715 433 m 240 640 q 271 478 240 538 q 376 418 301 418 q 461 441 417 418 q 538 515 506 464 l 538 603 q 519 788 538 721 q 466 882 501 854 q 379 910 431 910 q 278 858 317 910 q 240 682 240 807 l 240 640 z "},"A":{"ha":888,"x_min":-8,"x_max":896,"o":"m 260 39 l 260 0 l -8 0 l -8 39 l 68 49 q 90 55 83 51 q 103 72 97 58 q 118 117 108 86 l 383 944 l 503 944 l 769 117 q 785 72 779 86 q 798 55 790 58 q 819 49 806 51 l 896 39 l 896 0 l 513 0 l 513 39 l 589 49 q 613 60 611 51 q 600 117 615 69 l 547 289 l 226 289 l 172 117 q 160 60 158 69 q 183 49 161 51 l 260 39 m 243 338 l 532 338 l 389 799 l 243 338 z "},"Á":{"ha":888,"x_min":-8,"x_max":896,"o":"m 260 39 l 260 0 l -8 0 l -8 39 l 68 49 q 90 55 83 51 q 103 72 97 58 q 118 117 108 86 l 383 944 l 503 944 l 769 117 q 785 72 779 86 q 798 55 790 58 q 819 49 806 51 l 896 39 l 896 0 l 513 0 l 513 39 l 589 49 q 613 60 611 51 q 600 117 615 69 l 547 289 l 226 289 l 172 117 q 160 60 158 69 q 183 49 161 51 l 260 39 m 243 338 l 532 338 l 389 799 l 243 338 m 443 1044 l 410 1074 q 460 1162 438 1118 q 496 1268 482 1206 l 671 1268 q 572 1153 624 1204 q 443 1044 521 1101 z "},"Ă":{"ha":888,"x_min":-8,"x_max":896,"o":"m 260 39 l 260 0 l -8 0 l -8 39 l 68 49 q 90 55 83 51 q 103 72 97 58 q 118 117 108 86 l 383 944 l 503 944 l 769 117 q 785 72 779 86 q 798 55 790 58 q 819 49 806 51 l 896 39 l 896 0 l 513 0 l 513 39 l 589 49 q 613 60 611 51 q 600 117 615 69 l 547 289 l 226 289 l 172 117 q 160 60 158 69 q 183 49 161 51 l 260 39 m 243 338 l 532 338 l 389 799 l 243 338 m 444 1158 q 549 1185 510 1158 q 601 1275 588 1213 l 647 1261 q 578 1101 628 1158 q 444 1044 528 1044 q 311 1101 361 1044 q 242 1261 261 1158 l 288 1275 q 342 1185 303 1213 q 444 1158 381 1158 z "},"Â":{"ha":888,"x_min":-8,"x_max":896,"o":"m 260 39 l 260 0 l -8 0 l -8 39 l 68 49 q 90 55 83 51 q 103 72 97 58 q 118 117 108 86 l 383 944 l 503 944 l 769 117 q 785 72 779 86 q 798 55 790 58 q 819 49 806 51 l 896 39 l 896 0 l 513 0 l 513 39 l 589 49 q 613 60 611 51 q 600 117 615 69 l 547 289 l 226 289 l 172 117 q 160 60 158 69 q 183 49 161 51 l 260 39 m 243 338 l 532 338 l 389 799 l 243 338 m 635 1075 l 615 1044 q 519 1106 565 1074 q 439 1168 474 1138 q 274 1044 368 1104 l 254 1075 q 308 1141 288 1114 q 346 1197 329 1168 q 383 1268 363 1225 l 506 1268 q 544 1197 528 1225 q 581 1141 560 1168 q 635 1075 601 1114 z "},"Ä":{"ha":888,"x_min":-7,"x_max":897,"o":"m 261 39 l 261 0 l -7 0 l -7 39 l 69 49 q 92 55 85 51 q 104 72 99 58 q 119 117 110 86 l 385 944 l 504 944 l 771 117 q 786 72 781 86 q 799 55 792 58 q 821 49 807 51 l 897 39 l 897 0 l 514 0 l 514 39 l 590 49 q 615 60 613 51 q 601 117 617 69 l 549 289 l 228 289 l 174 117 q 161 60 160 69 q 185 49 163 51 l 261 39 m 244 338 l 533 338 l 390 799 l 244 338 m 290 1074 q 228 1098 251 1074 q 204 1161 204 1122 q 228 1224 204 1200 q 290 1247 251 1247 q 353 1224 328 1247 q 378 1161 378 1200 q 353 1098 378 1122 q 290 1074 328 1074 m 582 1074 q 519 1098 543 1074 q 496 1161 496 1122 q 519 1224 496 1200 q 582 1247 543 1247 q 644 1224 619 1247 q 669 1161 669 1200 q 644 1098 669 1122 q 582 1074 619 1074 z "},"À":{"ha":888,"x_min":-8,"x_max":896,"o":"m 260 39 l 260 0 l -8 0 l -8 39 l 68 49 q 90 55 83 51 q 103 72 97 58 q 118 117 108 86 l 383 944 l 503 944 l 769 117 q 785 72 779 86 q 798 55 790 58 q 819 49 806 51 l 896 39 l 896 0 l 513 0 l 513 39 l 589 49 q 613 60 611 51 q 600 117 615 69 l 547 289 l 226 289 l 172 117 q 160 60 158 69 q 183 49 161 51 l 260 39 m 243 338 l 532 338 l 389 799 l 243 338 m 446 1044 q 317 1153 369 1101 q 218 1268 265 1204 l 393 1268 q 430 1162 408 1206 q 479 1074 451 1118 l 446 1044 z "},"Ā":{"ha":888,"x_min":-8,"x_max":896,"o":"m 260 39 l 260 0 l -8 0 l -8 39 l 68 49 q 90 55 83 51 q 103 72 97 58 q 118 117 108 86 l 383 944 l 503 944 l 769 117 q 785 72 779 86 q 798 55 790 58 q 819 49 806 51 l 896 39 l 896 0 l 513 0 l 513 39 l 589 49 q 613 60 611 51 q 600 117 615 69 l 547 289 l 226 289 l 172 117 q 160 60 158 69 q 183 49 161 51 l 260 39 m 243 338 l 532 338 l 389 799 l 243 338 m 643 1176 l 643 1100 l 244 1100 l 244 1176 l 643 1176 z "},"Ą":{"ha":888,"x_min":-8,"x_max":896,"o":"m 840 -174 q 770 -279 819 -249 q 661 -310 721 -310 q 544 -275 592 -310 q 497 -181 497 -240 q 538 -78 497 -124 q 636 -3 579 -32 l 547 289 l 226 289 l 172 117 q 160 60 158 69 q 183 49 161 51 l 260 39 l 260 0 l -8 0 l -8 39 l 68 49 q 90 55 83 51 q 103 72 97 58 q 118 117 108 86 l 383 944 l 503 944 l 769 117 q 785 72 779 86 q 798 55 790 58 q 819 49 806 51 l 896 39 l 896 0 l 808 0 q 663 -53 714 0 q 613 -179 613 -106 q 627 -240 613 -218 q 672 -262 642 -262 q 722 -240 700 -262 q 751 -156 743 -217 l 840 -174 m 243 338 l 532 338 l 389 799 l 243 338 z "},"Å":{"ha":888,"x_min":-8,"x_max":896,"o":"m 260 39 l 260 0 l -8 0 l -8 39 l 68 49 q 90 55 83 51 q 103 72 97 58 q 118 117 108 86 l 375 917 q 293 977 322 935 q 264 1067 264 1019 l 264 1082 q 284 1158 264 1122 q 342 1217 304 1194 q 435 1240 381 1240 q 527 1217 489 1240 q 585 1158 565 1194 q 606 1082 606 1122 l 606 1067 q 581 983 606 1024 q 510 922 556 943 l 769 117 q 785 72 779 86 q 798 55 790 58 q 819 49 806 51 l 896 39 l 896 0 l 513 0 l 513 39 l 589 49 q 613 60 611 51 q 600 117 615 69 l 547 289 l 226 289 l 172 117 q 160 60 158 69 q 183 49 161 51 l 260 39 m 504 1092 q 435 1203 504 1203 q 367 1092 367 1203 l 367 1057 q 435 944 367 944 q 504 1057 504 944 l 504 1092 m 243 338 l 532 338 l 389 799 l 243 338 z "},"Ã":{"ha":888,"x_min":-8,"x_max":896,"o":"m 260 39 l 260 0 l -8 0 l -8 39 l 68 49 q 90 55 83 51 q 103 72 97 58 q 118 117 108 86 l 383 944 l 503 944 l 769 117 q 785 72 779 86 q 798 55 790 58 q 819 49 806 51 l 896 39 l 896 0 l 513 0 l 513 39 l 589 49 q 613 60 611 51 q 600 117 615 69 l 547 289 l 226 289 l 172 117 q 160 60 158 69 q 183 49 161 51 l 260 39 m 243 338 l 532 338 l 389 799 l 243 338 m 531 1050 q 474 1067 500 1050 q 426 1108 449 1085 q 384 1148 404 1131 q 344 1165 364 1165 q 308 1140 321 1165 q 288 1057 294 1114 l 238 1057 q 278 1222 249 1168 q 361 1275 307 1275 q 417 1258 392 1275 q 464 1217 442 1240 q 506 1177 486 1194 q 546 1160 525 1160 q 582 1186 569 1160 q 601 1268 594 1213 l 651 1268 q 612 1103 640 1157 q 531 1050 583 1050 z "},"Æ":{"ha":1261,"x_min":-8,"x_max":1171,"o":"m 1171 239 l 1171 0 l 483 0 l 483 39 l 560 49 q 586 60 582 51 q 590 117 590 69 l 590 289 l 286 289 l 193 117 q 167 60 168 69 q 188 49 165 51 l 264 39 l 264 0 l -8 0 l -8 39 l 68 49 q 92 55 83 51 q 109 72 100 58 q 135 117 118 86 l 518 828 q 543 884 543 875 q 521 896 543 893 l 444 906 l 444 944 l 1157 944 l 1157 706 l 1118 706 l 1074 860 q 1065 884 1069 876 q 1046 894 1060 892 q 999 896 1032 896 l 757 896 l 757 501 l 915 501 q 963 503 949 501 q 981 513 976 506 q 990 538 986 521 l 1021 650 l 1060 650 l 1060 304 l 1021 304 l 990 417 q 981 441 986 433 q 963 451 976 449 q 915 453 949 453 l 757 453 l 757 49 l 1013 49 q 1060 51 1046 49 q 1078 60 1074 53 q 1088 85 1083 68 l 1132 239 l 1171 239 m 311 338 l 590 338 l 590 857 l 311 338 z "},"B":{"ha":856,"x_min":60,"x_max":783,"o":"m 60 906 l 60 944 l 443 944 q 619 914 554 944 q 713 833 685 883 q 742 722 742 783 l 742 685 q 697 560 742 613 q 565 486 651 508 q 727 411 671 468 q 783 268 783 354 l 783 229 q 754 115 783 167 q 658 31 725 63 q 478 0 590 0 l 60 0 l 60 39 l 136 49 q 163 60 158 51 q 167 117 167 69 l 167 828 q 163 884 167 875 q 136 896 158 893 l 60 906 m 443 896 l 333 896 l 333 507 l 443 507 q 533 548 503 507 q 564 678 564 589 l 564 722 q 533 854 564 813 q 443 896 503 896 m 478 458 l 333 458 l 333 49 l 478 49 q 573 91 540 49 q 606 229 606 133 l 606 275 q 478 458 606 458 z "},"C":{"ha":829,"x_min":92,"x_max":776,"o":"m 489 -14 q 272 41 361 -14 q 138 196 183 96 q 92 429 92 296 l 92 517 q 133 749 92 650 q 256 903 174 849 q 461 958 338 958 q 638 917 567 958 q 742 809 708 876 q 771 663 776 742 l 608 622 q 580 835 622 761 q 454 910 538 910 q 317 835 365 910 q 269 586 269 760 l 269 360 q 324 111 269 188 q 489 35 378 35 q 574 51 535 35 q 641 109 614 68 q 675 225 668 150 l 775 199 q 713 74 756 121 q 612 6 669 26 q 489 -14 554 -14 z "},"Ć":{"ha":829,"x_min":92,"x_max":776,"o":"m 489 -14 q 272 41 361 -14 q 138 196 183 96 q 92 429 92 296 l 92 517 q 133 749 92 650 q 256 903 174 849 q 461 958 338 958 q 638 917 567 958 q 742 809 708 876 q 771 663 776 742 l 608 622 q 580 835 622 761 q 454 910 538 910 q 317 835 365 910 q 269 586 269 760 l 269 360 q 324 111 269 188 q 489 35 378 35 q 574 51 535 35 q 641 109 614 68 q 675 225 668 150 l 775 199 q 713 74 756 121 q 612 6 669 26 q 489 -14 554 -14 m 465 1044 l 432 1074 q 482 1162 460 1118 q 518 1268 504 1206 l 693 1268 q 594 1153 646 1204 q 465 1044 543 1101 z "},"Č":{"ha":829,"x_min":92,"x_max":776,"o":"m 489 -14 q 272 41 361 -14 q 138 196 183 96 q 92 429 92 296 l 92 517 q 133 749 92 650 q 256 903 174 849 q 461 958 338 958 q 638 917 567 958 q 742 809 708 876 q 771 663 776 742 l 608 622 q 580 835 622 761 q 454 910 538 910 q 317 835 365 910 q 269 586 269 760 l 269 360 q 324 111 269 188 q 489 35 378 35 q 574 51 535 35 q 641 109 614 68 q 675 225 668 150 l 775 199 q 713 74 756 121 q 612 6 669 26 q 489 -14 554 -14 m 657 1244 q 603 1179 624 1207 q 566 1123 582 1151 q 528 1051 550 1094 l 406 1051 q 368 1123 385 1094 q 331 1179 351 1151 q 276 1244 310 1207 l 296 1275 q 392 1214 346 1246 q 472 1151 438 1182 q 638 1275 543 1215 l 657 1244 z "},"Ç":{"ha":829,"x_min":92,"x_max":776,"o":"m 642 -194 q 595 -279 642 -249 q 476 -310 549 -310 q 376 -285 419 -310 q 322 -201 333 -261 l 399 -182 q 422 -247 404 -228 q 465 -265 439 -265 q 512 -245 497 -265 q 526 -194 526 -225 q 511 -142 526 -162 q 454 -121 496 -121 q 441 -122 449 -121 q 426 -124 433 -122 l 408 -87 l 440 -11 q 181 123 271 4 q 92 429 92 242 l 92 517 q 133 749 92 650 q 256 903 174 849 q 461 958 338 958 q 638 917 567 958 q 742 809 708 876 q 771 663 776 742 l 608 622 q 580 835 622 761 q 454 910 538 910 q 317 835 365 910 q 269 586 269 760 l 269 360 q 324 111 269 188 q 489 35 378 35 q 574 51 535 35 q 641 109 614 68 q 675 225 668 150 l 775 199 q 713 74 756 121 q 613 6 669 26 q 494 -14 557 -14 l 468 -76 q 594 -109 547 -78 q 642 -194 642 -140 z "},"Ĉ":{"ha":829,"x_min":92,"x_max":776,"o":"m 489 -14 q 272 41 361 -14 q 138 196 183 96 q 92 429 92 296 l 92 517 q 133 749 92 650 q 256 903 174 849 q 461 958 338 958 q 638 917 567 958 q 742 809 708 876 q 771 663 776 742 l 608 622 q 580 835 622 761 q 454 910 538 910 q 317 835 365 910 q 269 586 269 760 l 269 360 q 324 111 269 188 q 489 35 378 35 q 574 51 535 35 q 641 109 614 68 q 675 225 668 150 l 775 199 q 713 74 756 121 q 612 6 669 26 q 489 -14 554 -14 m 657 1075 l 638 1044 q 542 1106 588 1074 q 461 1168 496 1138 q 296 1044 390 1104 l 276 1075 q 331 1141 310 1114 q 368 1197 351 1168 q 406 1268 385 1225 l 528 1268 q 566 1197 550 1225 q 603 1141 582 1168 q 657 1075 624 1114 z "},"Ċ":{"ha":829,"x_min":92,"x_max":776,"o":"m 489 -14 q 272 41 361 -14 q 138 196 183 96 q 92 429 92 296 l 92 517 q 133 749 92 650 q 256 903 174 849 q 461 958 338 958 q 638 917 567 958 q 742 809 708 876 q 771 663 776 742 l 608 622 q 580 835 622 761 q 454 910 538 910 q 317 835 365 910 q 269 586 269 760 l 269 360 q 324 111 269 188 q 489 35 378 35 q 574 51 535 35 q 641 109 614 68 q 675 225 668 150 l 775 199 q 713 74 756 121 q 612 6 669 26 q 489 -14 554 -14 m 465 1064 q 396 1091 422 1064 q 369 1161 369 1118 q 396 1231 369 1204 q 465 1257 422 1257 q 535 1231 507 1257 q 563 1161 563 1204 q 535 1091 563 1118 q 465 1064 507 1064 z "},"D":{"ha":929,"x_min":60,"x_max":838,"o":"m 60 906 l 60 944 l 469 944 q 742 840 647 944 q 838 517 838 736 l 838 429 q 742 105 838 210 q 469 0 647 0 l 60 0 l 60 39 l 136 49 q 163 60 158 51 q 167 117 167 69 l 167 828 q 163 884 167 875 q 136 896 158 893 l 60 906 m 463 896 l 333 896 l 333 49 l 463 49 q 576 73 533 49 q 640 165 619 97 q 660 360 660 232 l 660 586 q 640 781 660 714 q 576 872 619 847 q 463 896 533 896 z "},"Ð":{"ha":936,"x_min":67,"x_max":844,"o":"m 67 906 l 67 944 l 476 944 q 749 840 654 944 q 844 517 844 736 l 844 429 q 749 105 844 210 q 476 0 654 0 l 67 0 l 67 39 l 143 49 q 169 60 165 51 q 174 117 174 69 l 174 468 l 67 468 l 67 517 l 174 517 l 174 828 q 169 884 174 875 q 143 896 165 893 l 67 906 m 535 468 l 340 468 l 340 49 l 469 49 q 583 73 540 49 q 647 165 626 97 q 667 360 667 232 l 667 586 q 647 781 667 714 q 583 872 626 847 q 469 896 540 896 l 340 896 l 340 517 l 535 517 l 535 468 z "},"Ď":{"ha":929,"x_min":60,"x_max":838,"o":"m 60 906 l 60 944 l 469 944 q 742 840 647 944 q 838 517 838 736 l 838 429 q 742 105 838 210 q 469 0 647 0 l 60 0 l 60 39 l 136 49 q 163 60 158 51 q 167 117 167 69 l 167 828 q 163 884 167 875 q 136 896 158 893 l 60 906 m 463 896 l 333 896 l 333 49 l 463 49 q 576 73 533 49 q 640 165 619 97 q 660 360 660 232 l 660 586 q 640 781 660 714 q 576 872 619 847 q 463 896 533 896 m 653 1244 q 599 1179 619 1207 q 562 1123 578 1151 q 524 1051 546 1094 l 401 1051 q 364 1123 381 1094 q 326 1179 347 1151 q 272 1244 306 1207 l 292 1275 q 388 1214 342 1246 q 468 1151 433 1182 q 633 1275 539 1215 l 653 1244 z "},"Đ":{"ha":936,"x_min":67,"x_max":844,"o":"m 67 906 l 67 944 l 476 944 q 749 840 654 944 q 844 517 844 736 l 844 429 q 749 105 844 210 q 476 0 654 0 l 67 0 l 67 39 l 143 49 q 169 60 165 51 q 174 117 174 69 l 174 468 l 67 468 l 67 517 l 174 517 l 174 828 q 169 884 174 875 q 143 896 165 893 l 67 906 m 535 468 l 340 468 l 340 49 l 469 49 q 583 73 540 49 q 647 165 626 97 q 667 360 667 232 l 667 586 q 647 781 667 714 q 583 872 626 847 q 469 896 540 896 l 340 896 l 340 517 l 535 517 l 535 468 z "},"E":{"ha":838,"x_min":60,"x_max":747,"o":"m 708 239 l 747 239 l 747 0 l 60 0 l 60 39 l 136 49 q 163 60 158 51 q 167 117 167 69 l 167 828 q 163 884 167 875 q 136 896 158 893 l 60 906 l 60 944 l 733 944 l 733 706 l 694 706 l 650 860 q 641 884 646 876 q 622 894 636 892 q 575 896 608 896 l 333 896 l 333 501 l 492 501 q 539 503 525 501 q 558 513 553 506 q 567 538 563 521 l 597 650 l 636 650 l 636 304 l 597 304 l 567 417 q 558 441 563 433 q 539 451 553 449 q 492 453 525 453 l 333 453 l 333 49 l 589 49 q 636 51 622 49 q 655 60 650 53 q 664 85 660 68 l 708 239 z "},"É":{"ha":838,"x_min":60,"x_max":747,"o":"m 708 239 l 747 239 l 747 0 l 60 0 l 60 39 l 136 49 q 163 60 158 51 q 167 117 167 69 l 167 828 q 163 884 167 875 q 136 896 158 893 l 60 906 l 60 944 l 733 944 l 733 706 l 694 706 l 650 860 q 641 884 646 876 q 622 894 636 892 q 575 896 608 896 l 333 896 l 333 501 l 492 501 q 539 503 525 501 q 558 513 553 506 q 567 538 563 521 l 597 650 l 636 650 l 636 304 l 597 304 l 567 417 q 558 441 563 433 q 539 451 553 449 q 492 453 525 453 l 333 453 l 333 49 l 589 49 q 636 51 622 49 q 655 60 650 53 q 664 85 660 68 l 708 239 m 460 1044 l 426 1074 q 476 1162 454 1118 q 513 1268 499 1206 l 688 1268 q 589 1153 640 1204 q 460 1044 538 1101 z "},"Ĕ":{"ha":838,"x_min":60,"x_max":747,"o":"m 708 239 l 747 239 l 747 0 l 60 0 l 60 39 l 136 49 q 163 60 158 51 q 167 117 167 69 l 167 828 q 163 884 167 875 q 136 896 158 893 l 60 906 l 60 944 l 733 944 l 733 706 l 694 706 l 650 860 q 641 884 646 876 q 622 894 636 892 q 575 896 608 896 l 333 896 l 333 501 l 492 501 q 539 503 525 501 q 558 513 553 506 q 567 538 563 521 l 597 650 l 636 650 l 636 304 l 597 304 l 567 417 q 558 441 563 433 q 539 451 553 449 q 492 453 525 453 l 333 453 l 333 49 l 589 49 q 636 51 622 49 q 655 60 650 53 q 664 85 660 68 l 708 239 m 461 1158 q 565 1185 526 1158 q 618 1275 604 1213 l 664 1261 q 594 1101 644 1158 q 461 1044 544 1044 q 328 1101 378 1044 q 258 1261 278 1158 l 304 1275 q 358 1185 319 1213 q 461 1158 397 1158 z "},"Ě":{"ha":838,"x_min":60,"x_max":747,"o":"m 708 239 l 747 239 l 747 0 l 60 0 l 60 39 l 136 49 q 163 60 158 51 q 167 117 167 69 l 167 828 q 163 884 167 875 q 136 896 158 893 l 60 906 l 60 944 l 733 944 l 733 706 l 694 706 l 650 860 q 641 884 646 876 q 622 894 636 892 q 575 896 608 896 l 333 896 l 333 501 l 492 501 q 539 503 525 501 q 558 513 553 506 q 567 538 563 521 l 597 650 l 636 650 l 636 304 l 597 304 l 567 417 q 558 441 563 433 q 539 451 553 449 q 492 453 525 453 l 333 453 l 333 49 l 589 49 q 636 51 622 49 q 655 60 650 53 q 664 85 660 68 l 708 239 m 651 1244 q 597 1179 618 1207 q 560 1123 576 1151 q 522 1051 544 1094 l 400 1051 q 363 1123 379 1094 q 325 1179 346 1151 q 271 1244 304 1207 l 290 1275 q 386 1214 340 1246 q 467 1151 432 1182 q 632 1275 538 1215 l 651 1244 z "},"Ê":{"ha":838,"x_min":60,"x_max":747,"o":"m 708 239 l 747 239 l 747 0 l 60 0 l 60 39 l 136 49 q 163 60 158 51 q 167 117 167 69 l 167 828 q 163 884 167 875 q 136 896 158 893 l 60 906 l 60 944 l 733 944 l 733 706 l 694 706 l 650 860 q 641 884 646 876 q 622 894 636 892 q 575 896 608 896 l 333 896 l 333 501 l 492 501 q 539 503 525 501 q 558 513 553 506 q 567 538 563 521 l 597 650 l 636 650 l 636 304 l 597 304 l 567 417 q 558 441 563 433 q 539 451 553 449 q 492 453 525 453 l 333 453 l 333 49 l 589 49 q 636 51 622 49 q 655 60 650 53 q 664 85 660 68 l 708 239 m 651 1075 l 632 1044 q 536 1106 582 1074 q 456 1168 490 1138 q 290 1044 385 1104 l 271 1075 q 325 1141 304 1114 q 363 1197 346 1168 q 400 1268 379 1225 l 522 1268 q 560 1197 544 1225 q 597 1141 576 1168 q 651 1075 618 1114 z "},"Ë":{"ha":838,"x_min":60,"x_max":747,"o":"m 708 239 l 747 239 l 747 0 l 60 0 l 60 39 l 136 49 q 163 60 158 51 q 167 117 167 69 l 167 828 q 163 884 167 875 q 136 896 158 893 l 60 906 l 60 944 l 733 944 l 733 706 l 694 706 l 650 860 q 641 884 646 876 q 622 894 636 892 q 575 896 608 896 l 333 896 l 333 501 l 492 501 q 539 503 525 501 q 558 513 553 506 q 567 538 563 521 l 597 650 l 636 650 l 636 304 l 597 304 l 567 417 q 558 441 563 433 q 539 451 553 449 q 492 453 525 453 l 333 453 l 333 49 l 589 49 q 636 51 622 49 q 655 60 650 53 q 664 85 660 68 l 708 239 m 314 1074 q 251 1098 275 1074 q 228 1161 228 1122 q 251 1224 228 1200 q 314 1247 275 1247 q 376 1224 351 1247 q 401 1161 401 1200 q 376 1098 401 1122 q 314 1074 351 1074 m 606 1074 q 543 1098 567 1074 q 519 1161 519 1122 q 543 1224 519 1200 q 606 1247 567 1247 q 668 1224 643 1247 q 693 1161 693 1200 q 668 1098 693 1122 q 606 1074 643 1074 z "},"Ė":{"ha":838,"x_min":60,"x_max":747,"o":"m 708 239 l 747 239 l 747 0 l 60 0 l 60 39 l 136 49 q 163 60 158 51 q 167 117 167 69 l 167 828 q 163 884 167 875 q 136 896 158 893 l 60 906 l 60 944 l 733 944 l 733 706 l 694 706 l 650 860 q 641 884 646 876 q 622 894 636 892 q 575 896 608 896 l 333 896 l 333 501 l 492 501 q 539 503 525 501 q 558 513 553 506 q 567 538 563 521 l 597 650 l 636 650 l 636 304 l 597 304 l 567 417 q 558 441 563 433 q 539 451 553 449 q 492 453 525 453 l 333 453 l 333 49 l 589 49 q 636 51 622 49 q 655 60 650 53 q 664 85 660 68 l 708 239 m 460 1064 q 390 1091 417 1064 q 364 1161 364 1118 q 390 1231 364 1204 q 460 1257 417 1257 q 529 1231 501 1257 q 557 1161 557 1204 q 529 1091 557 1118 q 460 1064 501 1064 z "},"È":{"ha":838,"x_min":60,"x_max":747,"o":"m 708 239 l 747 239 l 747 0 l 60 0 l 60 39 l 136 49 q 163 60 158 51 q 167 117 167 69 l 167 828 q 163 884 167 875 q 136 896 158 893 l 60 906 l 60 944 l 733 944 l 733 706 l 694 706 l 650 860 q 641 884 646 876 q 622 894 636 892 q 575 896 608 896 l 333 896 l 333 501 l 492 501 q 539 503 525 501 q 558 513 553 506 q 567 538 563 521 l 597 650 l 636 650 l 636 304 l 597 304 l 567 417 q 558 441 563 433 q 539 451 553 449 q 492 453 525 453 l 333 453 l 333 49 l 589 49 q 636 51 622 49 q 655 60 650 53 q 664 85 660 68 l 708 239 m 463 1044 q 334 1153 386 1101 q 235 1268 282 1204 l 410 1268 q 447 1162 425 1206 q 496 1074 468 1118 l 463 1044 z "},"Ē":{"ha":838,"x_min":60,"x_max":747,"o":"m 708 239 l 747 239 l 747 0 l 60 0 l 60 39 l 136 49 q 163 60 158 51 q 167 117 167 69 l 167 828 q 163 884 167 875 q 136 896 158 893 l 60 906 l 60 944 l 733 944 l 733 706 l 694 706 l 650 860 q 641 884 646 876 q 622 894 636 892 q 575 896 608 896 l 333 896 l 333 501 l 492 501 q 539 503 525 501 q 558 513 553 506 q 567 538 563 521 l 597 650 l 636 650 l 636 304 l 597 304 l 567 417 q 558 441 563 433 q 539 451 553 449 q 492 453 525 453 l 333 453 l 333 49 l 589 49 q 636 51 622 49 q 655 60 650 53 q 664 85 660 68 l 708 239 m 660 1176 l 660 1100 l 261 1100 l 261 1176 l 660 1176 z "},"Ę":{"ha":838,"x_min":60,"x_max":747,"o":"m 747 -174 q 677 -279 726 -249 q 568 -310 628 -310 q 451 -275 499 -310 q 404 -181 404 -240 q 453 -73 404 -119 q 567 0 501 -26 l 60 0 l 60 39 l 136 49 q 163 60 158 51 q 167 117 167 69 l 167 828 q 163 884 167 875 q 136 896 158 893 l 60 906 l 60 944 l 733 944 l 733 706 l 694 706 l 650 860 q 641 884 646 876 q 622 894 636 892 q 575 896 608 896 l 333 896 l 333 501 l 492 501 q 539 503 525 501 q 558 513 553 506 q 567 538 563 521 l 597 650 l 636 650 l 636 304 l 597 304 l 567 417 q 558 441 563 433 q 539 451 553 449 q 492 453 525 453 l 333 453 l 333 49 l 589 49 q 636 51 622 49 q 655 60 650 53 q 664 85 660 68 l 708 239 l 747 239 l 747 0 l 715 0 q 570 -53 621 0 q 519 -179 519 -106 q 534 -240 519 -218 q 579 -262 549 -262 q 628 -240 607 -262 q 658 -156 650 -217 l 747 -174 z "},"F":{"ha":769,"x_min":60,"x_max":718,"o":"m 582 642 l 621 642 l 621 296 l 582 296 l 551 408 q 542 433 547 425 q 524 442 538 440 q 476 444 510 444 l 333 444 l 333 117 q 338 60 333 69 q 364 49 342 51 l 468 39 l 468 0 l 60 0 l 60 39 l 136 49 q 163 60 158 51 q 167 117 167 69 l 167 828 q 163 884 167 875 q 136 896 158 893 l 60 906 l 60 944 l 718 944 l 718 706 l 679 706 l 635 860 q 626 884 631 876 q 607 894 621 892 q 560 896 593 896 l 333 896 l 333 493 l 476 493 q 524 495 510 493 q 542 505 538 497 q 551 529 547 513 l 582 642 z "},"G":{"ha":921,"x_min":92,"x_max":896,"o":"m 501 389 l 501 428 l 896 428 l 896 389 l 819 379 q 793 367 797 376 q 789 311 789 358 l 789 0 l 751 0 q 668 65 714 39 q 579 9 631 32 q 454 -14 528 -14 q 259 44 340 -14 q 135 203 178 101 q 92 436 92 306 l 92 524 q 135 748 92 650 q 261 902 178 846 q 465 958 344 958 q 653 917 579 958 q 763 809 728 876 q 789 663 797 742 l 626 622 q 596 835 642 761 q 460 910 550 910 q 269 572 269 910 l 269 374 q 471 35 269 35 q 560 53 515 35 q 636 106 606 71 l 636 311 q 632 368 636 358 q 606 379 628 378 l 501 389 z "},"Ğ":{"ha":921,"x_min":92,"x_max":896,"o":"m 501 389 l 501 428 l 896 428 l 896 389 l 819 379 q 793 367 797 376 q 789 311 789 358 l 789 0 l 751 0 q 668 65 714 39 q 579 9 631 32 q 454 -14 528 -14 q 259 44 340 -14 q 135 203 178 101 q 92 436 92 306 l 92 524 q 135 748 92 650 q 261 902 178 846 q 465 958 344 958 q 653 917 579 958 q 763 809 728 876 q 789 663 797 742 l 626 622 q 596 835 642 761 q 460 910 550 910 q 269 572 269 910 l 269 374 q 471 35 269 35 q 560 53 515 35 q 636 106 606 71 l 636 311 q 632 368 636 358 q 606 379 628 378 l 501 389 m 474 1158 q 578 1185 539 1158 q 631 1275 617 1213 l 676 1261 q 607 1101 657 1158 q 474 1044 557 1044 q 340 1101 390 1044 q 271 1261 290 1158 l 317 1275 q 371 1185 332 1213 q 474 1158 410 1158 z "},"Ĝ":{"ha":921,"x_min":92,"x_max":896,"o":"m 501 389 l 501 428 l 896 428 l 896 389 l 819 379 q 793 367 797 376 q 789 311 789 358 l 789 0 l 751 0 q 668 65 714 39 q 579 9 631 32 q 454 -14 528 -14 q 259 44 340 -14 q 135 203 178 101 q 92 436 92 306 l 92 524 q 135 748 92 650 q 261 902 178 846 q 465 958 344 958 q 653 917 579 958 q 763 809 728 876 q 789 663 797 742 l 626 622 q 596 835 642 761 q 460 910 550 910 q 269 572 269 910 l 269 374 q 471 35 269 35 q 560 53 515 35 q 636 106 606 71 l 636 311 q 632 368 636 358 q 606 379 628 378 l 501 389 m 664 1075 l 644 1044 q 549 1106 594 1074 q 468 1168 503 1138 q 303 1044 397 1104 l 283 1075 q 338 1141 317 1114 q 375 1197 358 1168 q 413 1268 392 1225 l 535 1268 q 573 1197 557 1225 q 610 1141 589 1168 q 664 1075 631 1114 z "},"Ģ":{"ha":921,"x_min":92,"x_max":896,"o":"m 501 389 l 501 428 l 896 428 l 896 389 l 819 379 q 793 367 797 376 q 789 311 789 358 l 789 0 l 751 0 q 668 65 714 39 q 579 9 631 32 q 454 -14 528 -14 q 259 44 340 -14 q 135 203 178 101 q 92 436 92 306 l 92 524 q 135 748 92 650 q 261 902 178 846 q 465 958 344 958 q 653 917 579 958 q 763 809 728 876 q 789 663 797 742 l 626 622 q 596 835 642 761 q 460 910 550 910 q 269 572 269 910 l 269 374 q 471 35 269 35 q 560 53 515 35 q 636 106 606 71 l 636 311 q 632 368 636 358 q 606 379 628 378 l 501 389 m 364 -344 l 338 -319 q 374 -224 360 -274 q 397 -107 389 -175 l 554 -107 q 476 -230 522 -171 q 364 -344 429 -289 z "},"Ġ":{"ha":921,"x_min":92,"x_max":896,"o":"m 501 389 l 501 428 l 896 428 l 896 389 l 819 379 q 793 367 797 376 q 789 311 789 358 l 789 0 l 751 0 q 668 65 714 39 q 579 9 631 32 q 454 -14 528 -14 q 259 44 340 -14 q 135 203 178 101 q 92 436 92 306 l 92 524 q 135 748 92 650 q 261 902 178 846 q 465 958 344 958 q 653 917 579 958 q 763 809 728 876 q 789 663 797 742 l 626 622 q 596 835 642 761 q 460 910 550 910 q 269 572 269 910 l 269 374 q 471 35 269 35 q 560 53 515 35 q 636 106 606 71 l 636 311 q 632 368 636 358 q 606 379 628 378 l 501 389 m 472 1064 q 403 1091 429 1064 q 376 1161 376 1118 q 403 1231 376 1204 q 472 1257 429 1257 q 542 1231 514 1257 q 569 1161 569 1204 q 542 1091 569 1118 q 472 1064 514 1064 z "},"H":{"ha":1032,"x_min":60,"x_max":972,"o":"m 972 39 l 972 0 l 592 0 l 592 39 l 668 49 q 694 60 690 51 q 699 117 699 69 l 699 453 l 333 453 l 333 117 q 338 60 333 69 q 364 49 342 51 l 440 39 l 440 0 l 60 0 l 60 39 l 136 49 q 163 60 158 51 q 167 117 167 69 l 167 828 q 163 884 167 875 q 136 896 158 893 l 60 906 l 60 944 l 440 944 l 440 906 l 364 896 q 338 884 342 893 q 333 828 333 875 l 333 501 l 699 501 l 699 828 q 694 884 699 875 q 668 896 690 893 l 592 906 l 592 944 l 972 944 l 972 906 l 896 896 q 869 884 874 893 q 865 828 865 875 l 865 117 q 869 60 865 69 q 896 49 874 51 l 972 39 z "},"Ħ":{"ha":1046,"x_min":67,"x_max":979,"o":"m 447 39 l 447 0 l 67 0 l 67 39 l 143 49 q 169 60 165 51 q 174 117 174 69 l 174 685 l 67 685 l 67 731 l 174 731 l 174 828 q 169 884 174 875 q 143 896 165 893 l 67 906 l 67 944 l 447 944 l 447 906 l 371 896 q 344 884 349 893 q 340 828 340 875 l 340 731 l 706 731 l 706 828 q 701 884 706 875 q 675 896 697 893 l 599 906 l 599 944 l 979 944 l 979 906 l 903 896 q 876 884 881 893 q 872 828 872 875 l 872 731 l 979 731 l 979 685 l 872 685 l 872 117 q 876 60 872 69 q 903 49 881 51 l 979 39 l 979 0 l 599 0 l 599 39 l 675 49 q 701 60 697 51 q 706 117 706 69 l 706 453 l 340 453 l 340 117 q 344 60 340 69 q 371 49 349 51 l 447 39 m 340 501 l 706 501 l 706 685 l 340 685 l 340 501 z "},"Ĥ":{"ha":1032,"x_min":60,"x_max":972,"o":"m 972 39 l 972 0 l 592 0 l 592 39 l 668 49 q 694 60 690 51 q 699 117 699 69 l 699 453 l 333 453 l 333 117 q 338 60 333 69 q 364 49 342 51 l 440 39 l 440 0 l 60 0 l 60 39 l 136 49 q 163 60 158 51 q 167 117 167 69 l 167 828 q 163 884 167 875 q 136 896 158 893 l 60 906 l 60 944 l 440 944 l 440 906 l 364 896 q 338 884 342 893 q 333 828 333 875 l 333 501 l 699 501 l 699 828 q 694 884 699 875 q 668 896 690 893 l 592 906 l 592 944 l 972 944 l 972 906 l 896 896 q 869 884 874 893 q 865 828 865 875 l 865 117 q 869 60 865 69 q 896 49 874 51 l 972 39 m 707 1075 l 688 1044 q 592 1106 638 1074 q 511 1168 546 1138 q 346 1044 440 1104 l 326 1075 q 381 1141 360 1114 q 418 1197 401 1168 q 456 1268 435 1225 l 578 1268 q 616 1197 600 1225 q 653 1141 632 1168 q 707 1075 674 1114 z "},"I":{"ha":500,"x_min":60,"x_max":440,"o":"m 60 906 l 60 944 l 440 944 l 440 906 l 364 896 q 338 884 342 893 q 333 828 333 875 l 333 117 q 338 60 333 69 q 364 49 342 51 l 440 39 l 440 0 l 60 0 l 60 39 l 136 49 q 163 60 158 51 q 167 117 167 69 l 167 828 q 163 884 167 875 q 136 896 158 893 l 60 906 z "},"Ĳ":{"ha":1161,"x_min":60,"x_max":1119,"o":"m 60 906 l 60 944 l 440 944 l 440 906 l 364 896 q 338 884 342 893 q 333 828 333 875 l 333 117 q 338 60 333 69 q 364 49 342 51 l 440 39 l 440 0 l 60 0 l 60 39 l 136 49 q 163 60 158 51 q 167 117 167 69 l 167 828 q 163 884 167 875 q 136 896 158 893 l 60 906 m 739 906 l 739 944 l 1119 944 l 1119 906 l 1043 896 q 1017 884 1021 893 q 1013 828 1013 875 l 1013 269 q 986 126 1013 190 q 900 24 960 61 q 740 -14 840 -14 q 640 3 689 -14 q 555 67 590 21 q 508 197 519 113 l 604 225 q 626 108 608 149 q 672 51 644 67 q 732 35 700 35 q 790 51 764 35 q 831 113 815 68 q 846 242 846 157 l 846 828 q 842 884 846 875 q 815 896 838 893 l 739 906 z "},"Í":{"ha":500,"x_min":60,"x_max":476,"o":"m 60 906 l 60 944 l 440 944 l 440 906 l 364 896 q 338 884 342 893 q 333 828 333 875 l 333 117 q 338 60 333 69 q 364 49 342 51 l 440 39 l 440 0 l 60 0 l 60 39 l 136 49 q 163 60 158 51 q 167 117 167 69 l 167 828 q 163 884 167 875 q 136 896 158 893 l 60 906 m 249 1044 l 215 1074 q 265 1162 243 1118 q 301 1268 288 1206 l 476 1268 q 378 1153 429 1204 q 249 1044 326 1101 z "},"Ĭ":{"ha":500,"x_min":47,"x_max":453,"o":"m 60 906 l 60 944 l 440 944 l 440 906 l 364 896 q 338 884 342 893 q 333 828 333 875 l 333 117 q 338 60 333 69 q 364 49 342 51 l 440 39 l 440 0 l 60 0 l 60 39 l 136 49 q 163 60 158 51 q 167 117 167 69 l 167 828 q 163 884 167 875 q 136 896 158 893 l 60 906 m 250 1158 q 354 1185 315 1158 q 407 1275 393 1213 l 453 1261 q 383 1101 433 1158 q 250 1044 333 1044 q 117 1101 167 1044 q 47 1261 67 1158 l 93 1275 q 147 1185 108 1213 q 250 1158 186 1158 z "},"Î":{"ha":500,"x_min":60,"x_max":440,"o":"m 60 906 l 60 944 l 440 944 l 440 906 l 364 896 q 338 884 342 893 q 333 828 333 875 l 333 117 q 338 60 333 69 q 364 49 342 51 l 440 39 l 440 0 l 60 0 l 60 39 l 136 49 q 163 60 158 51 q 167 117 167 69 l 167 828 q 163 884 167 875 q 136 896 158 893 l 60 906 m 440 1075 l 421 1044 q 325 1106 371 1074 q 244 1168 279 1138 q 79 1044 174 1104 l 60 1075 q 114 1141 93 1114 q 151 1197 135 1168 q 189 1268 168 1225 l 311 1268 q 349 1197 333 1225 q 386 1141 365 1168 q 440 1075 407 1114 z "},"Ï":{"ha":500,"x_min":18,"x_max":483,"o":"m 60 906 l 60 944 l 440 944 l 440 906 l 364 896 q 338 884 342 893 q 333 828 333 875 l 333 117 q 338 60 333 69 q 364 49 342 51 l 440 39 l 440 0 l 60 0 l 60 39 l 136 49 q 163 60 158 51 q 167 117 167 69 l 167 828 q 163 884 167 875 q 136 896 158 893 l 60 906 m 104 1074 q 42 1098 65 1074 q 18 1161 18 1122 q 42 1224 18 1200 q 104 1247 65 1247 q 167 1224 142 1247 q 192 1161 192 1200 q 167 1098 192 1122 q 104 1074 142 1074 m 396 1074 q 333 1098 357 1074 q 310 1161 310 1122 q 333 1224 310 1200 q 396 1247 357 1247 q 458 1224 433 1247 q 483 1161 483 1200 q 458 1098 483 1122 q 396 1074 433 1074 z "},"İ":{"ha":500,"x_min":60,"x_max":440,"o":"m 60 906 l 60 944 l 440 944 l 440 906 l 364 896 q 338 884 342 893 q 333 828 333 875 l 333 117 q 338 60 333 69 q 364 49 342 51 l 440 39 l 440 0 l 60 0 l 60 39 l 136 49 q 163 60 158 51 q 167 117 167 69 l 167 828 q 163 884 167 875 q 136 896 158 893 l 60 906 m 250 1064 q 181 1091 207 1064 q 154 1161 154 1118 q 181 1231 154 1204 q 250 1257 207 1257 q 319 1231 292 1257 q 347 1161 347 1204 q 319 1091 347 1118 q 250 1064 292 1064 z "},"Ì":{"ha":500,"x_min":24,"x_max":440,"o":"m 60 906 l 60 944 l 440 944 l 440 906 l 364 896 q 338 884 342 893 q 333 828 333 875 l 333 117 q 338 60 333 69 q 364 49 342 51 l 440 39 l 440 0 l 60 0 l 60 39 l 136 49 q 163 60 158 51 q 167 117 167 69 l 167 828 q 163 884 167 875 q 136 896 158 893 l 60 906 m 251 1044 q 123 1153 175 1101 q 24 1268 71 1204 l 199 1268 q 235 1162 214 1206 q 285 1074 257 1118 l 251 1044 z "},"Ī":{"ha":500,"x_min":51,"x_max":450,"o":"m 60 906 l 60 944 l 440 944 l 440 906 l 364 896 q 338 884 342 893 q 333 828 333 875 l 333 117 q 338 60 333 69 q 364 49 342 51 l 440 39 l 440 0 l 60 0 l 60 39 l 136 49 q 163 60 158 51 q 167 117 167 69 l 167 828 q 163 884 167 875 q 136 896 158 893 l 60 906 m 450 1176 l 450 1100 l 51 1100 l 51 1176 l 450 1176 z "},"Į":{"ha":496,"x_min":40,"x_max":436,"o":"m 56 906 l 56 944 l 436 944 l 436 906 l 360 896 q 333 884 338 893 q 329 828 329 875 l 329 117 q 333 60 329 69 q 360 49 338 51 l 436 39 l 436 0 l 351 0 q 206 -53 257 0 q 156 -179 156 -106 q 170 -240 156 -218 q 215 -262 185 -262 q 265 -240 243 -262 q 294 -156 286 -217 l 383 -174 q 313 -279 363 -249 q 204 -310 264 -310 q 88 -275 135 -310 q 40 -181 40 -240 q 76 -85 40 -128 q 163 -12 111 -42 l 163 828 q 158 884 163 875 q 132 896 154 893 l 56 906 z "},"Ĩ":{"ha":500,"x_min":43,"x_max":457,"o":"m 60 906 l 60 944 l 440 944 l 440 906 l 364 896 q 338 884 342 893 q 333 828 333 875 l 333 117 q 338 60 333 69 q 364 49 342 51 l 440 39 l 440 0 l 60 0 l 60 39 l 136 49 q 163 60 158 51 q 167 117 167 69 l 167 828 q 163 884 167 875 q 136 896 158 893 l 60 906 m 336 1050 q 280 1067 306 1050 q 232 1108 254 1085 q 190 1148 210 1131 q 150 1165 169 1165 q 113 1140 126 1165 q 93 1057 100 1114 l 43 1057 q 83 1222 54 1168 q 167 1275 113 1275 q 222 1258 197 1275 q 269 1217 247 1240 q 311 1177 292 1194 q 351 1160 331 1160 q 388 1186 375 1160 q 407 1268 400 1213 l 457 1268 q 417 1103 446 1157 q 336 1050 389 1050 z "},"J":{"ha":661,"x_min":8,"x_max":619,"o":"m 239 906 l 239 944 l 619 944 l 619 906 l 543 896 q 517 884 521 893 q 513 828 513 875 l 513 269 q 486 126 513 190 q 400 24 460 61 q 240 -14 340 -14 q 140 3 189 -14 q 55 67 90 21 q 8 197 19 113 l 104 225 q 126 108 108 149 q 172 51 144 67 q 232 35 200 35 q 290 51 264 35 q 331 113 315 68 q 346 242 346 157 l 346 828 q 342 884 346 875 q 315 896 338 893 l 239 906 z "},"Ĵ":{"ha":661,"x_min":8,"x_max":619,"o":"m 239 906 l 239 944 l 619 944 l 619 906 l 543 896 q 517 884 521 893 q 513 828 513 875 l 513 269 q 486 126 513 190 q 400 24 460 61 q 240 -14 340 -14 q 140 3 189 -14 q 55 67 90 21 q 8 197 19 113 l 104 225 q 126 108 108 149 q 172 51 144 67 q 232 35 200 35 q 290 51 264 35 q 331 113 315 68 q 346 242 346 157 l 346 828 q 342 884 346 875 q 315 896 338 893 l 239 906 m 619 1075 l 600 1044 q 504 1106 550 1074 q 424 1168 458 1138 q 258 1044 353 1104 l 239 1075 q 293 1141 272 1114 q 331 1197 314 1168 q 368 1268 347 1225 l 490 1268 q 528 1197 513 1225 q 565 1141 544 1168 q 619 1075 586 1114 z "},"K":{"ha":911,"x_min":60,"x_max":913,"o":"m 60 906 l 60 944 l 440 944 l 440 906 l 364 896 q 338 884 342 893 q 333 828 333 875 l 333 454 l 663 828 q 705 883 703 874 q 685 896 707 893 l 608 906 l 608 944 l 890 944 l 890 906 l 814 896 q 792 890 800 894 q 771 872 783 886 q 731 828 758 858 l 536 608 l 776 117 q 800 74 792 88 q 819 56 808 60 q 850 49 831 51 l 913 39 l 913 0 l 649 0 l 424 481 l 333 378 l 333 117 q 338 60 333 69 q 364 49 342 51 l 440 39 l 440 0 l 60 0 l 60 39 l 136 49 q 163 60 158 51 q 167 117 167 69 l 167 828 q 163 884 167 875 q 136 896 158 893 l 60 906 z "},"Ķ":{"ha":911,"x_min":60,"x_max":913,"o":"m 60 906 l 60 944 l 440 944 l 440 906 l 364 896 q 338 884 342 893 q 333 828 333 875 l 333 454 l 663 828 q 705 883 703 874 q 685 896 707 893 l 608 906 l 608 944 l 890 944 l 890 906 l 814 896 q 792 890 800 894 q 771 872 783 886 q 731 828 758 858 l 536 608 l 776 117 q 800 74 792 88 q 819 56 808 60 q 850 49 831 51 l 913 39 l 913 0 l 649 0 l 424 481 l 333 378 l 333 117 q 338 60 333 69 q 364 49 342 51 l 440 39 l 440 0 l 60 0 l 60 39 l 136 49 q 163 60 158 51 q 167 117 167 69 l 167 828 q 163 884 167 875 q 136 896 158 893 l 60 906 m 378 -344 l 351 -319 q 388 -224 374 -274 q 411 -107 403 -175 l 568 -107 q 490 -230 536 -171 q 378 -344 443 -289 z "},"L":{"ha":739,"x_min":60,"x_max":719,"o":"m 681 239 l 719 239 l 719 0 l 60 0 l 60 39 l 136 49 q 163 60 158 51 q 167 117 167 69 l 167 828 q 163 884 167 875 q 136 896 158 893 l 60 906 l 60 944 l 440 944 l 440 906 l 364 896 q 338 884 342 893 q 333 828 333 875 l 333 49 l 561 49 q 608 51 594 49 q 627 60 622 53 q 636 85 632 68 l 681 239 z "},"Ĺ":{"ha":739,"x_min":60,"x_max":719,"o":"m 681 239 l 719 239 l 719 0 l 60 0 l 60 39 l 136 49 q 163 60 158 51 q 167 117 167 69 l 167 828 q 163 884 167 875 q 136 896 158 893 l 60 906 l 60 944 l 440 944 l 440 906 l 364 896 q 338 884 342 893 q 333 828 333 875 l 333 49 l 561 49 q 608 51 594 49 q 627 60 622 53 q 636 85 632 68 l 681 239 m 256 1044 l 222 1074 q 272 1162 250 1118 q 308 1268 294 1206 l 483 1268 q 385 1153 436 1204 q 256 1044 333 1101 z "},"Ľ":{"ha":739,"x_min":60,"x_max":719,"o":"m 681 239 l 719 239 l 719 0 l 60 0 l 60 39 l 136 49 q 163 60 158 51 q 167 117 167 69 l 167 828 q 163 884 167 875 q 136 896 158 893 l 60 906 l 60 944 l 440 944 l 440 906 l 364 896 q 338 884 342 893 q 333 828 333 875 l 333 49 l 561 49 q 608 51 594 49 q 627 60 622 53 q 636 85 632 68 l 681 239 m 544 647 l 511 647 l 511 944 l 663 944 q 610 797 638 867 q 544 647 583 728 z "},"Ļ":{"ha":739,"x_min":60,"x_max":719,"o":"m 681 239 l 719 239 l 719 0 l 60 0 l 60 39 l 136 49 q 163 60 158 51 q 167 117 167 69 l 167 828 q 163 884 167 875 q 136 896 158 893 l 60 906 l 60 944 l 440 944 l 440 906 l 364 896 q 338 884 342 893 q 333 828 333 875 l 333 49 l 561 49 q 608 51 594 49 q 627 60 622 53 q 636 85 632 68 l 681 239 m 297 -344 l 271 -319 q 308 -224 293 -274 q 331 -107 322 -175 l 488 -107 q 409 -230 456 -171 q 297 -344 363 -289 z "},"Ŀ":{"ha":739,"x_min":60,"x_max":719,"o":"m 681 239 l 719 239 l 719 0 l 60 0 l 60 39 l 136 49 q 163 60 158 51 q 167 117 167 69 l 167 828 q 163 884 167 875 q 136 896 158 893 l 60 906 l 60 944 l 440 944 l 440 906 l 364 896 q 338 884 342 893 q 333 828 333 875 l 333 49 l 561 49 q 608 51 594 49 q 627 60 622 53 q 636 85 632 68 l 681 239 m 618 438 q 549 465 575 438 q 522 535 522 492 q 549 604 522 578 q 618 631 575 631 q 688 604 660 631 q 715 535 715 578 q 688 465 715 492 q 618 438 660 438 z "},"Ł":{"ha":743,"x_min":43,"x_max":724,"o":"m 685 239 l 724 239 l 724 0 l 64 0 l 64 39 l 140 49 q 167 60 163 51 q 171 117 171 69 l 171 404 l 63 353 l 43 400 l 171 460 l 171 828 q 167 884 171 875 q 140 896 163 893 l 64 906 l 64 944 l 444 944 l 444 906 l 368 896 q 342 884 346 893 q 338 828 338 875 l 338 538 l 511 619 l 531 572 l 338 482 l 338 49 l 565 49 q 613 51 599 49 q 631 60 626 53 q 640 85 636 68 l 685 239 z "},"M":{"ha":1210,"x_min":60,"x_max":1150,"o":"m 1150 39 l 1150 0 l 769 0 l 769 39 l 846 49 q 872 60 868 51 q 876 117 876 69 l 876 831 l 622 111 l 474 111 l 222 826 l 222 117 q 226 60 222 69 q 253 49 231 51 l 329 39 l 329 0 l 60 0 l 60 39 l 136 49 q 163 60 158 51 q 167 117 167 69 l 167 828 q 163 884 167 875 q 136 896 158 893 l 60 906 l 60 944 l 353 944 l 607 222 l 865 944 l 1150 944 l 1150 906 l 1074 896 q 1047 884 1051 893 q 1043 828 1043 875 l 1043 117 q 1047 60 1043 69 q 1074 49 1051 51 l 1150 39 z "},"N":{"ha":954,"x_min":60,"x_max":915,"o":"m 646 906 l 646 944 l 915 944 l 915 906 l 839 896 q 813 884 817 893 q 808 828 808 875 l 808 0 l 732 0 l 222 824 l 222 117 q 226 60 222 69 q 253 49 231 51 l 329 39 l 329 0 l 60 0 l 60 39 l 136 49 q 163 60 158 51 q 167 117 167 69 l 167 828 q 163 884 167 875 q 136 896 158 893 l 60 906 l 60 944 l 339 944 l 753 279 l 753 828 q 749 884 753 875 q 722 896 744 893 l 646 906 z "},"Ń":{"ha":954,"x_min":60,"x_max":915,"o":"m 646 906 l 646 944 l 915 944 l 915 906 l 839 896 q 813 884 817 893 q 808 828 808 875 l 808 0 l 732 0 l 222 824 l 222 117 q 226 60 222 69 q 253 49 231 51 l 329 39 l 329 0 l 60 0 l 60 39 l 136 49 q 163 60 158 51 q 167 117 167 69 l 167 828 q 163 884 167 875 q 136 896 158 893 l 60 906 l 60 944 l 339 944 l 753 279 l 753 828 q 749 884 753 875 q 722 896 744 893 l 646 906 m 499 1044 l 465 1074 q 515 1162 493 1118 q 551 1268 538 1206 l 726 1268 q 628 1153 679 1204 q 499 1044 576 1101 z "},"Ň":{"ha":954,"x_min":60,"x_max":915,"o":"m 646 906 l 646 944 l 915 944 l 915 906 l 839 896 q 813 884 817 893 q 808 828 808 875 l 808 0 l 732 0 l 222 824 l 222 117 q 226 60 222 69 q 253 49 231 51 l 329 39 l 329 0 l 60 0 l 60 39 l 136 49 q 163 60 158 51 q 167 117 167 69 l 167 828 q 163 884 167 875 q 136 896 158 893 l 60 906 l 60 944 l 339 944 l 753 279 l 753 828 q 749 884 753 875 q 722 896 744 893 l 646 906 m 690 1244 q 636 1179 657 1207 q 599 1123 615 1151 q 561 1051 583 1094 l 439 1051 q 401 1123 418 1094 q 364 1179 385 1151 q 310 1244 343 1207 l 329 1275 q 425 1214 379 1246 q 506 1151 471 1182 q 671 1275 576 1215 l 690 1244 z "},"Ņ":{"ha":954,"x_min":60,"x_max":915,"o":"m 646 906 l 646 944 l 915 944 l 915 906 l 839 896 q 813 884 817 893 q 808 828 808 875 l 808 0 l 732 0 l 222 824 l 222 117 q 226 60 222 69 q 253 49 231 51 l 329 39 l 329 0 l 60 0 l 60 39 l 136 49 q 163 60 158 51 q 167 117 167 69 l 167 828 q 163 884 167 875 q 136 896 158 893 l 60 906 l 60 944 l 339 944 l 753 279 l 753 828 q 749 884 753 875 q 722 896 744 893 l 646 906 m 378 -344 l 351 -319 q 388 -224 374 -274 q 411 -107 403 -175 l 568 -107 q 490 -230 536 -171 q 378 -344 443 -289 z "},"Ŋ":{"ha":954,"x_min":60,"x_max":915,"o":"m 839 896 q 813 884 817 893 q 808 828 808 875 l 808 -26 q 783 -162 808 -97 q 702 -269 758 -228 q 551 -310 646 -310 q 459 -292 506 -310 q 378 -229 413 -275 q 332 -99 343 -183 l 428 -71 q 449 -188 432 -147 q 491 -245 465 -229 q 546 -261 517 -261 q 594 -244 571 -261 q 633 -183 618 -228 q 649 -54 649 -139 l 649 135 l 222 824 l 222 117 q 226 60 222 69 q 253 49 231 51 l 329 39 l 329 0 l 60 0 l 60 39 l 136 49 q 163 60 158 51 q 167 117 167 69 l 167 828 q 163 884 167 875 q 136 896 158 893 l 60 906 l 60 944 l 339 944 l 753 279 l 753 828 q 749 884 753 875 q 722 896 744 893 l 646 906 l 646 944 l 915 944 l 915 906 l 839 896 z "},"Ñ":{"ha":954,"x_min":60,"x_max":915,"o":"m 646 906 l 646 944 l 915 944 l 915 906 l 839 896 q 813 884 817 893 q 808 828 808 875 l 808 0 l 732 0 l 222 824 l 222 117 q 226 60 222 69 q 253 49 231 51 l 329 39 l 329 0 l 60 0 l 60 39 l 136 49 q 163 60 158 51 q 167 117 167 69 l 167 828 q 163 884 167 875 q 136 896 158 893 l 60 906 l 60 944 l 339 944 l 753 279 l 753 828 q 749 884 753 875 q 722 896 744 893 l 646 906 m 586 1050 q 530 1067 556 1050 q 482 1108 504 1085 q 440 1148 460 1131 q 400 1165 419 1165 q 363 1140 376 1165 q 343 1057 350 1114 l 293 1057 q 333 1222 304 1168 q 417 1275 363 1275 q 472 1258 447 1275 q 519 1217 497 1240 q 561 1177 542 1194 q 601 1160 581 1160 q 638 1186 625 1160 q 657 1268 650 1213 l 707 1268 q 667 1103 696 1157 q 586 1050 639 1050 z "},"O":{"ha":936,"x_min":92,"x_max":844,"o":"m 844 517 l 844 429 q 749 101 844 215 q 468 -14 654 -14 q 187 101 282 -14 q 92 429 92 215 l 92 517 q 187 844 92 731 q 468 958 282 958 q 749 844 654 958 q 844 517 844 731 m 667 586 q 646 778 667 708 q 581 879 625 849 q 468 910 538 910 q 356 879 400 910 q 290 778 311 849 q 269 586 269 708 l 269 360 q 290 168 269 239 q 356 66 311 97 q 468 35 400 35 q 581 66 538 35 q 646 168 625 97 q 667 360 667 239 l 667 586 z "},"Ó":{"ha":936,"x_min":92,"x_max":844,"o":"m 844 517 l 844 429 q 749 101 844 215 q 468 -14 654 -14 q 187 101 282 -14 q 92 429 92 215 l 92 517 q 187 844 92 731 q 468 958 282 958 q 749 844 654 958 q 844 517 844 731 m 667 586 q 646 778 667 708 q 581 879 625 849 q 468 910 538 910 q 356 879 400 910 q 290 778 311 849 q 269 586 269 708 l 269 360 q 290 168 269 239 q 356 66 311 97 q 468 35 400 35 q 581 66 538 35 q 646 168 625 97 q 667 360 667 239 l 667 586 m 474 1044 l 440 1074 q 490 1162 468 1118 q 526 1268 513 1206 l 701 1268 q 603 1153 654 1204 q 474 1044 551 1101 z "},"Ŏ":{"ha":936,"x_min":92,"x_max":844,"o":"m 844 517 l 844 429 q 749 101 844 215 q 468 -14 654 -14 q 187 101 282 -14 q 92 429 92 215 l 92 517 q 187 844 92 731 q 468 958 282 958 q 749 844 654 958 q 844 517 844 731 m 667 586 q 646 778 667 708 q 581 879 625 849 q 468 910 538 910 q 356 879 400 910 q 290 778 311 849 q 269 586 269 708 l 269 360 q 290 168 269 239 q 356 66 311 97 q 468 35 400 35 q 581 66 538 35 q 646 168 625 97 q 667 360 667 239 l 667 586 m 475 1158 q 579 1185 540 1158 q 632 1275 618 1213 l 678 1261 q 608 1101 658 1158 q 475 1044 558 1044 q 342 1101 392 1044 q 272 1261 292 1158 l 318 1275 q 372 1185 333 1213 q 475 1158 411 1158 z "},"Ô":{"ha":936,"x_min":92,"x_max":844,"o":"m 844 517 l 844 429 q 749 101 844 215 q 468 -14 654 -14 q 187 101 282 -14 q 92 429 92 215 l 92 517 q 187 844 92 731 q 468 958 282 958 q 749 844 654 958 q 844 517 844 731 m 667 586 q 646 778 667 708 q 581 879 625 849 q 468 910 538 910 q 356 879 400 910 q 290 778 311 849 q 269 586 269 708 l 269 360 q 290 168 269 239 q 356 66 311 97 q 468 35 400 35 q 581 66 538 35 q 646 168 625 97 q 667 360 667 239 l 667 586 m 665 1075 l 646 1044 q 550 1106 596 1074 q 469 1168 504 1138 q 304 1044 399 1104 l 285 1075 q 339 1141 318 1114 q 376 1197 360 1168 q 414 1268 393 1225 l 536 1268 q 574 1197 558 1225 q 611 1141 590 1168 q 665 1075 632 1114 z "},"Ö":{"ha":936,"x_min":92,"x_max":844,"o":"m 844 517 l 844 429 q 749 101 844 215 q 468 -14 654 -14 q 187 101 282 -14 q 92 429 92 215 l 92 517 q 187 844 92 731 q 468 958 282 958 q 749 844 654 958 q 844 517 844 731 m 667 586 q 646 778 667 708 q 581 879 625 849 q 468 910 538 910 q 356 879 400 910 q 290 778 311 849 q 269 586 269 708 l 269 360 q 290 168 269 239 q 356 66 311 97 q 468 35 400 35 q 581 66 538 35 q 646 168 625 97 q 667 360 667 239 l 667 586 m 329 1074 q 267 1098 290 1074 q 243 1161 243 1122 q 267 1224 243 1200 q 329 1247 290 1247 q 392 1224 367 1247 q 417 1161 417 1200 q 392 1098 417 1122 q 329 1074 367 1074 m 621 1074 q 558 1098 582 1074 q 535 1161 535 1122 q 558 1224 535 1200 q 621 1247 582 1247 q 683 1224 658 1247 q 708 1161 708 1200 q 683 1098 708 1122 q 621 1074 658 1074 z "},"Ò":{"ha":936,"x_min":92,"x_max":844,"o":"m 844 517 l 844 429 q 749 101 844 215 q 468 -14 654 -14 q 187 101 282 -14 q 92 429 92 215 l 92 517 q 187 844 92 731 q 468 958 282 958 q 749 844 654 958 q 844 517 844 731 m 667 586 q 646 778 667 708 q 581 879 625 849 q 468 910 538 910 q 356 879 400 910 q 290 778 311 849 q 269 586 269 708 l 269 360 q 290 168 269 239 q 356 66 311 97 q 468 35 400 35 q 581 66 538 35 q 646 168 625 97 q 667 360 667 239 l 667 586 m 476 1044 q 348 1153 400 1101 q 249 1268 296 1204 l 424 1268 q 460 1162 439 1206 q 510 1074 482 1118 l 476 1044 z "},"Ő":{"ha":936,"x_min":92,"x_max":844,"o":"m 844 517 l 844 429 q 749 101 844 215 q 468 -14 654 -14 q 187 101 282 -14 q 92 429 92 215 l 92 517 q 187 844 92 731 q 468 958 282 958 q 749 844 654 958 q 844 517 844 731 m 667 586 q 646 778 667 708 q 581 879 625 849 q 468 910 538 910 q 356 879 400 910 q 290 778 311 849 q 269 586 269 708 l 269 360 q 290 168 269 239 q 356 66 311 97 q 468 35 400 35 q 581 66 538 35 q 646 168 625 97 q 667 360 667 239 l 667 586 m 364 1044 l 326 1078 q 371 1163 354 1119 q 401 1268 388 1207 l 556 1268 q 471 1152 517 1206 q 364 1044 425 1099 m 558 1044 l 521 1078 q 565 1163 549 1119 q 596 1268 582 1207 l 750 1268 q 665 1152 711 1206 q 558 1044 619 1099 z "},"Ō":{"ha":936,"x_min":92,"x_max":844,"o":"m 844 517 l 844 429 q 749 101 844 215 q 468 -14 654 -14 q 187 101 282 -14 q 92 429 92 215 l 92 517 q 187 844 92 731 q 468 958 282 958 q 749 844 654 958 q 844 517 844 731 m 667 586 q 646 778 667 708 q 581 879 625 849 q 468 910 538 910 q 356 879 400 910 q 290 778 311 849 q 269 586 269 708 l 269 360 q 290 168 269 239 q 356 66 311 97 q 468 35 400 35 q 581 66 538 35 q 646 168 625 97 q 667 360 667 239 l 667 586 m 675 1176 l 675 1100 l 276 1100 l 276 1176 l 675 1176 z "},"Ø":{"ha":936,"x_min":92,"x_max":844,"o":"m 844 429 q 749 101 844 215 q 468 -14 654 -14 q 215 71 308 -14 l 164 0 l 92 0 l 175 115 q 92 429 92 228 l 92 517 q 187 844 92 731 q 468 958 282 958 q 721 874 628 958 l 772 944 l 844 944 l 761 829 q 844 517 844 717 l 844 429 m 269 360 q 271 304 269 331 q 275 254 272 278 l 647 771 q 582 878 626 847 q 468 910 538 910 q 356 879 400 910 q 290 778 311 849 q 269 586 269 708 l 269 360 m 667 586 q 663 692 667 644 l 289 174 q 354 67 310 99 q 468 35 399 35 q 581 66 538 35 q 646 168 625 97 q 667 360 667 239 l 667 586 z "},"Õ":{"ha":936,"x_min":92,"x_max":844,"o":"m 844 517 l 844 429 q 749 101 844 215 q 468 -14 654 -14 q 187 101 282 -14 q 92 429 92 215 l 92 517 q 187 844 92 731 q 468 958 282 958 q 749 844 654 958 q 844 517 844 731 m 667 586 q 646 778 667 708 q 581 879 625 849 q 468 910 538 910 q 356 879 400 910 q 290 778 311 849 q 269 586 269 708 l 269 360 q 290 168 269 239 q 356 66 311 97 q 468 35 400 35 q 581 66 538 35 q 646 168 625 97 q 667 360 667 239 l 667 586 m 561 1050 q 505 1067 531 1050 q 457 1108 479 1085 q 415 1148 435 1131 q 375 1165 394 1165 q 338 1140 351 1165 q 318 1057 325 1114 l 268 1057 q 308 1222 279 1168 q 392 1275 338 1275 q 447 1258 422 1275 q 494 1217 472 1240 q 536 1177 517 1194 q 576 1160 556 1160 q 613 1186 600 1160 q 632 1268 625 1213 l 682 1268 q 642 1103 671 1157 q 561 1050 614 1050 z "},"Œ":{"ha":1267,"x_min":92,"x_max":1176,"o":"m 1138 239 l 1176 239 l 1176 0 l 460 0 q 187 105 282 0 q 92 429 92 210 l 92 517 q 187 840 92 736 q 460 944 282 944 l 1163 944 l 1163 706 l 1124 706 l 1079 860 q 1070 884 1075 876 q 1051 894 1065 892 q 1004 896 1038 896 l 763 896 l 763 501 l 921 501 q 980 507 969 501 q 996 538 990 513 l 1019 650 l 1065 650 l 1065 304 l 1026 304 l 996 417 q 987 441 992 433 q 968 451 982 449 q 921 453 954 453 l 763 453 l 763 49 l 1018 49 q 1065 51 1051 49 q 1084 60 1079 53 q 1093 85 1089 68 l 1138 239 m 467 49 l 596 49 l 596 896 l 467 896 q 353 872 397 896 q 290 781 310 847 q 269 586 269 714 l 269 360 q 290 165 269 232 q 353 73 310 97 q 467 49 397 49 z "},"P":{"ha":831,"x_min":60,"x_max":782,"o":"m 60 906 l 60 944 l 478 944 q 706 874 631 944 q 782 688 782 804 l 782 656 q 706 468 782 539 q 478 397 631 397 l 333 397 l 333 117 q 338 60 333 69 q 364 49 342 51 l 468 39 l 468 0 l 60 0 l 60 39 l 136 49 q 163 60 158 51 q 167 117 167 69 l 167 828 q 163 884 167 875 q 136 896 158 893 l 60 906 m 478 896 l 333 896 l 333 446 l 478 446 q 572 494 539 446 q 604 628 604 543 l 604 715 q 572 848 604 800 q 478 896 539 896 z "},"Þ":{"ha":831,"x_min":60,"x_max":782,"o":"m 60 906 l 60 944 l 468 944 l 468 906 l 364 896 q 338 885 342 894 q 333 828 333 875 l 333 751 l 478 751 q 706 681 631 751 q 782 494 782 611 l 782 463 q 706 275 782 346 q 478 204 631 204 l 333 204 l 333 117 q 338 60 333 69 q 364 49 342 51 l 468 39 l 468 0 l 60 0 l 60 39 l 136 49 q 163 60 158 51 q 167 117 167 69 l 167 828 q 163 884 167 875 q 136 896 158 893 l 60 906 m 478 703 l 333 703 l 333 253 l 478 253 q 572 301 539 253 q 604 435 604 350 l 604 522 q 572 655 604 607 q 478 703 539 703 z "},"Q":{"ha":942,"x_min":92,"x_max":850,"o":"m 799 -115 l 822 -289 q 685 -263 747 -289 q 572 -178 622 -237 q 483 -14 521 -118 l 471 -14 q 188 101 283 -14 q 92 429 92 215 l 92 517 q 188 844 92 731 q 471 958 283 958 q 753 844 657 958 q 850 517 850 731 l 850 429 q 771 123 850 236 q 538 -10 692 10 q 625 -90 565 -65 q 799 -115 685 -115 m 672 586 q 651 778 672 708 q 585 879 629 849 q 471 910 540 910 q 357 879 401 910 q 291 778 313 849 q 269 586 269 708 l 269 360 q 291 168 269 239 q 357 66 313 97 q 471 35 401 35 q 585 66 540 35 q 651 168 629 97 q 672 360 672 239 l 672 586 z "},"R":{"ha":904,"x_min":60,"x_max":904,"o":"m 60 906 l 60 944 l 479 944 q 704 879 625 944 q 783 704 783 814 l 783 672 q 738 531 783 589 q 606 447 692 472 l 779 117 q 804 72 796 86 q 820 55 813 58 q 842 49 828 51 l 904 39 l 904 0 l 644 0 l 435 431 l 333 431 l 333 117 q 338 60 333 69 q 364 49 342 51 l 440 39 l 440 0 l 60 0 l 60 39 l 136 49 q 163 60 158 51 q 167 117 167 69 l 167 828 q 163 884 167 875 q 136 896 158 893 l 60 906 m 479 896 l 333 896 l 333 479 l 479 479 q 573 517 540 479 q 606 658 606 556 l 606 718 q 573 858 606 821 q 479 896 540 896 z "},"Ŕ":{"ha":904,"x_min":60,"x_max":904,"o":"m 60 906 l 60 944 l 479 944 q 704 879 625 944 q 783 704 783 814 l 783 672 q 738 531 783 589 q 606 447 692 472 l 779 117 q 804 72 796 86 q 820 55 813 58 q 842 49 828 51 l 904 39 l 904 0 l 644 0 l 435 431 l 333 431 l 333 117 q 338 60 333 69 q 364 49 342 51 l 440 39 l 440 0 l 60 0 l 60 39 l 136 49 q 163 60 158 51 q 167 117 167 69 l 167 828 q 163 884 167 875 q 136 896 158 893 l 60 906 m 479 896 l 333 896 l 333 479 l 479 479 q 573 517 540 479 q 606 658 606 556 l 606 718 q 573 858 606 821 q 479 896 540 896 m 446 1044 l 413 1074 q 463 1162 440 1118 q 499 1268 485 1206 l 674 1268 q 575 1153 626 1204 q 446 1044 524 1101 z "},"Ř":{"ha":904,"x_min":60,"x_max":904,"o":"m 60 906 l 60 944 l 479 944 q 704 879 625 944 q 783 704 783 814 l 783 672 q 738 531 783 589 q 606 447 692 472 l 779 117 q 804 72 796 86 q 820 55 813 58 q 842 49 828 51 l 904 39 l 904 0 l 644 0 l 435 431 l 333 431 l 333 117 q 338 60 333 69 q 364 49 342 51 l 440 39 l 440 0 l 60 0 l 60 39 l 136 49 q 163 60 158 51 q 167 117 167 69 l 167 828 q 163 884 167 875 q 136 896 158 893 l 60 906 m 479 896 l 333 896 l 333 479 l 479 479 q 573 517 540 479 q 606 658 606 556 l 606 718 q 573 858 606 821 q 479 896 540 896 m 638 1244 q 583 1179 604 1207 q 547 1123 563 1151 q 508 1051 531 1094 l 386 1051 q 349 1123 365 1094 q 311 1179 332 1151 q 257 1244 290 1207 l 276 1275 q 372 1214 326 1246 q 453 1151 418 1182 q 618 1275 524 1215 l 638 1244 z "},"Ŗ":{"ha":904,"x_min":60,"x_max":904,"o":"m 60 906 l 60 944 l 479 944 q 704 879 625 944 q 783 704 783 814 l 783 672 q 738 531 783 589 q 606 447 692 472 l 779 117 q 804 72 796 86 q 820 55 813 58 q 842 49 828 51 l 904 39 l 904 0 l 644 0 l 435 431 l 333 431 l 333 117 q 338 60 333 69 q 364 49 342 51 l 440 39 l 440 0 l 60 0 l 60 39 l 136 49 q 163 60 158 51 q 167 117 167 69 l 167 828 q 163 884 167 875 q 136 896 158 893 l 60 906 m 479 896 l 333 896 l 333 479 l 479 479 q 573 517 540 479 q 606 658 606 556 l 606 718 q 573 858 606 821 q 479 896 540 896 m 375 -344 l 349 -319 q 385 -224 371 -274 q 408 -107 400 -175 l 565 -107 q 487 -230 533 -171 q 375 -344 440 -289 z "},"S":{"ha":781,"x_min":61,"x_max":704,"o":"m 382 35 q 520 74 465 35 q 575 199 575 114 q 538 303 575 261 q 407 372 501 344 l 278 411 q 128 512 181 440 q 76 690 76 583 q 109 822 76 761 q 209 921 142 883 q 379 958 276 958 q 561 917 492 958 q 658 811 631 876 q 672 671 686 746 l 513 642 q 494 840 535 771 q 361 910 453 910 q 248 868 290 910 q 206 749 206 826 q 242 636 206 685 q 364 561 279 588 l 493 522 q 651 430 599 492 q 704 258 704 368 q 669 119 704 181 q 562 22 633 57 q 383 -14 490 -14 q 236 9 306 -14 q 120 85 167 32 q 61 228 74 138 l 154 261 q 194 123 161 172 q 276 54 226 74 q 382 35 325 35 z "},"Ś":{"ha":781,"x_min":61,"x_max":704,"o":"m 382 35 q 520 74 465 35 q 575 199 575 114 q 538 303 575 261 q 407 372 501 344 l 278 411 q 128 512 181 440 q 76 690 76 583 q 109 822 76 761 q 209 921 142 883 q 379 958 276 958 q 561 917 492 958 q 658 811 631 876 q 672 671 686 746 l 513 642 q 494 840 535 771 q 361 910 453 910 q 248 868 290 910 q 206 749 206 826 q 242 636 206 685 q 364 561 279 588 l 493 522 q 651 430 599 492 q 704 258 704 368 q 669 119 704 181 q 562 22 633 57 q 383 -14 490 -14 q 236 9 306 -14 q 120 85 167 32 q 61 228 74 138 l 154 261 q 194 123 161 172 q 276 54 226 74 q 382 35 325 35 m 382 1044 l 349 1074 q 399 1162 376 1118 q 435 1268 421 1206 l 610 1268 q 511 1153 563 1204 q 382 1044 460 1101 z "},"Š":{"ha":781,"x_min":61,"x_max":704,"o":"m 382 35 q 520 74 465 35 q 575 199 575 114 q 538 303 575 261 q 407 372 501 344 l 278 411 q 128 512 181 440 q 76 690 76 583 q 109 822 76 761 q 209 921 142 883 q 379 958 276 958 q 561 917 492 958 q 658 811 631 876 q 672 671 686 746 l 513 642 q 494 840 535 771 q 361 910 453 910 q 248 868 290 910 q 206 749 206 826 q 242 636 206 685 q 364 561 279 588 l 493 522 q 651 430 599 492 q 704 258 704 368 q 669 119 704 181 q 562 22 633 57 q 383 -14 490 -14 q 236 9 306 -14 q 120 85 167 32 q 61 228 74 138 l 154 261 q 194 123 161 172 q 276 54 226 74 q 382 35 325 35 m 574 1244 q 519 1179 540 1207 q 483 1123 499 1151 q 444 1051 467 1094 l 322 1051 q 285 1123 301 1094 q 247 1179 268 1151 q 193 1244 226 1207 l 213 1275 q 308 1214 263 1246 q 389 1151 354 1182 q 554 1275 460 1215 l 574 1244 z "},"Ş":{"ha":781,"x_min":61,"x_max":704,"o":"m 517 -194 q 470 -279 517 -249 q 351 -310 424 -310 q 251 -285 294 -310 q 197 -201 208 -261 l 274 -182 q 297 -247 279 -228 q 340 -265 314 -265 q 387 -245 372 -265 q 401 -194 401 -225 q 386 -142 401 -162 q 329 -121 371 -121 q 316 -122 324 -121 q 301 -124 308 -122 l 283 -87 l 315 -10 q 197 25 251 -1 q 107 101 143 51 q 61 228 71 151 l 154 261 q 194 123 161 172 q 276 54 226 74 q 382 35 325 35 q 520 74 465 35 q 575 199 575 114 q 538 303 575 261 q 407 372 501 344 l 278 411 q 128 512 181 440 q 76 690 76 583 q 109 822 76 761 q 209 921 142 883 q 379 958 276 958 q 561 917 492 958 q 658 811 631 876 q 672 671 686 746 l 513 642 q 494 840 535 771 q 361 910 453 910 q 248 868 290 910 q 206 749 206 826 q 242 636 206 685 q 364 561 279 588 l 493 522 q 651 430 599 492 q 704 258 704 368 q 669 119 704 181 q 562 22 633 57 q 383 -14 490 -14 l 369 -14 l 343 -76 q 469 -109 422 -78 q 517 -194 517 -140 z "},"Ŝ":{"ha":781,"x_min":61,"x_max":704,"o":"m 382 35 q 520 74 465 35 q 575 199 575 114 q 538 303 575 261 q 407 372 501 344 l 278 411 q 128 512 181 440 q 76 690 76 583 q 109 822 76 761 q 209 921 142 883 q 379 958 276 958 q 561 917 492 958 q 658 811 631 876 q 672 671 686 746 l 513 642 q 494 840 535 771 q 361 910 453 910 q 248 868 290 910 q 206 749 206 826 q 242 636 206 685 q 364 561 279 588 l 493 522 q 651 430 599 492 q 704 258 704 368 q 669 119 704 181 q 562 22 633 57 q 383 -14 490 -14 q 236 9 306 -14 q 120 85 167 32 q 61 228 74 138 l 154 261 q 194 123 161 172 q 276 54 226 74 q 382 35 325 35 m 574 1075 l 554 1044 q 458 1106 504 1074 q 378 1168 413 1138 q 213 1044 307 1104 l 193 1075 q 247 1141 226 1114 q 285 1197 268 1168 q 322 1268 301 1225 l 444 1268 q 483 1197 467 1225 q 519 1141 499 1168 q 574 1075 540 1114 z "},"ẞ":{"ha":917,"x_min":38,"x_max":864,"o":"m 311 682 l 311 0 l 38 0 l 38 39 l 114 49 q 140 60 136 51 q 144 117 144 69 l 144 668 q 227 878 144 797 q 481 958 310 958 q 661 928 583 958 q 794 844 739 897 l 794 814 l 628 528 q 801 428 738 499 q 864 257 864 357 l 864 235 q 790 54 864 122 q 596 -14 715 -14 q 501 1 549 -14 q 421 49 454 15 q 378 139 388 82 l 478 165 q 505 82 486 110 q 546 44 524 54 q 585 35 568 35 q 660 83 633 35 q 686 221 686 132 l 686 271 q 667 393 686 342 q 602 472 649 444 q 472 500 556 500 l 461 500 l 461 540 l 639 844 q 567 894 606 879 q 483 910 528 910 q 356 856 401 910 q 311 682 311 801 z "},"T":{"ha":797,"x_min":17,"x_max":781,"o":"m 17 944 l 781 944 l 781 706 l 742 706 l 697 860 q 688 885 693 878 q 669 894 683 893 q 622 896 656 896 l 482 896 l 482 117 q 486 60 482 69 q 513 49 490 51 l 589 39 l 589 0 l 208 0 l 208 39 l 285 49 q 311 60 307 51 q 315 117 315 69 l 315 896 l 175 896 q 128 894 143 896 q 110 885 114 893 q 100 860 106 878 l 56 706 l 17 706 l 17 944 z "},"Ŧ":{"ha":797,"x_min":17,"x_max":781,"o":"m 589 39 l 589 0 l 208 0 l 208 39 l 285 49 q 311 60 307 51 q 315 117 315 69 l 315 447 l 119 447 l 119 496 l 315 496 l 315 896 l 175 896 q 128 894 143 896 q 110 885 114 893 q 100 860 106 878 l 56 706 l 17 706 l 17 944 l 781 944 l 781 706 l 742 706 l 697 860 q 688 885 693 878 q 669 894 683 893 q 622 896 656 896 l 482 896 l 482 496 l 678 496 l 678 447 l 482 447 l 482 117 q 486 60 482 69 q 513 49 490 51 l 589 39 z "},"Ť":{"ha":797,"x_min":17,"x_max":781,"o":"m 17 944 l 781 944 l 781 706 l 742 706 l 697 860 q 688 885 693 878 q 669 894 683 893 q 622 896 656 896 l 482 896 l 482 117 q 486 60 482 69 q 513 49 490 51 l 589 39 l 589 0 l 208 0 l 208 39 l 285 49 q 311 60 307 51 q 315 117 315 69 l 315 896 l 175 896 q 128 894 143 896 q 110 885 114 893 q 100 860 106 878 l 56 706 l 17 706 l 17 944 m 589 1244 q 535 1179 556 1207 q 498 1123 514 1151 q 460 1051 482 1094 l 338 1051 q 300 1123 317 1094 q 263 1179 283 1151 q 208 1244 242 1207 l 228 1275 q 324 1214 278 1246 q 404 1151 369 1182 q 569 1275 475 1215 l 589 1244 z "},"U":{"ha":950,"x_min":38,"x_max":910,"o":"m 640 906 l 640 944 l 910 944 l 910 906 l 833 896 q 807 884 811 893 q 803 828 803 875 l 803 321 q 733 70 803 154 q 518 -14 663 -14 q 247 78 350 -14 q 144 342 144 169 l 144 828 q 140 884 144 875 q 114 896 136 893 l 38 906 l 38 944 l 418 944 l 418 906 l 342 896 q 315 884 319 893 q 311 828 311 875 l 311 332 q 368 107 311 176 q 531 38 425 38 q 690 103 633 38 q 747 318 747 169 l 747 828 q 743 884 747 875 q 717 896 739 893 l 640 906 z "},"Ú":{"ha":950,"x_min":38,"x_max":910,"o":"m 640 906 l 640 944 l 910 944 l 910 906 l 833 896 q 807 884 811 893 q 803 828 803 875 l 803 321 q 733 70 803 154 q 518 -14 663 -14 q 247 78 350 -14 q 144 342 144 169 l 144 828 q 140 884 144 875 q 114 896 136 893 l 38 906 l 38 944 l 418 944 l 418 906 l 342 896 q 315 884 319 893 q 311 828 311 875 l 311 332 q 368 107 311 176 q 531 38 425 38 q 690 103 633 38 q 747 318 747 169 l 747 828 q 743 884 747 875 q 717 896 739 893 l 640 906 m 529 1044 l 496 1074 q 546 1162 524 1118 q 582 1268 568 1206 l 757 1268 q 658 1153 710 1204 q 529 1044 607 1101 z "},"Ŭ":{"ha":950,"x_min":38,"x_max":910,"o":"m 640 906 l 640 944 l 910 944 l 910 906 l 833 896 q 807 884 811 893 q 803 828 803 875 l 803 321 q 733 70 803 154 q 518 -14 663 -14 q 247 78 350 -14 q 144 342 144 169 l 144 828 q 140 884 144 875 q 114 896 136 893 l 38 906 l 38 944 l 418 944 l 418 906 l 342 896 q 315 884 319 893 q 311 828 311 875 l 311 332 q 368 107 311 176 q 531 38 425 38 q 690 103 633 38 q 747 318 747 169 l 747 828 q 743 884 747 875 q 717 896 739 893 l 640 906 m 531 1158 q 635 1185 596 1158 q 688 1275 674 1213 l 733 1261 q 664 1101 714 1158 q 531 1044 614 1044 q 397 1101 447 1044 q 328 1261 347 1158 l 374 1275 q 428 1185 389 1213 q 531 1158 467 1158 z "},"Û":{"ha":950,"x_min":38,"x_max":910,"o":"m 640 906 l 640 944 l 910 944 l 910 906 l 833 896 q 807 884 811 893 q 803 828 803 875 l 803 321 q 733 70 803 154 q 518 -14 663 -14 q 247 78 350 -14 q 144 342 144 169 l 144 828 q 140 884 144 875 q 114 896 136 893 l 38 906 l 38 944 l 418 944 l 418 906 l 342 896 q 315 884 319 893 q 311 828 311 875 l 311 332 q 368 107 311 176 q 531 38 425 38 q 690 103 633 38 q 747 318 747 169 l 747 828 q 743 884 747 875 q 717 896 739 893 l 640 906 m 721 1075 l 701 1044 q 606 1106 651 1074 q 525 1168 560 1138 q 360 1044 454 1104 l 340 1075 q 394 1141 374 1114 q 432 1197 415 1168 q 469 1268 449 1225 l 592 1268 q 630 1197 614 1225 q 667 1141 646 1168 q 721 1075 688 1114 z "},"Ü":{"ha":950,"x_min":38,"x_max":910,"o":"m 640 906 l 640 944 l 910 944 l 910 906 l 833 896 q 807 884 811 893 q 803 828 803 875 l 803 321 q 733 70 803 154 q 518 -14 663 -14 q 247 78 350 -14 q 144 342 144 169 l 144 828 q 140 884 144 875 q 114 896 136 893 l 38 906 l 38 944 l 418 944 l 418 906 l 342 896 q 315 884 319 893 q 311 828 311 875 l 311 332 q 368 107 311 176 q 531 38 425 38 q 690 103 633 38 q 747 318 747 169 l 747 828 q 743 884 747 875 q 717 896 739 893 l 640 906 m 385 1074 q 322 1098 346 1074 q 299 1161 299 1122 q 322 1224 299 1200 q 385 1247 346 1247 q 447 1224 422 1247 q 472 1161 472 1200 q 447 1098 472 1122 q 385 1074 422 1074 m 676 1074 q 614 1098 638 1074 q 590 1161 590 1122 q 614 1224 590 1200 q 676 1247 638 1247 q 739 1224 714 1247 q 764 1161 764 1200 q 739 1098 764 1122 q 676 1074 714 1074 z "},"Ù":{"ha":950,"x_min":38,"x_max":910,"o":"m 640 906 l 640 944 l 910 944 l 910 906 l 833 896 q 807 884 811 893 q 803 828 803 875 l 803 321 q 733 70 803 154 q 518 -14 663 -14 q 247 78 350 -14 q 144 342 144 169 l 144 828 q 140 884 144 875 q 114 896 136 893 l 38 906 l 38 944 l 418 944 l 418 906 l 342 896 q 315 884 319 893 q 311 828 311 875 l 311 332 q 368 107 311 176 q 531 38 425 38 q 690 103 633 38 q 747 318 747 169 l 747 828 q 743 884 747 875 q 717 896 739 893 l 640 906 m 532 1044 q 403 1153 456 1101 q 304 1268 351 1204 l 479 1268 q 516 1162 494 1206 q 565 1074 538 1118 l 532 1044 z "},"Ű":{"ha":950,"x_min":38,"x_max":910,"o":"m 640 906 l 640 944 l 910 944 l 910 906 l 833 896 q 807 884 811 893 q 803 828 803 875 l 803 321 q 733 70 803 154 q 518 -14 663 -14 q 247 78 350 -14 q 144 342 144 169 l 144 828 q 140 884 144 875 q 114 896 136 893 l 38 906 l 38 944 l 418 944 l 418 906 l 342 896 q 315 884 319 893 q 311 828 311 875 l 311 332 q 368 107 311 176 q 531 38 425 38 q 690 103 633 38 q 747 318 747 169 l 747 828 q 743 884 747 875 q 717 896 739 893 l 640 906 m 419 1044 l 382 1078 q 426 1163 410 1119 q 457 1268 443 1207 l 611 1268 q 526 1152 572 1206 q 419 1044 481 1099 m 614 1044 l 576 1078 q 621 1163 604 1119 q 651 1268 638 1207 l 806 1268 q 721 1152 767 1206 q 614 1044 675 1099 z "},"Ū":{"ha":950,"x_min":38,"x_max":910,"o":"m 640 906 l 640 944 l 910 944 l 910 906 l 833 896 q 807 884 811 893 q 803 828 803 875 l 803 321 q 733 70 803 154 q 518 -14 663 -14 q 247 78 350 -14 q 144 342 144 169 l 144 828 q 140 884 144 875 q 114 896 136 893 l 38 906 l 38 944 l 418 944 l 418 906 l 342 896 q 315 884 319 893 q 311 828 311 875 l 311 332 q 368 107 311 176 q 531 38 425 38 q 690 103 633 38 q 747 318 747 169 l 747 828 q 743 884 747 875 q 717 896 739 893 l 640 906 m 731 1176 l 731 1100 l 332 1100 l 332 1176 l 731 1176 z "},"Ų":{"ha":950,"x_min":38,"x_max":910,"o":"m 640 906 l 640 944 l 910 944 l 910 906 l 833 896 q 807 884 811 893 q 803 828 803 875 l 803 321 q 780 156 803 215 q 715 51 757 96 q 639 -18 678 11 q 574 -81 600 -47 q 549 -174 549 -115 q 610 -262 549 -262 q 658 -240 638 -262 q 688 -156 679 -217 l 776 -174 q 706 -279 756 -249 q 597 -310 657 -310 q 481 -275 528 -310 q 433 -179 433 -240 q 453 -108 433 -137 q 507 -56 474 -79 q 576 -10 540 -32 q 518 -14 550 -14 q 247 78 350 -14 q 144 342 144 169 l 144 828 q 140 884 144 875 q 114 896 136 893 l 38 906 l 38 944 l 418 944 l 418 906 l 342 896 q 315 884 319 893 q 311 828 311 875 l 311 332 q 368 107 311 176 q 531 38 425 38 q 690 103 633 38 q 747 318 747 169 l 747 828 q 743 884 747 875 q 717 896 739 893 l 640 906 z "},"Ů":{"ha":950,"x_min":38,"x_max":910,"o":"m 640 906 l 640 944 l 910 944 l 910 906 l 833 896 q 807 884 811 893 q 803 828 803 875 l 803 321 q 733 70 803 154 q 518 -14 663 -14 q 247 78 350 -14 q 144 342 144 169 l 144 828 q 140 884 144 875 q 114 896 136 893 l 38 906 l 38 944 l 418 944 l 418 906 l 342 896 q 315 884 319 893 q 311 828 311 875 l 311 332 q 368 107 311 176 q 531 38 425 38 q 690 103 633 38 q 747 318 747 169 l 747 828 q 743 884 747 875 q 717 896 739 893 l 640 906 m 701 1197 l 701 1182 q 681 1106 701 1143 q 623 1046 661 1069 q 531 1022 585 1022 q 438 1046 476 1022 q 380 1106 400 1069 q 360 1182 360 1143 l 360 1197 q 380 1274 360 1238 q 438 1333 400 1310 q 531 1356 476 1356 q 623 1333 585 1356 q 681 1274 661 1310 q 701 1197 701 1238 m 600 1207 q 531 1318 600 1318 q 463 1207 463 1318 l 463 1172 q 531 1060 463 1060 q 600 1172 600 1060 l 600 1207 z "},"Ũ":{"ha":950,"x_min":38,"x_max":910,"o":"m 640 906 l 640 944 l 910 944 l 910 906 l 833 896 q 807 884 811 893 q 803 828 803 875 l 803 321 q 733 70 803 154 q 518 -14 663 -14 q 247 78 350 -14 q 144 342 144 169 l 144 828 q 140 884 144 875 q 114 896 136 893 l 38 906 l 38 944 l 418 944 l 418 906 l 342 896 q 315 884 319 893 q 311 828 311 875 l 311 332 q 368 107 311 176 q 531 38 425 38 q 690 103 633 38 q 747 318 747 169 l 747 828 q 743 884 747 875 q 717 896 739 893 l 640 906 m 617 1050 q 560 1067 586 1050 q 513 1108 535 1085 q 470 1148 490 1131 q 431 1165 450 1165 q 394 1140 407 1165 q 374 1057 381 1114 l 324 1057 q 364 1222 335 1168 q 447 1275 393 1275 q 503 1258 478 1275 q 550 1217 528 1240 q 592 1177 572 1194 q 632 1160 611 1160 q 668 1186 656 1160 q 688 1268 681 1213 l 738 1268 q 698 1103 726 1157 q 617 1050 669 1050 z "},"V":{"ha":878,"x_min":-10,"x_max":888,"o":"m 763 828 l 500 0 l 381 0 l 117 828 q 101 873 107 860 q 89 890 96 886 q 67 896 82 894 l -10 906 l -10 944 l 376 944 l 376 906 l 300 896 q 276 884 278 893 q 289 828 275 875 l 500 165 l 708 828 q 722 884 724 875 q 697 896 719 893 l 621 906 l 621 944 l 888 944 l 888 906 l 811 896 q 790 890 797 894 q 778 873 783 886 q 763 828 772 860 z "},"W":{"ha":1303,"x_min":-7,"x_max":1310,"o":"m 872 0 l 644 758 l 429 0 l 308 0 l 115 828 q 104 873 108 860 q 92 890 100 886 q 69 896 85 894 l -7 906 l -7 944 l 378 944 l 378 906 l 301 896 q 278 885 279 893 q 286 828 276 876 l 431 181 l 643 944 l 758 944 l 985 194 l 1132 828 q 1140 885 1143 876 q 1117 896 1138 893 l 1040 906 l 1040 944 l 1310 944 l 1310 906 l 1233 896 q 1211 890 1218 894 q 1199 873 1204 886 q 1188 828 1194 860 l 994 0 l 872 0 z "},"Ẃ":{"ha":1303,"x_min":-7,"x_max":1310,"o":"m 872 0 l 644 758 l 429 0 l 308 0 l 115 828 q 104 873 108 860 q 92 890 100 886 q 69 896 85 894 l -7 906 l -7 944 l 378 944 l 378 906 l 301 896 q 278 885 279 893 q 286 828 276 876 l 431 181 l 643 944 l 758 944 l 985 194 l 1132 828 q 1140 885 1143 876 q 1117 896 1138 893 l 1040 906 l 1040 944 l 1310 944 l 1310 906 l 1233 896 q 1211 890 1218 894 q 1199 873 1204 886 q 1188 828 1194 860 l 994 0 l 872 0 m 689 1044 l 656 1074 q 706 1162 683 1118 q 742 1268 728 1206 l 917 1268 q 818 1153 869 1204 q 689 1044 767 1101 z "},"Ŵ":{"ha":1303,"x_min":-7,"x_max":1310,"o":"m 872 0 l 644 758 l 429 0 l 308 0 l 115 828 q 104 873 108 860 q 92 890 100 886 q 69 896 85 894 l -7 906 l -7 944 l 378 944 l 378 906 l 301 896 q 278 885 279 893 q 286 828 276 876 l 431 181 l 643 944 l 758 944 l 985 194 l 1132 828 q 1140 885 1143 876 q 1117 896 1138 893 l 1040 906 l 1040 944 l 1310 944 l 1310 906 l 1233 896 q 1211 890 1218 894 q 1199 873 1204 886 q 1188 828 1194 860 l 994 0 l 872 0 m 881 1075 l 861 1044 q 765 1106 811 1074 q 685 1168 719 1138 q 519 1044 614 1104 l 500 1075 q 554 1141 533 1114 q 592 1197 575 1168 q 629 1268 608 1225 l 751 1268 q 790 1197 774 1225 q 826 1141 806 1168 q 881 1075 847 1114 z "},"Ẅ":{"ha":1303,"x_min":-7,"x_max":1310,"o":"m 872 0 l 644 758 l 429 0 l 308 0 l 115 828 q 104 873 108 860 q 92 890 100 886 q 69 896 85 894 l -7 906 l -7 944 l 378 944 l 378 906 l 301 896 q 278 885 279 893 q 286 828 276 876 l 431 181 l 643 944 l 758 944 l 985 194 l 1132 828 q 1140 885 1143 876 q 1117 896 1138 893 l 1040 906 l 1040 944 l 1310 944 l 1310 906 l 1233 896 q 1211 890 1218 894 q 1199 873 1204 886 q 1188 828 1194 860 l 994 0 l 872 0 m 544 1074 q 482 1098 506 1074 q 458 1161 458 1122 q 482 1224 458 1200 q 544 1247 506 1247 q 607 1224 582 1247 q 632 1161 632 1200 q 607 1098 632 1122 q 544 1074 582 1074 m 836 1074 q 774 1098 797 1074 q 750 1161 750 1122 q 774 1224 750 1200 q 836 1247 797 1247 q 899 1224 874 1247 q 924 1161 924 1200 q 899 1098 924 1122 q 836 1074 874 1074 z "},"Ẁ":{"ha":1303,"x_min":-7,"x_max":1310,"o":"m 872 0 l 644 758 l 429 0 l 308 0 l 115 828 q 104 873 108 860 q 92 890 100 886 q 69 896 85 894 l -7 906 l -7 944 l 378 944 l 378 906 l 301 896 q 278 885 279 893 q 286 828 276 876 l 431 181 l 643 944 l 758 944 l 985 194 l 1132 828 q 1140 885 1143 876 q 1117 896 1138 893 l 1040 906 l 1040 944 l 1310 944 l 1310 906 l 1233 896 q 1211 890 1218 894 q 1199 873 1204 886 q 1188 828 1194 860 l 994 0 l 872 0 m 692 1044 q 563 1153 615 1101 q 464 1268 511 1204 l 639 1268 q 676 1162 654 1206 q 725 1074 697 1118 l 692 1044 z "},"X":{"ha":863,"x_min":1,"x_max":861,"o":"m 275 39 l 275 0 l 1 0 l 1 39 l 78 49 q 99 55 92 51 q 117 72 107 58 q 147 117 128 85 l 357 450 l 151 828 q 126 873 135 860 q 110 890 118 886 q 88 896 103 894 l 11 906 l 11 944 l 408 944 l 408 906 l 332 896 q 311 884 311 893 q 336 828 311 875 l 475 572 l 635 828 q 665 884 664 875 q 643 896 665 893 l 567 906 l 567 944 l 840 944 l 840 906 l 764 896 q 742 890 750 894 q 725 873 735 886 q 694 828 715 860 l 503 521 l 721 117 q 746 72 738 86 q 763 55 754 58 q 785 49 771 51 l 861 39 l 861 0 l 465 0 l 465 39 l 542 49 q 564 60 564 51 q 538 117 564 69 l 383 400 l 207 117 q 177 60 178 69 q 199 49 176 51 l 275 39 z "},"Y":{"ha":854,"x_min":-14,"x_max":868,"o":"m 619 39 l 619 0 l 239 0 l 239 39 l 315 49 q 342 60 338 51 q 346 117 346 69 l 346 404 l 125 828 q 100 873 108 860 q 84 890 92 886 q 63 896 76 894 l -14 906 l -14 944 l 382 944 l 382 906 l 306 896 q 285 884 285 893 q 307 828 285 875 l 486 469 l 672 828 q 695 883 696 874 q 674 896 694 893 l 597 906 l 597 944 l 868 944 l 868 906 l 792 896 q 770 890 778 894 q 755 873 763 886 q 731 828 747 860 l 513 407 l 513 117 q 517 60 513 69 q 543 49 521 51 l 619 39 z "},"Ý":{"ha":854,"x_min":-14,"x_max":868,"o":"m 619 39 l 619 0 l 239 0 l 239 39 l 315 49 q 342 60 338 51 q 346 117 346 69 l 346 404 l 125 828 q 100 873 108 860 q 84 890 92 886 q 63 896 76 894 l -14 906 l -14 944 l 382 944 l 382 906 l 306 896 q 285 884 285 893 q 307 828 285 875 l 486 469 l 672 828 q 695 883 696 874 q 674 896 694 893 l 597 906 l 597 944 l 868 944 l 868 906 l 792 896 q 770 890 778 894 q 755 873 763 886 q 731 828 747 860 l 513 407 l 513 117 q 517 60 513 69 q 543 49 521 51 l 619 39 m 468 1044 l 435 1074 q 485 1162 463 1118 q 521 1268 507 1206 l 696 1268 q 597 1153 649 1204 q 468 1044 546 1101 z "},"Ŷ":{"ha":854,"x_min":-14,"x_max":868,"o":"m 619 39 l 619 0 l 239 0 l 239 39 l 315 49 q 342 60 338 51 q 346 117 346 69 l 346 404 l 125 828 q 100 873 108 860 q 84 890 92 886 q 63 896 76 894 l -14 906 l -14 944 l 382 944 l 382 906 l 306 896 q 285 884 285 893 q 307 828 285 875 l 486 469 l 672 828 q 695 883 696 874 q 674 896 694 893 l 597 906 l 597 944 l 868 944 l 868 906 l 792 896 q 770 890 778 894 q 755 873 763 886 q 731 828 747 860 l 513 407 l 513 117 q 517 60 513 69 q 543 49 521 51 l 619 39 m 660 1075 l 640 1044 q 544 1106 590 1074 q 464 1168 499 1138 q 299 1044 393 1104 l 279 1075 q 333 1141 313 1114 q 371 1197 354 1168 q 408 1268 388 1225 l 531 1268 q 569 1197 553 1225 q 606 1141 585 1168 q 660 1075 626 1114 z "},"Ÿ":{"ha":854,"x_min":-14,"x_max":868,"o":"m 619 39 l 619 0 l 239 0 l 239 39 l 315 49 q 342 60 338 51 q 346 117 346 69 l 346 404 l 125 828 q 100 873 108 860 q 84 890 92 886 q 63 896 76 894 l -14 906 l -14 944 l 382 944 l 382 906 l 306 896 q 285 884 285 893 q 307 828 285 875 l 486 469 l 672 828 q 695 883 696 874 q 674 896 694 893 l 597 906 l 597 944 l 868 944 l 868 906 l 792 896 q 770 890 778 894 q 755 873 763 886 q 731 828 747 860 l 513 407 l 513 117 q 517 60 513 69 q 543 49 521 51 l 619 39 m 322 1074 q 260 1098 283 1074 q 236 1161 236 1122 q 260 1224 236 1200 q 322 1247 283 1247 q 385 1224 360 1247 q 410 1161 410 1200 q 385 1098 410 1122 q 322 1074 360 1074 m 614 1074 q 551 1098 575 1074 q 528 1161 528 1122 q 551 1224 528 1200 q 614 1247 575 1247 q 676 1224 651 1247 q 701 1161 701 1200 q 676 1098 701 1122 q 614 1074 651 1074 z "},"Ỳ":{"ha":854,"x_min":-14,"x_max":868,"o":"m 619 39 l 619 0 l 239 0 l 239 39 l 315 49 q 342 60 338 51 q 346 117 346 69 l 346 404 l 125 828 q 100 873 108 860 q 84 890 92 886 q 63 896 76 894 l -14 906 l -14 944 l 382 944 l 382 906 l 306 896 q 285 884 285 893 q 307 828 285 875 l 486 469 l 672 828 q 695 883 696 874 q 674 896 694 893 l 597 906 l 597 944 l 868 944 l 868 906 l 792 896 q 770 890 778 894 q 755 873 763 886 q 731 828 747 860 l 513 407 l 513 117 q 517 60 513 69 q 543 49 521 51 l 619 39 m 471 1044 q 342 1153 394 1101 q 243 1268 290 1204 l 418 1268 q 455 1162 433 1206 q 504 1074 476 1118 l 471 1044 z "},"Z":{"ha":758,"x_min":53,"x_max":706,"o":"m 667 239 l 706 239 l 706 0 l 53 0 l 53 35 l 503 896 l 233 896 q 187 894 201 896 q 168 884 172 892 q 158 860 164 876 l 114 706 l 75 706 l 75 944 l 692 944 l 692 910 l 242 49 l 547 49 q 594 51 581 49 q 613 60 608 53 q 622 85 618 68 l 667 239 z "},"Ź":{"ha":758,"x_min":53,"x_max":706,"o":"m 667 239 l 706 239 l 706 0 l 53 0 l 53 35 l 503 896 l 233 896 q 187 894 201 896 q 168 884 172 892 q 158 860 164 876 l 114 706 l 75 706 l 75 944 l 692 944 l 692 910 l 242 49 l 547 49 q 594 51 581 49 q 613 60 608 53 q 622 85 618 68 l 667 239 m 379 1044 l 346 1074 q 396 1162 374 1118 q 432 1268 418 1206 l 607 1268 q 508 1153 560 1204 q 379 1044 457 1101 z "},"Ž":{"ha":758,"x_min":53,"x_max":706,"o":"m 667 239 l 706 239 l 706 0 l 53 0 l 53 35 l 503 896 l 233 896 q 187 894 201 896 q 168 884 172 892 q 158 860 164 876 l 114 706 l 75 706 l 75 944 l 692 944 l 692 910 l 242 49 l 547 49 q 594 51 581 49 q 613 60 608 53 q 622 85 618 68 l 667 239 m 571 1244 q 517 1179 538 1207 q 480 1123 496 1151 q 442 1051 464 1094 l 319 1051 q 282 1123 299 1094 q 244 1179 265 1151 q 190 1244 224 1207 l 210 1275 q 306 1214 260 1246 q 386 1151 351 1182 q 551 1275 457 1215 l 571 1244 z "},"Ż":{"ha":758,"x_min":53,"x_max":706,"o":"m 667 239 l 706 239 l 706 0 l 53 0 l 53 35 l 503 896 l 233 896 q 187 894 201 896 q 168 884 172 892 q 158 860 164 876 l 114 706 l 75 706 l 75 944 l 692 944 l 692 910 l 242 49 l 547 49 q 594 51 581 49 q 613 60 608 53 q 622 85 618 68 l 667 239 m 379 1064 q 310 1091 336 1064 q 283 1161 283 1118 q 310 1231 283 1204 q 379 1257 336 1257 q 449 1231 421 1257 q 476 1161 476 1204 q 449 1091 476 1118 q 379 1064 421 1064 z "},"Ţ":{"ha":797,"x_min":17,"x_max":781,"o":"m 17 944 l 781 944 l 781 706 l 742 706 l 697 860 q 688 885 693 878 q 669 894 683 893 q 622 896 656 896 l 482 896 l 482 117 q 486 60 482 69 q 513 49 490 51 l 589 39 l 589 0 l 208 0 l 208 39 l 285 49 q 311 60 307 51 q 315 117 315 69 l 315 896 l 175 896 q 128 894 143 896 q 110 885 114 893 q 100 860 106 878 l 56 706 l 17 706 l 17 944 m 288 -344 l 261 -319 q 298 -224 283 -274 q 321 -107 313 -175 l 478 -107 q 399 -230 446 -171 q 288 -344 353 -289 z "},"Ș":{"ha":781,"x_min":61,"x_max":704,"o":"m 382 35 q 520 74 465 35 q 575 199 575 114 q 538 303 575 261 q 407 372 501 344 l 278 411 q 128 512 181 440 q 76 690 76 583 q 109 822 76 761 q 209 921 142 883 q 379 958 276 958 q 561 917 492 958 q 658 811 631 876 q 672 671 686 746 l 513 642 q 494 840 535 771 q 361 910 453 910 q 248 868 290 910 q 206 749 206 826 q 242 636 206 685 q 364 561 279 588 l 493 522 q 651 430 599 492 q 704 258 704 368 q 669 119 704 181 q 562 22 633 57 q 383 -14 490 -14 q 236 9 306 -14 q 120 85 167 32 q 61 228 74 138 l 154 261 q 194 123 161 172 q 276 54 226 74 q 382 35 325 35 m 272 -344 l 246 -319 q 283 -224 268 -274 q 306 -107 297 -175 l 463 -107 q 384 -230 431 -171 q 272 -344 338 -289 z "},"Ț":{"ha":797,"x_min":17,"x_max":781,"o":"m 17 944 l 781 944 l 781 706 l 742 706 l 697 860 q 688 885 693 878 q 669 894 683 893 q 622 896 656 896 l 482 896 l 482 117 q 486 60 482 69 q 513 49 490 51 l 589 39 l 589 0 l 208 0 l 208 39 l 285 49 q 311 60 307 51 q 315 117 315 69 l 315 896 l 175 896 q 128 894 143 896 q 110 885 114 893 q 100 860 106 878 l 56 706 l 17 706 l 17 944 m 288 -344 l 261 -319 q 298 -224 283 -274 q 321 -107 313 -175 l 478 -107 q 399 -230 446 -171 q 288 -344 353 -289 z "},"a":{"ha":747,"x_min":63,"x_max":740,"o":"m 740 35 q 687 0 718 14 q 611 -14 656 -14 q 516 11 554 -14 q 465 82 478 36 q 365 9 419 32 q 253 -14 310 -14 q 110 40 157 -14 q 63 174 63 93 q 122 306 63 256 q 333 357 182 357 l 460 357 l 460 469 q 430 627 460 585 q 347 669 400 669 q 283 652 313 669 q 242 588 254 635 q 246 454 231 542 l 93 476 q 108 595 82 540 q 194 684 133 650 q 350 718 256 718 q 515 683 457 718 q 597 592 574 649 q 619 469 619 535 l 619 149 q 632 60 619 78 q 660 42 644 42 q 715 71 685 42 l 740 35 m 314 60 q 385 78 350 60 q 460 149 421 97 l 460 308 l 356 308 q 257 276 288 308 q 226 176 226 244 q 249 90 226 121 q 314 60 271 60 z "},"á":{"ha":747,"x_min":63,"x_max":740,"o":"m 740 35 q 687 0 718 14 q 611 -14 656 -14 q 516 11 554 -14 q 465 82 478 36 q 365 9 419 32 q 253 -14 310 -14 q 110 40 157 -14 q 63 174 63 93 q 122 306 63 256 q 333 357 182 357 l 460 357 l 460 469 q 430 627 460 585 q 347 669 400 669 q 283 652 313 669 q 242 588 254 635 q 246 454 231 542 l 93 476 q 108 595 82 540 q 194 684 133 650 q 350 718 256 718 q 515 683 457 718 q 597 592 574 649 q 619 469 619 535 l 619 149 q 632 60 619 78 q 660 42 644 42 q 715 71 685 42 l 740 35 m 314 60 q 385 78 350 60 q 460 149 421 97 l 460 308 l 356 308 q 257 276 288 308 q 226 176 226 244 q 249 90 226 121 q 314 60 271 60 m 350 804 l 317 833 q 367 922 344 878 q 403 1028 389 965 l 578 1028 q 479 913 531 964 q 350 804 428 861 z "},"ă":{"ha":747,"x_min":63,"x_max":740,"o":"m 740 35 q 687 0 718 14 q 611 -14 656 -14 q 516 11 554 -14 q 465 82 478 36 q 365 9 419 32 q 253 -14 310 -14 q 110 40 157 -14 q 63 174 63 93 q 122 306 63 256 q 333 357 182 357 l 460 357 l 460 469 q 430 627 460 585 q 347 669 400 669 q 283 652 313 669 q 242 588 254 635 q 246 454 231 542 l 93 476 q 108 595 82 540 q 194 684 133 650 q 350 718 256 718 q 515 683 457 718 q 597 592 574 649 q 619 469 619 535 l 619 149 q 632 60 619 78 q 660 42 644 42 q 715 71 685 42 l 740 35 m 314 60 q 385 78 350 60 q 460 149 421 97 l 460 308 l 356 308 q 257 276 288 308 q 226 176 226 244 q 249 90 226 121 q 314 60 271 60 m 351 918 q 456 945 417 918 q 508 1035 494 972 l 554 1021 q 485 861 535 918 q 351 804 435 804 q 218 861 268 804 q 149 1021 168 918 l 194 1035 q 249 945 210 972 q 351 918 288 918 z "},"â":{"ha":747,"x_min":63,"x_max":740,"o":"m 740 35 q 687 0 718 14 q 611 -14 656 -14 q 516 11 554 -14 q 465 82 478 36 q 365 9 419 32 q 253 -14 310 -14 q 110 40 157 -14 q 63 174 63 93 q 122 306 63 256 q 333 357 182 357 l 460 357 l 460 469 q 430 627 460 585 q 347 669 400 669 q 283 652 313 669 q 242 588 254 635 q 246 454 231 542 l 93 476 q 108 595 82 540 q 194 684 133 650 q 350 718 256 718 q 515 683 457 718 q 597 592 574 649 q 619 469 619 535 l 619 149 q 632 60 619 78 q 660 42 644 42 q 715 71 685 42 l 740 35 m 314 60 q 385 78 350 60 q 460 149 421 97 l 460 308 l 356 308 q 257 276 288 308 q 226 176 226 244 q 249 90 226 121 q 314 60 271 60 m 542 835 l 522 804 q 426 865 472 833 q 346 928 381 897 q 181 804 275 864 l 161 835 q 215 901 194 874 q 253 956 236 928 q 290 1028 269 985 l 413 1028 q 451 956 435 985 q 488 901 467 928 q 542 835 508 874 z "},"ä":{"ha":747,"x_min":63,"x_max":740,"o":"m 740 35 q 687 0 718 14 q 611 -14 656 -14 q 516 11 554 -14 q 465 82 478 36 q 365 9 419 32 q 253 -14 310 -14 q 110 40 157 -14 q 63 174 63 93 q 122 306 63 256 q 333 357 182 357 l 460 357 l 460 469 q 430 627 460 585 q 347 669 400 669 q 283 652 313 669 q 242 588 254 635 q 246 454 231 542 l 93 476 q 108 595 82 540 q 194 684 133 650 q 350 718 256 718 q 515 683 457 718 q 597 592 574 649 q 619 469 619 535 l 619 149 q 632 60 619 78 q 660 42 644 42 q 715 71 685 42 l 740 35 m 314 60 q 385 78 350 60 q 460 149 421 97 l 460 308 l 356 308 q 257 276 288 308 q 226 176 226 244 q 249 90 226 121 q 314 60 271 60 m 206 833 q 143 858 167 833 q 119 921 119 882 q 143 983 119 960 q 206 1007 167 1007 q 268 983 243 1007 q 293 921 293 960 q 268 858 293 882 q 206 833 243 833 m 497 833 q 435 858 458 833 q 411 921 411 882 q 435 983 411 960 q 497 1007 458 1007 q 560 983 535 1007 q 585 921 585 960 q 560 858 585 882 q 497 833 535 833 z "},"à":{"ha":747,"x_min":63,"x_max":740,"o":"m 740 35 q 687 0 718 14 q 611 -14 656 -14 q 516 11 554 -14 q 465 82 478 36 q 365 9 419 32 q 253 -14 310 -14 q 110 40 157 -14 q 63 174 63 93 q 122 306 63 256 q 333 357 182 357 l 460 357 l 460 469 q 430 627 460 585 q 347 669 400 669 q 283 652 313 669 q 242 588 254 635 q 246 454 231 542 l 93 476 q 108 595 82 540 q 194 684 133 650 q 350 718 256 718 q 515 683 457 718 q 597 592 574 649 q 619 469 619 535 l 619 149 q 632 60 619 78 q 660 42 644 42 q 715 71 685 42 l 740 35 m 314 60 q 385 78 350 60 q 460 149 421 97 l 460 308 l 356 308 q 257 276 288 308 q 226 176 226 244 q 249 90 226 121 q 314 60 271 60 m 353 804 q 224 913 276 861 q 125 1028 172 964 l 300 1028 q 337 922 315 965 q 386 833 358 878 l 353 804 z "},"ā":{"ha":747,"x_min":63,"x_max":740,"o":"m 740 35 q 687 0 718 14 q 611 -14 656 -14 q 516 11 554 -14 q 465 82 478 36 q 365 9 419 32 q 253 -14 310 -14 q 110 40 157 -14 q 63 174 63 93 q 122 306 63 256 q 333 357 182 357 l 460 357 l 460 469 q 430 627 460 585 q 347 669 400 669 q 283 652 313 669 q 242 588 254 635 q 246 454 231 542 l 93 476 q 108 595 82 540 q 194 684 133 650 q 350 718 256 718 q 515 683 457 718 q 597 592 574 649 q 619 469 619 535 l 619 149 q 632 60 619 78 q 660 42 644 42 q 715 71 685 42 l 740 35 m 314 60 q 385 78 350 60 q 460 149 421 97 l 460 308 l 356 308 q 257 276 288 308 q 226 176 226 244 q 249 90 226 121 q 314 60 271 60 m 551 936 l 551 860 l 153 860 l 153 936 l 551 936 z "},"ą":{"ha":747,"x_min":63,"x_max":740,"o":"m 740 -174 q 670 -279 719 -249 q 561 -310 621 -310 q 444 -276 492 -310 q 397 -186 397 -242 q 424 -110 397 -142 q 494 -54 451 -78 q 581 -12 536 -31 q 465 82 486 0 q 365 9 419 32 q 253 -14 310 -14 q 110 40 157 -14 q 63 174 63 93 q 122 306 63 256 q 333 357 182 357 l 460 357 l 460 469 q 430 627 460 585 q 347 669 400 669 q 283 652 313 669 q 242 588 254 635 q 246 454 231 542 l 93 476 q 108 595 82 540 q 194 684 133 650 q 350 718 256 718 q 515 683 457 718 q 597 592 574 649 q 619 469 619 535 l 619 149 q 632 60 619 78 q 660 42 644 42 q 715 71 685 42 l 740 35 q 665 -20 704 1 q 590 -61 625 -42 q 534 -108 556 -81 q 513 -182 513 -136 q 528 -240 513 -218 q 574 -262 543 -262 q 622 -240 601 -262 q 651 -156 643 -217 l 740 -174 m 314 60 q 385 78 350 60 q 460 149 421 97 l 460 308 l 356 308 q 257 276 288 308 q 226 176 226 244 q 249 90 226 121 q 314 60 271 60 z "},"å":{"ha":747,"x_min":63,"x_max":740,"o":"m 740 35 q 687 0 718 14 q 611 -14 656 -14 q 516 11 554 -14 q 465 82 478 36 q 365 9 419 32 q 253 -14 310 -14 q 110 40 157 -14 q 63 174 63 93 q 122 306 63 256 q 333 357 182 357 l 460 357 l 460 469 q 430 627 460 585 q 347 669 400 669 q 283 652 313 669 q 242 588 254 635 q 246 454 231 542 l 93 476 q 108 595 82 540 q 194 684 133 650 q 350 718 256 718 q 515 683 457 718 q 597 592 574 649 q 619 469 619 535 l 619 149 q 632 60 619 78 q 660 42 644 42 q 715 71 685 42 l 740 35 m 314 60 q 385 78 350 60 q 460 149 421 97 l 460 308 l 356 308 q 257 276 288 308 q 226 176 226 244 q 249 90 226 121 q 314 60 271 60 m 522 957 l 522 942 q 502 866 522 903 q 444 806 482 829 q 351 782 406 782 q 259 806 297 782 q 201 866 221 829 q 181 942 181 903 l 181 957 q 201 1033 181 997 q 259 1092 221 1069 q 351 1115 297 1115 q 444 1092 406 1115 q 502 1033 482 1069 q 522 957 522 997 m 421 967 q 351 1078 421 1078 q 283 967 283 1078 l 283 932 q 351 819 283 819 q 421 932 421 819 l 421 967 z "},"ã":{"ha":747,"x_min":63,"x_max":740,"o":"m 740 35 q 687 0 718 14 q 611 -14 656 -14 q 516 11 554 -14 q 465 82 478 36 q 365 9 419 32 q 253 -14 310 -14 q 110 40 157 -14 q 63 174 63 93 q 122 306 63 256 q 333 357 182 357 l 460 357 l 460 469 q 430 627 460 585 q 347 669 400 669 q 283 652 313 669 q 242 588 254 635 q 246 454 231 542 l 93 476 q 108 595 82 540 q 194 684 133 650 q 350 718 256 718 q 515 683 457 718 q 597 592 574 649 q 619 469 619 535 l 619 149 q 632 60 619 78 q 660 42 644 42 q 715 71 685 42 l 740 35 m 314 60 q 385 78 350 60 q 460 149 421 97 l 460 308 l 356 308 q 257 276 288 308 q 226 176 226 244 q 249 90 226 121 q 314 60 271 60 m 438 810 q 381 827 407 810 q 333 867 356 844 q 291 908 311 890 q 251 925 271 925 q 215 899 228 925 q 194 817 201 874 l 144 817 q 185 981 156 928 q 268 1035 214 1035 q 324 1017 299 1035 q 371 977 349 1000 q 413 937 393 954 q 453 919 432 919 q 489 946 476 919 q 508 1028 501 972 l 558 1028 q 519 863 547 917 q 438 810 490 810 z "},"æ":{"ha":1121,"x_min":63,"x_max":1051,"o":"m 1044 165 q 951 27 1019 68 q 793 -14 883 -14 q 618 25 689 -14 q 507 132 547 64 q 390 21 457 56 q 253 -14 324 -14 q 110 40 157 -14 q 63 174 63 93 q 122 306 63 256 q 333 357 182 357 l 460 357 l 460 469 q 430 627 460 585 q 347 669 400 669 q 283 652 313 669 q 242 588 254 635 q 246 454 231 542 l 93 476 q 108 595 82 540 q 194 684 133 650 q 350 718 256 718 q 483 691 433 718 q 557 619 532 664 q 644 692 592 667 q 765 718 697 718 q 913 685 849 718 q 1015 592 978 653 q 1051 443 1051 531 q 1049 399 1051 422 q 1042 351 1047 375 l 631 351 l 631 311 q 672 99 631 164 q 807 35 714 35 q 908 70 867 35 q 956 190 950 106 l 1044 165 m 765 669 q 664 607 697 669 q 631 400 631 544 l 882 400 q 890 452 888 428 q 892 497 892 476 q 857 628 892 586 q 765 669 822 669 m 314 60 q 395 85 354 60 q 483 183 436 111 q 468 242 474 211 q 461 308 463 274 l 356 308 q 257 276 288 308 q 226 176 226 244 q 249 90 226 121 q 314 60 271 60 z "},"b":{"ha":801,"x_min":11,"x_max":724,"o":"m 11 989 l 11 1028 l 278 1028 l 278 601 q 362 689 315 660 q 469 718 408 718 q 655 626 586 718 q 724 367 724 533 l 724 339 q 644 82 724 178 q 425 -14 565 -14 q 250 50 318 -14 q 202 26 225 40 q 156 -7 179 11 l 118 -7 l 118 911 q 114 967 118 958 q 88 979 110 976 l 11 989 m 433 657 q 360 628 399 657 q 278 513 322 600 l 278 93 q 407 40 331 40 q 519 109 485 40 q 553 297 553 178 l 553 408 q 521 597 553 538 q 433 657 489 657 z "},"c":{"ha":699,"x_min":74,"x_max":649,"o":"m 376 669 q 277 606 310 669 q 244 394 244 543 l 244 311 q 282 99 244 164 q 404 35 319 35 q 506 70 467 35 q 551 190 546 106 l 640 165 q 549 27 615 68 q 394 -14 483 -14 q 154 83 235 -14 q 74 339 74 179 l 74 367 q 151 622 74 526 q 376 718 229 718 q 535 680 474 718 q 623 580 597 642 q 636 447 649 518 l 483 425 q 471 606 499 542 q 376 669 443 669 z "},"ć":{"ha":699,"x_min":74,"x_max":649,"o":"m 376 669 q 277 606 310 669 q 244 394 244 543 l 244 311 q 282 99 244 164 q 404 35 319 35 q 506 70 467 35 q 551 190 546 106 l 640 165 q 549 27 615 68 q 394 -14 483 -14 q 154 83 235 -14 q 74 339 74 179 l 74 367 q 151 622 74 526 q 376 718 229 718 q 535 680 474 718 q 623 580 597 642 q 636 447 649 518 l 483 425 q 471 606 499 542 q 376 669 443 669 m 376 804 l 343 833 q 393 922 371 878 q 429 1028 415 965 l 604 1028 q 506 913 557 964 q 376 804 454 861 z "},"č":{"ha":699,"x_min":74,"x_max":649,"o":"m 376 669 q 277 606 310 669 q 244 394 244 543 l 244 311 q 282 99 244 164 q 404 35 319 35 q 506 70 467 35 q 551 190 546 106 l 640 165 q 549 27 615 68 q 394 -14 483 -14 q 154 83 235 -14 q 74 339 74 179 l 74 367 q 151 622 74 526 q 376 718 229 718 q 535 680 474 718 q 623 580 597 642 q 636 447 649 518 l 483 425 q 471 606 499 542 q 376 669 443 669 m 568 1004 q 514 939 535 967 q 477 883 493 911 q 439 811 461 854 l 317 811 q 279 883 296 854 q 242 939 263 911 q 188 1004 221 967 l 207 1035 q 303 974 257 1006 q 383 911 349 942 q 549 1035 454 975 l 568 1004 z "},"ç":{"ha":699,"x_min":74,"x_max":649,"o":"m 553 -194 q 506 -279 553 -249 q 388 -310 460 -310 q 288 -285 331 -310 q 233 -201 244 -261 l 310 -182 q 333 -247 315 -228 q 376 -265 350 -265 q 423 -245 408 -265 q 438 -194 438 -225 q 422 -142 438 -162 q 365 -121 407 -121 q 352 -122 360 -121 q 338 -124 344 -122 l 319 -87 l 350 -12 q 142 96 211 1 q 74 339 74 190 l 74 367 q 151 622 74 526 q 376 718 229 718 q 535 680 474 718 q 623 580 597 642 q 636 447 649 518 l 483 425 q 471 606 499 542 q 376 669 443 669 q 277 606 310 669 q 244 394 244 543 l 244 311 q 282 99 244 164 q 404 35 319 35 q 506 70 467 35 q 551 190 546 106 l 640 165 q 553 30 617 71 q 406 -14 490 -11 l 379 -76 q 506 -109 458 -78 q 553 -194 553 -140 z "},"ĉ":{"ha":699,"x_min":74,"x_max":649,"o":"m 376 669 q 277 606 310 669 q 244 394 244 543 l 244 311 q 282 99 244 164 q 404 35 319 35 q 506 70 467 35 q 551 190 546 106 l 640 165 q 549 27 615 68 q 394 -14 483 -14 q 154 83 235 -14 q 74 339 74 179 l 74 367 q 151 622 74 526 q 376 718 229 718 q 535 680 474 718 q 623 580 597 642 q 636 447 649 518 l 483 425 q 471 606 499 542 q 376 669 443 669 m 568 835 l 549 804 q 453 865 499 833 q 372 928 407 897 q 207 804 301 864 l 188 835 q 242 901 221 874 q 279 956 263 928 q 317 1028 296 985 l 439 1028 q 477 956 461 985 q 514 901 493 928 q 568 835 535 874 z "},"ċ":{"ha":699,"x_min":74,"x_max":649,"o":"m 376 669 q 277 606 310 669 q 244 394 244 543 l 244 311 q 282 99 244 164 q 404 35 319 35 q 506 70 467 35 q 551 190 546 106 l 640 165 q 549 27 615 68 q 394 -14 483 -14 q 154 83 235 -14 q 74 339 74 179 l 74 367 q 151 622 74 526 q 376 718 229 718 q 535 680 474 718 q 623 580 597 642 q 636 447 649 518 l 483 425 q 471 606 499 542 q 376 669 443 669 m 376 824 q 307 851 333 824 q 281 921 281 878 q 307 990 281 964 q 376 1017 333 1017 q 446 990 418 1017 q 474 921 474 964 q 446 851 474 878 q 376 824 418 824 z "},"d":{"ha":813,"x_min":78,"x_max":790,"o":"m 790 39 l 790 0 l 532 0 l 532 115 q 445 19 493 51 q 332 -14 397 -14 q 147 78 215 -14 q 78 338 78 171 l 78 365 q 158 622 78 526 q 376 718 238 718 q 524 676 460 718 l 524 911 q 519 967 524 958 q 493 979 515 976 l 417 989 l 417 1028 l 683 1028 l 683 117 q 688 60 683 69 q 714 49 692 51 l 790 39 m 249 296 q 281 107 249 167 q 368 47 313 47 q 441 76 403 47 q 524 192 479 104 l 524 611 q 394 664 471 664 q 283 595 318 664 q 249 407 249 526 l 249 296 z "},"ð":{"ha":779,"x_min":68,"x_max":704,"o":"m 704 350 q 621 81 704 175 q 385 -14 538 -14 q 151 71 233 -14 q 68 297 68 156 l 68 325 q 106 489 68 419 q 213 597 144 558 q 369 635 281 635 q 449 624 411 635 q 518 593 486 613 q 476 726 504 663 q 399 846 447 790 l 247 735 l 217 776 l 363 883 q 208 999 299 947 l 226 1042 q 328 987 281 1017 q 418 925 376 957 l 578 1042 l 608 1000 l 460 890 q 642 658 581 785 q 704 406 704 531 l 704 350 m 239 269 q 277 89 239 143 q 385 35 315 35 q 467 61 433 35 q 517 151 500 88 q 533 322 533 214 l 533 433 q 529 526 533 481 q 452 574 490 563 q 382 586 414 586 q 276 533 314 586 q 239 353 239 479 l 239 269 z "},"ď":{"ha":947,"x_min":78,"x_max":921,"o":"m 790 39 l 790 0 l 532 0 l 532 115 q 445 19 493 51 q 332 -14 397 -14 q 147 78 215 -14 q 78 338 78 171 l 78 365 q 158 622 78 526 q 376 718 238 718 q 524 676 460 718 l 524 911 q 519 967 524 958 q 493 979 515 976 l 417 989 l 417 1028 l 683 1028 l 683 117 q 688 60 683 69 q 714 49 692 51 l 790 39 m 249 296 q 281 107 249 167 q 368 47 313 47 q 441 76 403 47 q 524 192 479 104 l 524 611 q 394 664 471 664 q 283 595 318 664 q 249 407 249 526 l 249 296 m 803 731 l 769 731 l 769 1028 l 921 1028 q 869 881 896 950 q 803 731 842 811 z "},"đ":{"ha":813,"x_min":78,"x_max":790,"o":"m 790 39 l 790 0 l 532 0 l 532 115 q 445 19 493 51 q 332 -14 397 -14 q 147 78 215 -14 q 78 338 78 171 l 78 365 q 158 622 78 526 q 376 718 238 718 q 524 676 460 718 l 524 819 l 322 819 l 322 868 l 524 868 l 524 911 q 519 967 524 958 q 493 979 515 976 l 417 989 l 417 1028 l 683 1028 l 683 868 l 790 868 l 790 819 l 683 819 l 683 117 q 688 60 683 69 q 714 49 692 51 l 790 39 m 249 296 q 281 107 249 167 q 368 47 313 47 q 441 76 403 47 q 524 192 479 104 l 524 611 q 394 664 471 664 q 283 595 318 664 q 249 407 249 526 l 249 296 z "},"e":{"ha":735,"x_min":74,"x_max":665,"o":"m 658 165 q 565 27 633 68 q 407 -14 497 -14 q 157 83 240 -14 q 74 339 74 179 l 74 367 q 152 622 74 526 q 379 718 231 718 q 527 685 463 718 q 628 592 592 653 q 665 443 665 531 q 663 399 665 422 q 656 351 661 375 l 244 351 l 244 311 q 286 99 244 164 q 421 35 328 35 q 522 70 481 35 q 569 190 564 106 l 658 165 m 379 669 q 278 607 311 669 q 244 400 244 544 l 496 400 q 503 452 501 428 q 506 497 506 476 q 471 628 506 586 q 379 669 436 669 z "},"é":{"ha":735,"x_min":74,"x_max":665,"o":"m 658 165 q 565 27 633 68 q 407 -14 497 -14 q 157 83 240 -14 q 74 339 74 179 l 74 367 q 152 622 74 526 q 379 718 231 718 q 527 685 463 718 q 628 592 592 653 q 665 443 665 531 q 663 399 665 422 q 656 351 661 375 l 244 351 l 244 311 q 286 99 244 164 q 421 35 328 35 q 522 70 481 35 q 569 190 564 106 l 658 165 m 379 669 q 278 607 311 669 q 244 400 244 544 l 496 400 q 503 452 501 428 q 506 497 506 476 q 471 628 506 586 q 379 669 436 669 m 378 804 l 344 833 q 394 922 372 878 q 431 1028 417 965 l 606 1028 q 507 913 558 964 q 378 804 456 861 z "},"ĕ":{"ha":735,"x_min":74,"x_max":665,"o":"m 658 165 q 565 27 633 68 q 407 -14 497 -14 q 157 83 240 -14 q 74 339 74 179 l 74 367 q 152 622 74 526 q 379 718 231 718 q 527 685 463 718 q 628 592 592 653 q 665 443 665 531 q 663 399 665 422 q 656 351 661 375 l 244 351 l 244 311 q 286 99 244 164 q 421 35 328 35 q 522 70 481 35 q 569 190 564 106 l 658 165 m 379 669 q 278 607 311 669 q 244 400 244 544 l 496 400 q 503 452 501 428 q 506 497 506 476 q 471 628 506 586 q 379 669 436 669 m 379 918 q 483 945 444 918 q 536 1035 522 972 l 582 1021 q 513 861 563 918 q 379 804 463 804 q 246 861 296 804 q 176 1021 196 918 l 222 1035 q 276 945 238 972 q 379 918 315 918 z "},"ě":{"ha":735,"x_min":74,"x_max":665,"o":"m 658 165 q 565 27 633 68 q 407 -14 497 -14 q 157 83 240 -14 q 74 339 74 179 l 74 367 q 152 622 74 526 q 379 718 231 718 q 527 685 463 718 q 628 592 592 653 q 665 443 665 531 q 663 399 665 422 q 656 351 661 375 l 244 351 l 244 311 q 286 99 244 164 q 421 35 328 35 q 522 70 481 35 q 569 190 564 106 l 658 165 m 379 669 q 278 607 311 669 q 244 400 244 544 l 496 400 q 503 452 501 428 q 506 497 506 476 q 471 628 506 586 q 379 669 436 669 m 569 1004 q 515 939 536 967 q 478 883 494 911 q 440 811 463 854 l 318 811 q 281 883 297 854 q 243 939 264 911 q 189 1004 222 967 l 208 1035 q 304 974 258 1006 q 385 911 350 942 q 550 1035 456 975 l 569 1004 z "},"ê":{"ha":735,"x_min":74,"x_max":665,"o":"m 658 165 q 565 27 633 68 q 407 -14 497 -14 q 157 83 240 -14 q 74 339 74 179 l 74 367 q 152 622 74 526 q 379 718 231 718 q 527 685 463 718 q 628 592 592 653 q 665 443 665 531 q 663 399 665 422 q 656 351 661 375 l 244 351 l 244 311 q 286 99 244 164 q 421 35 328 35 q 522 70 481 35 q 569 190 564 106 l 658 165 m 379 669 q 278 607 311 669 q 244 400 244 544 l 496 400 q 503 452 501 428 q 506 497 506 476 q 471 628 506 586 q 379 669 436 669 m 569 835 l 550 804 q 454 865 500 833 q 374 928 408 897 q 208 804 303 864 l 189 835 q 243 901 222 874 q 281 956 264 928 q 318 1028 297 985 l 440 1028 q 478 956 463 985 q 515 901 494 928 q 569 835 536 874 z "},"ë":{"ha":735,"x_min":74,"x_max":665,"o":"m 658 165 q 565 27 633 68 q 407 -14 497 -14 q 157 83 240 -14 q 74 339 74 179 l 74 367 q 152 622 74 526 q 379 718 231 718 q 527 685 463 718 q 628 592 592 653 q 665 443 665 531 q 663 399 665 422 q 656 351 661 375 l 244 351 l 244 311 q 286 99 244 164 q 421 35 328 35 q 522 70 481 35 q 569 190 564 106 l 658 165 m 379 669 q 278 607 311 669 q 244 400 244 544 l 496 400 q 503 452 501 428 q 506 497 506 476 q 471 628 506 586 q 379 669 436 669 m 232 833 q 169 858 193 833 q 146 921 146 882 q 169 983 146 960 q 232 1007 193 1007 q 294 983 269 1007 q 319 921 319 960 q 294 858 319 882 q 232 833 269 833 m 524 833 q 461 858 485 833 q 438 921 438 882 q 461 983 438 960 q 524 1007 485 1007 q 586 983 561 1007 q 611 921 611 960 q 586 858 611 882 q 524 833 561 833 z "},"ė":{"ha":735,"x_min":74,"x_max":665,"o":"m 658 165 q 565 27 633 68 q 407 -14 497 -14 q 157 83 240 -14 q 74 339 74 179 l 74 367 q 152 622 74 526 q 379 718 231 718 q 527 685 463 718 q 628 592 592 653 q 665 443 665 531 q 663 399 665 422 q 656 351 661 375 l 244 351 l 244 311 q 286 99 244 164 q 421 35 328 35 q 522 70 481 35 q 569 190 564 106 l 658 165 m 379 669 q 278 607 311 669 q 244 400 244 544 l 496 400 q 503 452 501 428 q 506 497 506 476 q 471 628 506 586 q 379 669 436 669 m 378 824 q 308 851 335 824 q 282 921 282 878 q 308 990 282 964 q 378 1017 335 1017 q 447 990 419 1017 q 475 921 475 964 q 447 851 475 878 q 378 824 419 824 z "},"è":{"ha":735,"x_min":74,"x_max":665,"o":"m 658 165 q 565 27 633 68 q 407 -14 497 -14 q 157 83 240 -14 q 74 339 74 179 l 74 367 q 152 622 74 526 q 379 718 231 718 q 527 685 463 718 q 628 592 592 653 q 665 443 665 531 q 663 399 665 422 q 656 351 661 375 l 244 351 l 244 311 q 286 99 244 164 q 421 35 328 35 q 522 70 481 35 q 569 190 564 106 l 658 165 m 379 669 q 278 607 311 669 q 244 400 244 544 l 496 400 q 503 452 501 428 q 506 497 506 476 q 471 628 506 586 q 379 669 436 669 m 381 804 q 252 913 304 861 q 153 1028 200 964 l 328 1028 q 365 922 343 965 q 414 833 386 878 l 381 804 z "},"ē":{"ha":735,"x_min":74,"x_max":665,"o":"m 658 165 q 565 27 633 68 q 407 -14 497 -14 q 157 83 240 -14 q 74 339 74 179 l 74 367 q 152 622 74 526 q 379 718 231 718 q 527 685 463 718 q 628 592 592 653 q 665 443 665 531 q 663 399 665 422 q 656 351 661 375 l 244 351 l 244 311 q 286 99 244 164 q 421 35 328 35 q 522 70 481 35 q 569 190 564 106 l 658 165 m 379 669 q 278 607 311 669 q 244 400 244 544 l 496 400 q 503 452 501 428 q 506 497 506 476 q 471 628 506 586 q 379 669 436 669 m 578 936 l 578 860 l 179 860 l 179 936 l 578 936 z "},"ę":{"ha":735,"x_min":74,"x_max":665,"o":"m 658 -174 q 588 -279 638 -249 q 479 -310 539 -310 q 363 -275 410 -310 q 315 -179 315 -240 q 358 -81 315 -118 q 457 -11 401 -43 q 432 -13 444 -12 q 407 -14 419 -14 q 157 83 240 -14 q 74 339 74 179 l 74 367 q 152 622 74 526 q 379 718 231 718 q 527 685 463 718 q 628 592 592 653 q 665 443 665 531 q 663 399 665 422 q 656 351 661 375 l 244 351 l 244 311 q 286 99 244 164 q 421 35 328 35 q 522 70 481 35 q 569 190 564 106 l 658 165 q 626 90 646 119 q 593 47 607 61 q 508 -29 544 0 q 451 -89 471 -58 q 431 -174 431 -119 q 492 -262 431 -262 q 540 -240 519 -262 q 569 -156 561 -217 l 658 -174 m 379 669 q 278 607 311 669 q 244 400 244 544 l 496 400 q 503 452 501 428 q 506 497 506 476 q 471 628 506 586 q 379 669 436 669 z "},"f":{"ha":504,"x_min":32,"x_max":631,"o":"m 433 39 l 433 0 l 32 0 l 32 39 l 108 49 q 135 60 131 51 q 139 117 139 69 l 139 588 q 135 644 139 635 q 108 656 131 653 l 32 665 l 32 704 l 139 704 l 139 779 q 162 906 139 846 q 240 1004 185 967 q 388 1042 294 1042 q 527 1013 472 1042 q 606 935 582 983 q 621 829 631 886 l 468 807 q 460 952 482 911 q 388 993 439 993 q 340 978 360 993 q 309 923 319 963 q 299 807 299 883 l 299 704 l 507 704 l 507 656 l 299 656 l 299 117 q 303 60 299 69 q 329 49 307 51 l 433 39 z "},"g":{"ha":739,"x_min":58,"x_max":718,"o":"m 710 -72 q 624 -248 710 -186 q 390 -310 539 -310 q 146 -256 226 -310 q 58 -124 65 -203 l 207 -100 q 242 -217 201 -174 q 390 -261 283 -261 q 552 -224 490 -261 q 614 -115 614 -186 q 577 -40 614 -65 q 456 -14 540 -14 l 297 -14 q 181 7 224 -14 q 122 59 139 28 q 106 124 106 90 q 128 203 106 164 q 204 282 150 243 q 107 360 144 308 q 69 488 69 411 q 106 616 69 565 q 203 692 142 667 q 339 718 264 718 l 363 718 q 501 692 443 718 l 701 790 l 718 654 l 560 654 q 612 584 593 625 q 631 488 631 543 q 594 361 631 413 q 498 283 558 310 q 363 257 438 257 l 339 257 q 257 265 297 257 q 209 220 222 242 q 196 179 196 199 q 216 146 196 157 q 282 135 236 135 l 463 135 q 646 81 582 135 q 710 -72 710 28 m 363 306 q 439 344 407 306 q 471 488 471 383 q 439 631 471 592 q 363 669 407 669 l 339 669 q 262 631 294 669 q 229 488 229 592 q 262 344 229 383 q 339 306 294 306 l 363 306 z "},"ğ":{"ha":739,"x_min":58,"x_max":718,"o":"m 710 -72 q 624 -248 710 -186 q 390 -310 539 -310 q 146 -256 226 -310 q 58 -124 65 -203 l 207 -100 q 242 -217 201 -174 q 390 -261 283 -261 q 552 -224 490 -261 q 614 -115 614 -186 q 577 -40 614 -65 q 456 -14 540 -14 l 297 -14 q 181 7 224 -14 q 122 59 139 28 q 106 124 106 90 q 128 203 106 164 q 204 282 150 243 q 107 360 144 308 q 69 488 69 411 q 106 616 69 565 q 203 692 142 667 q 339 718 264 718 l 363 718 q 501 692 443 718 l 701 790 l 718 654 l 560 654 q 612 584 593 625 q 631 488 631 543 q 594 361 631 413 q 498 283 558 310 q 363 257 438 257 l 339 257 q 257 265 297 257 q 209 220 222 242 q 196 179 196 199 q 216 146 196 157 q 282 135 236 135 l 463 135 q 646 81 582 135 q 710 -72 710 28 m 363 306 q 439 344 407 306 q 471 488 471 383 q 439 631 471 592 q 363 669 407 669 l 339 669 q 262 631 294 669 q 229 488 229 592 q 262 344 229 383 q 339 306 294 306 l 363 306 m 351 918 q 456 945 417 918 q 508 1035 494 972 l 554 1021 q 485 861 535 918 q 351 804 435 804 q 218 861 268 804 q 149 1021 168 918 l 194 1035 q 249 945 210 972 q 351 918 288 918 z "},"ĝ":{"ha":739,"x_min":58,"x_max":718,"o":"m 710 -72 q 624 -248 710 -186 q 390 -310 539 -310 q 146 -256 226 -310 q 58 -124 65 -203 l 207 -100 q 242 -217 201 -174 q 390 -261 283 -261 q 552 -224 490 -261 q 614 -115 614 -186 q 577 -40 614 -65 q 456 -14 540 -14 l 297 -14 q 181 7 224 -14 q 122 59 139 28 q 106 124 106 90 q 128 203 106 164 q 204 282 150 243 q 107 360 144 308 q 69 488 69 411 q 106 616 69 565 q 203 692 142 667 q 339 718 264 718 l 363 718 q 501 692 443 718 l 701 790 l 718 654 l 560 654 q 612 584 593 625 q 631 488 631 543 q 594 361 631 413 q 498 283 558 310 q 363 257 438 257 l 339 257 q 257 265 297 257 q 209 220 222 242 q 196 179 196 199 q 216 146 196 157 q 282 135 236 135 l 463 135 q 646 81 582 135 q 710 -72 710 28 m 363 306 q 439 344 407 306 q 471 488 471 383 q 439 631 471 592 q 363 669 407 669 l 339 669 q 262 631 294 669 q 229 488 229 592 q 262 344 229 383 q 339 306 294 306 l 363 306 m 542 835 l 522 804 q 426 865 472 833 q 346 928 381 897 q 181 804 275 864 l 161 835 q 215 901 194 874 q 253 956 236 928 q 290 1028 269 985 l 413 1028 q 451 956 435 985 q 488 901 467 928 q 542 835 508 874 z "},"ģ":{"ha":739,"x_min":58,"x_max":718,"o":"m 710 -72 q 624 -248 710 -186 q 390 -310 539 -310 q 146 -256 226 -310 q 58 -124 65 -203 l 207 -100 q 242 -217 201 -174 q 390 -261 283 -261 q 552 -224 490 -261 q 614 -115 614 -186 q 577 -40 614 -65 q 456 -14 540 -14 l 297 -14 q 181 7 224 -14 q 122 59 139 28 q 106 124 106 90 q 128 203 106 164 q 204 282 150 243 q 107 360 144 308 q 69 488 69 411 q 106 616 69 565 q 203 692 142 667 q 339 718 264 718 l 363 718 q 501 692 443 718 l 701 790 l 718 654 l 560 654 q 612 584 593 625 q 631 488 631 543 q 594 361 631 413 q 498 283 558 310 q 363 257 438 257 l 339 257 q 257 265 297 257 q 209 220 222 242 q 196 179 196 199 q 216 146 196 157 q 282 135 236 135 l 463 135 q 646 81 582 135 q 710 -72 710 28 m 363 306 q 439 344 407 306 q 471 488 471 383 q 439 631 471 592 q 363 669 407 669 l 339 669 q 262 631 294 669 q 229 488 229 592 q 262 344 229 383 q 339 306 294 306 l 363 306 m 460 1049 l 486 1024 q 449 928 464 978 q 426 811 435 879 l 269 811 q 349 934 301 875 q 460 1049 396 993 z "},"ġ":{"ha":739,"x_min":58,"x_max":718,"o":"m 710 -72 q 624 -248 710 -186 q 390 -310 539 -310 q 146 -256 226 -310 q 58 -124 65 -203 l 207 -100 q 242 -217 201 -174 q 390 -261 283 -261 q 552 -224 490 -261 q 614 -115 614 -186 q 577 -40 614 -65 q 456 -14 540 -14 l 297 -14 q 181 7 224 -14 q 122 59 139 28 q 106 124 106 90 q 128 203 106 164 q 204 282 150 243 q 107 360 144 308 q 69 488 69 411 q 106 616 69 565 q 203 692 142 667 q 339 718 264 718 l 363 718 q 501 692 443 718 l 701 790 l 718 654 l 560 654 q 612 584 593 625 q 631 488 631 543 q 594 361 631 413 q 498 283 558 310 q 363 257 438 257 l 339 257 q 257 265 297 257 q 209 220 222 242 q 196 179 196 199 q 216 146 196 157 q 282 135 236 135 l 463 135 q 646 81 582 135 q 710 -72 710 28 m 363 306 q 439 344 407 306 q 471 488 471 383 q 439 631 471 592 q 363 669 407 669 l 339 669 q 262 631 294 669 q 229 488 229 592 q 262 344 229 383 q 339 306 294 306 l 363 306 m 351 824 q 282 851 308 824 q 256 921 256 878 q 282 990 256 964 q 351 1017 308 1017 q 421 990 393 1017 q 449 921 449 964 q 421 851 449 878 q 351 824 393 824 z "},"h":{"ha":856,"x_min":22,"x_max":840,"o":"m 840 39 l 840 0 l 467 0 l 467 39 l 543 49 q 569 60 565 51 q 574 117 574 69 l 574 467 q 545 606 574 563 q 461 650 517 650 q 406 638 438 650 q 344 596 375 626 q 289 506 313 565 l 289 117 q 293 60 289 69 q 319 49 297 51 l 396 39 l 396 0 l 22 0 l 22 39 l 99 49 q 125 60 121 51 q 129 117 129 69 l 129 911 q 125 967 129 958 q 99 979 121 976 l 22 989 l 22 1028 l 289 1028 l 289 596 q 390 689 329 660 q 511 718 450 718 q 674 653 614 718 q 733 468 733 588 l 733 117 q 738 60 733 69 q 764 49 742 51 l 840 39 z "},"ħ":{"ha":856,"x_min":22,"x_max":840,"o":"m 396 39 l 396 0 l 22 0 l 22 39 l 99 49 q 125 60 121 51 q 129 117 129 69 l 129 819 l 22 819 l 22 868 l 129 868 l 129 911 q 125 967 129 958 q 99 979 121 976 l 22 989 l 22 1028 l 289 1028 l 289 868 l 490 868 l 490 819 l 289 819 l 289 596 q 390 689 329 660 q 511 718 450 718 q 674 653 614 718 q 733 468 733 588 l 733 117 q 738 60 733 69 q 764 49 742 51 l 840 39 l 840 0 l 467 0 l 467 39 l 543 49 q 569 60 565 51 q 574 117 574 69 l 574 467 q 545 606 574 563 q 461 650 517 650 q 406 638 438 650 q 344 596 375 626 q 289 506 313 565 l 289 117 q 293 60 289 69 q 319 49 297 51 l 396 39 z "},"ĥ":{"ha":856,"x_min":22,"x_max":840,"o":"m 840 39 l 840 0 l 467 0 l 467 39 l 543 49 q 569 60 565 51 q 574 117 574 69 l 574 467 q 545 606 574 563 q 461 650 517 650 q 406 638 438 650 q 344 596 375 626 q 289 506 313 565 l 289 117 q 293 60 289 69 q 319 49 297 51 l 396 39 l 396 0 l 22 0 l 22 39 l 99 49 q 125 60 121 51 q 129 117 129 69 l 129 911 q 125 967 129 958 q 99 979 121 976 l 22 989 l 22 1028 l 289 1028 l 289 596 q 390 689 329 660 q 511 718 450 718 q 674 653 614 718 q 733 468 733 588 l 733 117 q 738 60 733 69 q 764 49 742 51 l 840 39 m 558 1143 l 539 1113 q 443 1174 489 1142 q 363 1236 397 1206 q 197 1113 292 1172 l 178 1143 q 232 1209 211 1182 q 269 1265 253 1236 q 307 1336 286 1293 l 429 1336 q 467 1265 451 1293 q 504 1209 483 1236 q 558 1143 525 1182 z "},"i":{"ha":428,"x_min":32,"x_max":406,"o":"m 218 824 q 149 851 175 824 q 122 921 122 878 q 149 990 122 964 q 218 1017 175 1017 q 288 990 260 1017 q 315 921 315 964 q 288 851 315 878 q 218 824 260 824 m 32 665 l 32 704 l 299 704 l 299 117 q 303 60 299 69 q 329 49 307 51 l 406 39 l 406 0 l 32 0 l 32 39 l 108 49 q 135 60 131 51 q 139 117 139 69 l 139 588 q 135 644 139 635 q 108 656 131 653 l 32 665 z "},"ı":{"ha":428,"x_min":32,"x_max":406,"o":"m 32 665 l 32 704 l 299 704 l 299 117 q 303 60 299 69 q 329 49 307 51 l 406 39 l 406 0 l 32 0 l 32 39 l 108 49 q 135 60 131 51 q 139 117 139 69 l 139 588 q 135 644 139 635 q 108 656 131 653 l 32 665 z "},"í":{"ha":428,"x_min":32,"x_max":436,"o":"m 32 665 l 32 704 l 299 704 l 299 117 q 303 60 299 69 q 329 49 307 51 l 406 39 l 406 0 l 32 0 l 32 39 l 108 49 q 135 60 131 51 q 139 117 139 69 l 139 588 q 135 644 139 635 q 108 656 131 653 l 32 665 m 208 804 l 175 833 q 225 922 203 878 q 261 1028 247 965 l 436 1028 q 338 913 389 964 q 208 804 286 861 z "},"ĭ":{"ha":428,"x_min":7,"x_max":413,"o":"m 32 665 l 32 704 l 299 704 l 299 117 q 303 60 299 69 q 329 49 307 51 l 406 39 l 406 0 l 32 0 l 32 39 l 108 49 q 135 60 131 51 q 139 117 139 69 l 139 588 q 135 644 139 635 q 108 656 131 653 l 32 665 m 210 918 q 314 945 275 918 q 367 1035 353 972 l 413 1021 q 343 861 393 918 q 210 804 293 804 q 76 861 126 804 q 7 1021 26 918 l 53 1035 q 107 945 68 972 q 210 918 146 918 z "},"î":{"ha":428,"x_min":19,"x_max":406,"o":"m 32 665 l 32 704 l 299 704 l 299 117 q 303 60 299 69 q 329 49 307 51 l 406 39 l 406 0 l 32 0 l 32 39 l 108 49 q 135 60 131 51 q 139 117 139 69 l 139 588 q 135 644 139 635 q 108 656 131 653 l 32 665 m 400 835 l 381 804 q 285 865 331 833 q 204 928 239 897 q 39 804 133 864 l 19 835 q 74 901 53 874 q 111 956 94 928 q 149 1028 128 985 l 271 1028 q 309 956 293 985 q 346 901 325 928 q 400 835 367 874 z "},"ï":{"ha":428,"x_min":-22,"x_max":443,"o":"m 32 665 l 32 704 l 299 704 l 299 117 q 303 60 299 69 q 329 49 307 51 l 406 39 l 406 0 l 32 0 l 32 39 l 108 49 q 135 60 131 51 q 139 117 139 69 l 139 588 q 135 644 139 635 q 108 656 131 653 l 32 665 m 64 833 q 1 858 25 833 q -22 921 -22 882 q 1 983 -22 960 q 64 1007 25 1007 q 126 983 101 1007 q 151 921 151 960 q 126 858 151 882 q 64 833 101 833 m 356 833 q 293 858 317 833 q 269 921 269 882 q 293 983 269 960 q 356 1007 317 1007 q 418 983 393 1007 q 443 921 443 960 q 418 858 443 882 q 356 833 393 833 z "},"ì":{"ha":428,"x_min":-17,"x_max":406,"o":"m 32 665 l 32 704 l 299 704 l 299 117 q 303 60 299 69 q 329 49 307 51 l 406 39 l 406 0 l 32 0 l 32 39 l 108 49 q 135 60 131 51 q 139 117 139 69 l 139 588 q 135 644 139 635 q 108 656 131 653 l 32 665 m 211 804 q 83 913 135 861 q -17 1028 31 964 l 158 1028 q 195 922 174 965 q 244 833 217 878 l 211 804 z "},"ĳ":{"ha":835,"x_min":32,"x_max":733,"o":"m 218 824 q 149 851 175 824 q 122 921 122 878 q 149 990 122 964 q 218 1017 175 1017 q 288 990 260 1017 q 315 921 315 964 q 288 851 315 878 q 218 824 260 824 m 32 665 l 32 704 l 299 704 l 299 117 q 303 60 299 69 q 329 49 307 51 l 406 39 l 406 0 l 32 0 l 32 39 l 108 49 q 135 60 131 51 q 139 117 139 69 l 139 588 q 135 644 139 635 q 108 656 131 653 l 32 665 m 636 824 q 567 851 593 824 q 540 921 540 878 q 567 990 540 964 q 636 1017 593 1017 q 706 990 678 1017 q 733 921 733 964 q 706 851 733 878 q 636 824 678 824 m 450 665 l 450 704 l 717 704 l 717 -47 q 693 -176 717 -117 q 617 -273 669 -236 q 476 -310 564 -310 q 346 -271 400 -310 q 279 -139 292 -232 l 365 -112 q 399 -231 372 -201 q 460 -261 425 -261 q 531 -221 506 -261 q 557 -75 557 -181 l 557 588 q 553 644 557 635 q 526 656 549 653 l 450 665 z "},"ī":{"ha":428,"x_min":11,"x_max":410,"o":"m 32 665 l 32 704 l 299 704 l 299 117 q 303 60 299 69 q 329 49 307 51 l 406 39 l 406 0 l 32 0 l 32 39 l 108 49 q 135 60 131 51 q 139 117 139 69 l 139 588 q 135 644 139 635 q 108 656 131 653 l 32 665 m 410 936 l 410 860 l 11 860 l 11 936 l 410 936 z "},"į":{"ha":428,"x_min":11,"x_max":406,"o":"m 218 824 q 149 851 175 824 q 122 921 122 878 q 149 990 122 964 q 218 1017 175 1017 q 288 990 260 1017 q 315 921 315 964 q 288 851 315 878 q 218 824 260 824 m 32 665 l 32 704 l 299 704 l 299 117 q 303 60 299 69 q 329 49 307 51 l 406 39 l 406 0 l 322 0 q 177 -53 228 0 q 126 -179 126 -106 q 141 -240 126 -218 q 186 -262 156 -262 q 235 -240 214 -262 q 265 -156 257 -217 l 354 -174 q 284 -279 333 -249 q 175 -310 235 -310 q 58 -275 106 -310 q 11 -181 11 -240 q 48 -83 11 -128 q 139 -8 85 -39 l 139 588 q 135 644 139 635 q 108 656 131 653 l 32 665 z "},"ĩ":{"ha":428,"x_min":3,"x_max":417,"o":"m 32 665 l 32 704 l 299 704 l 299 117 q 303 60 299 69 q 329 49 307 51 l 406 39 l 406 0 l 32 0 l 32 39 l 108 49 q 135 60 131 51 q 139 117 139 69 l 139 588 q 135 644 139 635 q 108 656 131 653 l 32 665 m 296 810 q 240 827 265 810 q 192 867 214 844 q 149 908 169 890 q 110 925 129 925 q 73 899 86 925 q 53 817 60 874 l 3 817 q 43 981 14 928 q 126 1035 72 1035 q 182 1017 157 1035 q 229 977 207 1000 q 271 937 251 954 q 311 919 290 919 q 347 946 335 919 q 367 1028 360 972 l 417 1028 q 377 863 406 917 q 296 810 349 810 z "},"j":{"ha":407,"x_min":-149,"x_max":306,"o":"m 208 824 q 139 851 165 824 q 113 921 113 878 q 139 990 113 964 q 208 1017 165 1017 q 278 990 250 1017 q 306 921 306 964 q 278 851 306 878 q 208 824 250 824 m 22 665 l 22 704 l 289 704 l 289 -47 q 265 -176 289 -117 q 189 -273 242 -236 q 49 -310 136 -310 q -82 -271 -28 -310 q -149 -139 -136 -232 l -62 -112 q -29 -231 -56 -201 q 32 -261 -3 -261 q 103 -221 78 -261 q 129 -75 129 -181 l 129 588 q 125 644 129 635 q 99 656 121 653 l 22 665 z "},"ȷ":{"ha":410,"x_min":-149,"x_max":292,"o":"m 25 665 l 25 704 l 292 704 l 292 -47 q 269 -176 292 -117 q 194 -273 247 -236 q 51 -310 142 -310 q -81 -272 -25 -310 q -149 -140 -136 -233 l -60 -112 q -25 -231 -51 -201 q 32 -261 1 -261 q 107 -221 82 -261 q 132 -75 132 -181 l 132 588 q 128 644 132 635 q 101 656 124 653 l 25 665 z "},"ĵ":{"ha":410,"x_min":-149,"x_max":383,"o":"m 25 665 l 25 704 l 292 704 l 292 -47 q 269 -176 292 -117 q 194 -273 247 -236 q 51 -310 142 -310 q -81 -272 -25 -310 q -149 -140 -136 -233 l -60 -112 q -25 -231 -51 -201 q 32 -261 1 -261 q 107 -221 82 -261 q 132 -75 132 -181 l 132 588 q 128 644 132 635 q 101 656 124 653 l 25 665 m 383 835 l 364 804 q 268 865 314 833 q 188 928 222 897 q 22 804 117 864 l 3 835 q 57 901 36 874 q 94 956 78 928 q 132 1028 111 985 l 254 1028 q 292 956 276 985 q 329 901 308 928 q 383 835 350 874 z "},"k":{"ha":817,"x_min":22,"x_max":815,"o":"m 22 989 l 22 1028 l 289 1028 l 289 354 l 533 588 q 585 643 582 633 q 565 656 589 653 l 489 665 l 489 704 l 774 704 l 774 665 l 697 656 q 676 650 685 654 q 653 633 668 646 q 604 588 638 619 l 471 460 l 668 117 q 697 72 688 85 q 716 55 707 58 q 739 49 725 51 l 815 39 l 815 0 l 550 0 l 357 351 l 289 286 l 289 117 q 293 60 289 69 q 319 49 297 51 l 396 39 l 396 0 l 22 0 l 22 39 l 99 49 q 125 60 121 51 q 129 117 129 69 l 129 911 q 125 967 129 958 q 99 979 121 976 l 22 989 z "},"ķ":{"ha":817,"x_min":22,"x_max":815,"o":"m 22 989 l 22 1028 l 289 1028 l 289 354 l 533 588 q 585 643 582 633 q 565 656 589 653 l 489 665 l 489 704 l 774 704 l 774 665 l 697 656 q 676 650 685 654 q 653 633 668 646 q 604 588 638 619 l 471 460 l 668 117 q 697 72 688 85 q 716 55 707 58 q 739 49 725 51 l 815 39 l 815 0 l 550 0 l 357 351 l 289 286 l 289 117 q 293 60 289 69 q 319 49 297 51 l 396 39 l 396 0 l 22 0 l 22 39 l 99 49 q 125 60 121 51 q 129 117 129 69 l 129 911 q 125 967 129 958 q 99 979 121 976 l 22 989 m 304 -344 l 278 -319 q 315 -224 300 -274 q 338 -107 329 -175 l 494 -107 q 416 -230 463 -171 q 304 -344 369 -289 z "},"ĸ":{"ha":826,"x_min":32,"x_max":825,"o":"m 32 665 l 32 704 l 299 704 l 299 354 l 543 588 q 595 643 592 633 q 575 656 599 653 l 499 665 l 499 704 l 783 704 l 783 665 l 707 656 q 686 650 694 654 q 663 633 678 646 q 614 588 647 619 l 481 460 l 678 117 q 707 72 697 85 q 726 55 717 58 q 749 49 735 51 l 825 39 l 825 0 l 560 0 l 367 351 l 299 286 l 299 117 q 303 60 299 69 q 329 49 307 51 l 406 39 l 406 0 l 32 0 l 32 39 l 108 49 q 135 60 131 51 q 139 117 139 69 l 139 588 q 135 644 139 635 q 108 656 131 653 l 32 665 z "},"l":{"ha":418,"x_min":22,"x_max":396,"o":"m 22 989 l 22 1028 l 289 1028 l 289 117 q 293 60 289 69 q 319 49 297 51 l 396 39 l 396 0 l 22 0 l 22 39 l 99 49 q 125 60 121 51 q 129 117 129 69 l 129 911 q 125 967 129 958 q 99 979 121 976 l 22 989 z "},"ĺ":{"ha":418,"x_min":22,"x_max":435,"o":"m 22 989 l 22 1028 l 289 1028 l 289 117 q 293 60 289 69 q 319 49 297 51 l 396 39 l 396 0 l 22 0 l 22 39 l 99 49 q 125 60 121 51 q 129 117 129 69 l 129 911 q 125 967 129 958 q 99 979 121 976 l 22 989 m 207 1113 l 174 1142 q 224 1230 201 1186 q 260 1336 246 1274 l 435 1336 q 336 1221 388 1272 q 207 1113 285 1169 z "},"ľ":{"ha":553,"x_min":22,"x_max":526,"o":"m 22 989 l 22 1028 l 289 1028 l 289 117 q 293 60 289 69 q 319 49 297 51 l 396 39 l 396 0 l 22 0 l 22 39 l 99 49 q 125 60 121 51 q 129 117 129 69 l 129 911 q 125 967 129 958 q 99 979 121 976 l 22 989 m 408 731 l 375 731 l 375 1028 l 526 1028 q 474 881 501 950 q 408 731 447 811 z "},"ļ":{"ha":418,"x_min":22,"x_max":396,"o":"m 22 989 l 22 1028 l 289 1028 l 289 117 q 293 60 289 69 q 319 49 297 51 l 396 39 l 396 0 l 22 0 l 22 39 l 99 49 q 125 60 121 51 q 129 117 129 69 l 129 911 q 125 967 129 958 q 99 979 121 976 l 22 989 m 99 -344 l 72 -319 q 109 -224 94 -274 q 132 -107 124 -175 l 289 -107 q 210 -230 257 -171 q 99 -344 164 -289 z "},"ŀ":{"ha":475,"x_min":22,"x_max":543,"o":"m 22 989 l 22 1028 l 289 1028 l 289 117 q 293 60 289 69 q 319 49 297 51 l 396 39 l 396 0 l 22 0 l 22 39 l 99 49 q 125 60 121 51 q 129 117 129 69 l 129 911 q 125 967 129 958 q 99 979 121 976 l 22 989 m 446 438 q 376 465 403 438 q 350 535 350 492 q 376 604 350 578 q 446 631 403 631 q 515 604 488 631 q 543 535 543 578 q 515 465 543 492 q 446 438 488 438 z "},"ł":{"ha":503,"x_min":21,"x_max":489,"o":"m 68 989 l 68 1028 l 335 1028 l 335 576 l 469 639 l 489 592 l 335 521 l 335 117 q 339 60 335 69 q 365 49 343 51 l 442 39 l 442 0 l 68 0 l 68 39 l 144 49 q 171 60 167 51 q 175 117 175 69 l 175 447 l 40 385 l 21 432 l 175 503 l 175 911 q 171 967 175 958 q 144 979 167 976 l 68 989 z "},"m":{"ha":1282,"x_min":32,"x_max":1267,"o":"m 836 39 l 836 0 l 463 0 l 463 39 l 539 49 q 565 60 561 51 q 569 117 569 69 l 569 467 q 543 606 569 563 q 464 650 517 650 q 411 638 442 650 q 351 596 381 626 q 299 506 321 565 l 299 117 q 303 60 299 69 q 329 49 307 51 l 406 39 l 406 0 l 32 0 l 32 39 l 108 49 q 135 60 131 51 q 139 117 139 69 l 139 588 q 135 644 139 635 q 108 656 131 653 l 32 665 l 32 704 l 290 704 l 290 582 q 390 685 329 653 q 514 718 451 718 q 641 680 589 718 q 715 571 693 642 q 817 683 753 649 q 944 718 881 718 q 1101 653 1043 718 q 1160 468 1160 588 l 1160 117 q 1164 60 1160 69 q 1190 49 1168 51 l 1267 39 l 1267 0 l 893 0 l 893 39 l 969 49 q 996 60 992 51 q 1000 117 1000 69 l 1000 467 q 974 606 1000 563 q 894 650 947 650 q 842 638 872 650 q 781 594 811 626 q 728 501 750 563 q 729 485 729 494 q 729 468 729 476 l 729 117 q 733 60 729 69 q 760 49 738 51 l 836 39 z "},"n":{"ha":865,"x_min":32,"x_max":850,"o":"m 850 39 l 850 0 l 476 0 l 476 39 l 553 49 q 579 60 575 51 q 583 117 583 69 l 583 467 q 555 606 583 563 q 471 650 526 650 q 416 638 447 650 q 353 596 385 626 q 299 506 322 565 l 299 117 q 303 60 299 69 q 329 49 307 51 l 406 39 l 406 0 l 32 0 l 32 39 l 108 49 q 135 60 131 51 q 139 117 139 69 l 139 588 q 135 644 139 635 q 108 656 131 653 l 32 665 l 32 704 l 290 704 l 290 582 q 394 685 331 653 q 521 718 457 718 q 683 653 624 718 q 743 468 743 588 l 743 117 q 747 60 743 69 q 774 49 751 51 l 850 39 z "},"ń":{"ha":865,"x_min":32,"x_max":850,"o":"m 850 39 l 850 0 l 476 0 l 476 39 l 553 49 q 579 60 575 51 q 583 117 583 69 l 583 467 q 555 606 583 563 q 471 650 526 650 q 416 638 447 650 q 353 596 385 626 q 299 506 322 565 l 299 117 q 303 60 299 69 q 329 49 307 51 l 406 39 l 406 0 l 32 0 l 32 39 l 108 49 q 135 60 131 51 q 139 117 139 69 l 139 588 q 135 644 139 635 q 108 656 131 653 l 32 665 l 32 704 l 290 704 l 290 582 q 394 685 331 653 q 521 718 457 718 q 683 653 624 718 q 743 468 743 588 l 743 117 q 747 60 743 69 q 774 49 751 51 l 850 39 m 446 804 l 413 833 q 463 922 440 878 q 499 1028 485 965 l 674 1028 q 575 913 626 964 q 446 804 524 861 z "},"ŉ":{"ha":1022,"x_min":-36,"x_max":1007,"o":"m 1007 39 l 1007 0 l 633 0 l 633 39 l 710 49 q 736 60 732 51 q 740 117 740 69 l 740 467 q 712 606 740 563 q 628 650 683 650 q 573 638 604 650 q 510 596 542 626 q 456 506 479 565 l 456 117 q 460 60 456 69 q 486 49 464 51 l 563 39 l 563 0 l 189 0 l 189 39 l 265 49 q 292 60 288 51 q 296 117 296 69 l 296 588 q 292 644 296 635 q 265 656 288 653 l 189 665 l 189 704 l 447 704 l 447 582 q 551 685 488 653 q 678 718 614 718 q 840 653 781 718 q 900 468 900 588 l 900 117 q 904 60 900 69 q 931 49 908 51 l 1007 39 m 146 849 q 110 722 146 796 q 4 565 75 647 l -28 593 q 38 694 19 650 q 58 776 57 739 l 54 776 q -11 801 14 776 q -36 868 -36 826 q -11 933 -36 908 q 54 958 14 958 q 120 930 94 958 q 146 849 146 901 z "},"ň":{"ha":865,"x_min":32,"x_max":850,"o":"m 850 39 l 850 0 l 476 0 l 476 39 l 553 49 q 579 60 575 51 q 583 117 583 69 l 583 467 q 555 606 583 563 q 471 650 526 650 q 416 638 447 650 q 353 596 385 626 q 299 506 322 565 l 299 117 q 303 60 299 69 q 329 49 307 51 l 406 39 l 406 0 l 32 0 l 32 39 l 108 49 q 135 60 131 51 q 139 117 139 69 l 139 588 q 135 644 139 635 q 108 656 131 653 l 32 665 l 32 704 l 290 704 l 290 582 q 394 685 331 653 q 521 718 457 718 q 683 653 624 718 q 743 468 743 588 l 743 117 q 747 60 743 69 q 774 49 751 51 l 850 39 m 638 1004 q 583 939 604 967 q 547 883 563 911 q 508 811 531 854 l 386 811 q 349 883 365 854 q 311 939 332 911 q 257 1004 290 967 l 276 1035 q 372 974 326 1006 q 453 911 418 942 q 618 1035 524 975 l 638 1004 z "},"ņ":{"ha":865,"x_min":32,"x_max":850,"o":"m 850 39 l 850 0 l 476 0 l 476 39 l 553 49 q 579 60 575 51 q 583 117 583 69 l 583 467 q 555 606 583 563 q 471 650 526 650 q 416 638 447 650 q 353 596 385 626 q 299 506 322 565 l 299 117 q 303 60 299 69 q 329 49 307 51 l 406 39 l 406 0 l 32 0 l 32 39 l 108 49 q 135 60 131 51 q 139 117 139 69 l 139 588 q 135 644 139 635 q 108 656 131 653 l 32 665 l 32 704 l 290 704 l 290 582 q 394 685 331 653 q 521 718 457 718 q 683 653 624 718 q 743 468 743 588 l 743 117 q 747 60 743 69 q 774 49 751 51 l 850 39 m 335 -344 l 308 -319 q 345 -224 331 -274 q 368 -107 360 -175 l 525 -107 q 447 -230 493 -171 q 335 -344 400 -289 z "},"ŋ":{"ha":858,"x_min":32,"x_max":743,"o":"m 32 665 l 32 704 l 290 704 l 290 582 q 394 685 331 653 q 521 718 457 718 q 683 653 624 718 q 743 468 743 588 l 743 -47 q 721 -176 743 -117 q 646 -273 699 -236 q 503 -310 593 -310 q 371 -272 426 -310 q 303 -140 315 -233 l 392 -112 q 426 -231 400 -201 q 483 -261 453 -261 q 558 -221 533 -261 q 583 -75 583 -181 l 583 467 q 555 606 583 563 q 471 650 526 650 q 416 638 447 650 q 353 596 385 626 q 299 506 322 565 l 299 117 q 303 60 299 69 q 329 49 307 51 l 406 39 l 406 0 l 32 0 l 32 39 l 108 49 q 135 60 131 51 q 139 117 139 69 l 139 588 q 135 644 139 635 q 108 656 131 653 l 32 665 z "},"ñ":{"ha":865,"x_min":32,"x_max":850,"o":"m 850 39 l 850 0 l 476 0 l 476 39 l 553 49 q 579 60 575 51 q 583 117 583 69 l 583 467 q 555 606 583 563 q 471 650 526 650 q 416 638 447 650 q 353 596 385 626 q 299 506 322 565 l 299 117 q 303 60 299 69 q 329 49 307 51 l 406 39 l 406 0 l 32 0 l 32 39 l 108 49 q 135 60 131 51 q 139 117 139 69 l 139 588 q 135 644 139 635 q 108 656 131 653 l 32 665 l 32 704 l 290 704 l 290 582 q 394 685 331 653 q 521 718 457 718 q 683 653 624 718 q 743 468 743 588 l 743 117 q 747 60 743 69 q 774 49 751 51 l 850 39 m 533 810 q 477 827 503 810 q 429 867 451 844 q 387 908 407 890 q 347 925 367 925 q 310 899 324 925 q 290 817 297 874 l 240 817 q 281 981 251 928 q 364 1035 310 1035 q 419 1017 394 1035 q 467 977 444 1000 q 508 937 489 954 q 549 919 528 919 q 585 946 572 919 q 604 1028 597 972 l 654 1028 q 615 863 643 917 q 533 810 586 810 z "},"o":{"ha":781,"x_min":72,"x_max":708,"o":"m 708 367 l 708 339 q 626 83 708 179 q 390 -14 543 -14 q 155 83 238 -14 q 72 339 72 179 l 72 367 q 155 622 72 526 q 390 718 238 718 q 626 622 543 718 q 708 367 708 526 m 538 394 q 500 606 538 543 q 390 669 463 669 q 281 606 319 669 q 243 394 243 543 l 243 311 q 281 99 243 164 q 390 35 319 35 q 500 99 463 35 q 538 311 538 164 l 538 394 z "},"ó":{"ha":781,"x_min":72,"x_max":708,"o":"m 708 367 l 708 339 q 626 83 708 179 q 390 -14 543 -14 q 155 83 238 -14 q 72 339 72 179 l 72 367 q 155 622 72 526 q 390 718 238 718 q 626 622 543 718 q 708 367 708 526 m 538 394 q 500 606 538 543 q 390 669 463 669 q 281 606 319 669 q 243 394 243 543 l 243 311 q 281 99 243 164 q 390 35 319 35 q 500 99 463 35 q 538 311 538 164 l 538 394 m 389 804 l 356 833 q 406 922 383 878 q 442 1028 428 965 l 617 1028 q 518 913 569 964 q 389 804 467 861 z "},"ŏ":{"ha":781,"x_min":72,"x_max":708,"o":"m 708 367 l 708 339 q 626 83 708 179 q 390 -14 543 -14 q 155 83 238 -14 q 72 339 72 179 l 72 367 q 155 622 72 526 q 390 718 238 718 q 626 622 543 718 q 708 367 708 526 m 538 394 q 500 606 538 543 q 390 669 463 669 q 281 606 319 669 q 243 394 243 543 l 243 311 q 281 99 243 164 q 390 35 319 35 q 500 99 463 35 q 538 311 538 164 l 538 394 m 390 918 q 494 945 456 918 q 547 1035 533 972 l 593 1021 q 524 861 574 918 q 390 804 474 804 q 257 861 307 804 q 188 1021 207 918 l 233 1035 q 288 945 249 972 q 390 918 326 918 z "},"ô":{"ha":781,"x_min":72,"x_max":708,"o":"m 708 367 l 708 339 q 626 83 708 179 q 390 -14 543 -14 q 155 83 238 -14 q 72 339 72 179 l 72 367 q 155 622 72 526 q 390 718 238 718 q 626 622 543 718 q 708 367 708 526 m 538 394 q 500 606 538 543 q 390 669 463 669 q 281 606 319 669 q 243 394 243 543 l 243 311 q 281 99 243 164 q 390 35 319 35 q 500 99 463 35 q 538 311 538 164 l 538 394 m 581 835 l 561 804 q 465 865 511 833 q 385 928 419 897 q 219 804 314 864 l 200 835 q 254 901 233 874 q 292 956 275 928 q 329 1028 308 985 l 451 1028 q 490 956 474 985 q 526 901 506 928 q 581 835 547 874 z "},"ö":{"ha":781,"x_min":72,"x_max":708,"o":"m 708 367 l 708 339 q 626 83 708 179 q 390 -14 543 -14 q 155 83 238 -14 q 72 339 72 179 l 72 367 q 155 622 72 526 q 390 718 238 718 q 626 622 543 718 q 708 367 708 526 m 538 394 q 500 606 538 543 q 390 669 463 669 q 281 606 319 669 q 243 394 243 543 l 243 311 q 281 99 243 164 q 390 35 319 35 q 500 99 463 35 q 538 311 538 164 l 538 394 m 244 833 q 182 858 206 833 q 158 921 158 882 q 182 983 158 960 q 244 1007 206 1007 q 307 983 282 1007 q 332 921 332 960 q 307 858 332 882 q 244 833 282 833 m 536 833 q 474 858 497 833 q 450 921 450 882 q 474 983 450 960 q 536 1007 497 1007 q 599 983 574 1007 q 624 921 624 960 q 599 858 624 882 q 536 833 574 833 z "},"ò":{"ha":781,"x_min":72,"x_max":708,"o":"m 708 367 l 708 339 q 626 83 708 179 q 390 -14 543 -14 q 155 83 238 -14 q 72 339 72 179 l 72 367 q 155 622 72 526 q 390 718 238 718 q 626 622 543 718 q 708 367 708 526 m 538 394 q 500 606 538 543 q 390 669 463 669 q 281 606 319 669 q 243 394 243 543 l 243 311 q 281 99 243 164 q 390 35 319 35 q 500 99 463 35 q 538 311 538 164 l 538 394 m 392 804 q 263 913 315 861 q 164 1028 211 964 l 339 1028 q 376 922 354 965 q 425 833 397 878 l 392 804 z "},"ő":{"ha":781,"x_min":72,"x_max":708,"o":"m 708 367 l 708 339 q 626 83 708 179 q 390 -14 543 -14 q 155 83 238 -14 q 72 339 72 179 l 72 367 q 155 622 72 526 q 390 718 238 718 q 626 622 543 718 q 708 367 708 526 m 538 394 q 500 606 538 543 q 390 669 463 669 q 281 606 319 669 q 243 394 243 543 l 243 311 q 281 99 243 164 q 390 35 319 35 q 500 99 463 35 q 538 311 538 164 l 538 394 m 279 804 l 242 838 q 286 923 269 879 q 317 1028 303 967 l 471 1028 q 386 912 432 965 q 279 804 340 858 m 474 804 l 436 838 q 481 923 464 879 q 511 1028 497 967 l 665 1028 q 581 912 626 965 q 474 804 535 858 z "},"ō":{"ha":781,"x_min":72,"x_max":708,"o":"m 708 367 l 708 339 q 626 83 708 179 q 390 -14 543 -14 q 155 83 238 -14 q 72 339 72 179 l 72 367 q 155 622 72 526 q 390 718 238 718 q 626 622 543 718 q 708 367 708 526 m 538 394 q 500 606 538 543 q 390 669 463 669 q 281 606 319 669 q 243 394 243 543 l 243 311 q 281 99 243 164 q 390 35 319 35 q 500 99 463 35 q 538 311 538 164 l 538 394 m 590 936 l 590 860 l 192 860 l 192 936 l 590 936 z "},"ø":{"ha":781,"x_min":72,"x_max":708,"o":"m 708 339 q 626 83 708 179 q 390 -14 543 -14 q 277 3 328 -14 q 188 51 226 21 l 147 0 l 72 0 l 146 93 q 72 339 72 183 l 72 367 q 155 622 72 526 q 390 718 238 718 q 503 701 453 718 q 593 653 554 685 l 633 704 l 708 704 l 635 611 q 708 367 708 521 l 708 339 m 243 311 q 247 221 243 261 l 518 560 q 469 644 501 618 q 390 669 438 669 q 281 606 319 669 q 243 394 243 543 l 243 311 m 538 394 q 533 485 538 446 l 263 144 q 313 61 281 88 q 390 35 344 35 q 500 99 463 35 q 538 311 538 164 l 538 394 z "},"õ":{"ha":781,"x_min":72,"x_max":708,"o":"m 708 367 l 708 339 q 626 83 708 179 q 390 -14 543 -14 q 155 83 238 -14 q 72 339 72 179 l 72 367 q 155 622 72 526 q 390 718 238 718 q 626 622 543 718 q 708 367 708 526 m 538 394 q 500 606 538 543 q 390 669 463 669 q 281 606 319 669 q 243 394 243 543 l 243 311 q 281 99 243 164 q 390 35 319 35 q 500 99 463 35 q 538 311 538 164 l 538 394 m 476 810 q 420 827 446 810 q 372 867 394 844 q 330 908 350 890 q 290 925 310 925 q 253 899 267 925 q 233 817 240 874 l 183 817 q 224 981 194 928 q 307 1035 253 1035 q 363 1017 338 1035 q 410 977 388 1000 q 451 937 432 954 q 492 919 471 919 q 528 946 515 919 q 547 1028 540 972 l 597 1028 q 558 863 586 917 q 476 810 529 810 z "},"œ":{"ha":1199,"x_min":72,"x_max":1129,"o":"m 1122 165 q 1029 27 1097 68 q 871 -14 961 -14 q 724 16 786 -14 q 624 100 663 46 q 526 16 585 46 q 390 -14 468 -14 q 155 83 238 -14 q 72 339 72 179 l 72 367 q 155 622 72 526 q 390 718 238 718 q 525 689 467 718 q 621 607 583 660 q 713 689 657 660 q 843 718 768 718 q 991 685 926 718 q 1092 592 1056 653 q 1129 443 1129 531 q 1127 399 1129 422 q 1119 351 1125 375 l 708 351 l 708 311 q 750 99 708 164 q 885 35 792 35 q 986 70 944 35 q 1033 190 1028 106 l 1122 165 m 538 394 q 500 606 538 543 q 390 669 463 669 q 281 606 319 669 q 243 394 243 543 l 243 311 q 281 99 243 164 q 390 35 319 35 q 500 99 463 35 q 538 311 538 164 l 538 394 m 843 669 q 742 607 775 669 q 708 400 708 544 l 960 400 q 967 452 965 428 q 969 497 969 476 q 935 628 969 586 q 843 669 900 669 z "},"p":{"ha":813,"x_min":22,"x_max":735,"o":"m 22 665 l 22 704 l 281 704 l 281 589 q 368 686 321 654 q 481 718 415 718 q 666 626 597 718 q 735 367 735 533 l 735 339 q 656 82 735 178 q 436 -14 576 -14 q 289 28 353 -14 l 289 -179 q 293 -235 289 -226 q 319 -247 297 -244 l 424 -257 l 424 -296 l 22 -296 l 22 -257 l 99 -247 q 125 -235 121 -244 q 129 -179 129 -226 l 129 588 q 125 644 129 635 q 99 656 121 653 l 22 665 m 444 657 q 372 628 410 657 q 289 513 333 600 l 289 93 q 418 40 342 40 q 530 109 496 40 q 564 297 564 178 l 564 408 q 532 597 564 538 q 444 657 500 657 z "},"þ":{"ha":808,"x_min":18,"x_max":731,"o":"m 18 989 l 18 1028 l 285 1028 l 285 601 q 369 689 322 660 q 476 718 415 718 q 662 626 593 718 q 731 367 731 533 l 731 339 q 651 82 731 178 q 432 -14 572 -14 q 285 28 349 -14 l 285 -179 q 289 -235 285 -226 q 315 -247 293 -244 l 419 -257 l 419 -296 l 18 -296 l 18 -257 l 94 -247 q 121 -235 117 -244 q 125 -179 125 -226 l 125 911 q 121 967 125 958 q 94 979 117 976 l 18 989 m 440 657 q 367 628 406 657 q 285 513 329 600 l 285 93 q 414 40 338 40 q 526 109 492 40 q 560 297 560 178 l 560 408 q 528 597 560 538 q 440 657 496 657 z "},"q":{"ha":801,"x_min":78,"x_max":790,"o":"m 790 -257 l 790 -296 l 389 -296 l 389 -257 l 493 -247 q 519 -235 515 -244 q 524 -179 524 -226 l 524 103 q 440 15 486 44 q 332 -14 393 -14 q 147 78 215 -14 q 78 338 78 171 l 78 365 q 158 622 78 526 q 376 718 238 718 q 551 654 483 718 q 600 678 576 664 q 646 711 624 693 l 683 711 l 683 -179 q 688 -235 683 -226 q 714 -247 692 -244 l 790 -257 m 249 296 q 281 107 249 167 q 368 47 313 47 q 441 76 403 47 q 524 192 479 104 l 524 611 q 394 664 471 664 q 283 595 318 664 q 249 407 249 526 l 249 296 z "},"r":{"ha":642,"x_min":32,"x_max":642,"o":"m 32 665 l 32 704 l 290 704 l 290 590 q 492 718 375 718 q 575 691 535 718 q 642 590 615 664 l 518 524 q 473 601 499 581 q 418 621 447 621 q 358 601 388 621 q 299 529 329 582 l 299 117 q 303 60 299 69 q 329 49 307 51 l 433 39 l 433 0 l 32 0 l 32 39 l 108 49 q 135 60 131 51 q 139 117 139 69 l 139 588 q 135 644 139 635 q 108 656 131 653 l 32 665 z "},"ŕ":{"ha":642,"x_min":32,"x_max":642,"o":"m 32 665 l 32 704 l 290 704 l 290 590 q 492 718 375 718 q 575 691 535 718 q 642 590 615 664 l 518 524 q 473 601 499 581 q 418 621 447 621 q 358 601 388 621 q 299 529 329 582 l 299 117 q 303 60 299 69 q 329 49 307 51 l 433 39 l 433 0 l 32 0 l 32 39 l 108 49 q 135 60 131 51 q 139 117 139 69 l 139 588 q 135 644 139 635 q 108 656 131 653 l 32 665 m 364 804 l 331 833 q 381 922 358 878 q 417 1028 403 965 l 592 1028 q 493 913 544 964 q 364 804 442 861 z "},"ř":{"ha":642,"x_min":32,"x_max":642,"o":"m 32 665 l 32 704 l 290 704 l 290 590 q 492 718 375 718 q 575 691 535 718 q 642 590 615 664 l 518 524 q 473 601 499 581 q 418 621 447 621 q 358 601 388 621 q 299 529 329 582 l 299 117 q 303 60 299 69 q 329 49 307 51 l 433 39 l 433 0 l 32 0 l 32 39 l 108 49 q 135 60 131 51 q 139 117 139 69 l 139 588 q 135 644 139 635 q 108 656 131 653 l 32 665 m 556 1004 q 501 939 522 967 q 465 883 481 911 q 426 811 449 854 l 304 811 q 267 883 283 854 q 229 939 250 911 q 175 1004 208 967 l 194 1035 q 290 974 244 1006 q 371 911 336 942 q 536 1035 442 975 l 556 1004 z "},"ŗ":{"ha":642,"x_min":32,"x_max":642,"o":"m 32 665 l 32 704 l 290 704 l 290 590 q 492 718 375 718 q 575 691 535 718 q 642 590 615 664 l 518 524 q 473 601 499 581 q 418 621 447 621 q 358 601 388 621 q 299 529 329 582 l 299 117 q 303 60 299 69 q 329 49 307 51 l 433 39 l 433 0 l 32 0 l 32 39 l 108 49 q 135 60 131 51 q 139 117 139 69 l 139 588 q 135 644 139 635 q 108 656 131 653 l 32 665 m 108 -344 l 82 -319 q 119 -224 104 -274 q 142 -107 133 -175 l 299 -107 q 220 -230 267 -171 q 108 -344 174 -289 z "},"s":{"ha":667,"x_min":54,"x_max":601,"o":"m 349 263 l 253 285 q 115 365 160 307 q 69 501 69 422 q 95 609 69 560 q 176 688 121 658 q 321 718 232 718 q 476 688 417 718 q 561 607 536 657 q 576 500 586 557 l 424 472 q 413 618 443 567 q 314 669 383 669 q 233 641 265 669 q 201 560 201 613 q 229 474 201 511 q 311 425 257 438 l 407 403 q 556 328 510 379 q 601 203 601 278 q 533 48 601 110 q 328 -14 464 -14 q 224 1 281 -14 q 122 54 168 15 q 54 165 75 93 l 144 201 q 208 72 154 110 q 328 35 261 35 q 430 63 390 35 q 469 146 469 92 q 444 215 469 183 q 349 263 418 246 z "},"ś":{"ha":667,"x_min":54,"x_max":601,"o":"m 349 263 l 253 285 q 115 365 160 307 q 69 501 69 422 q 95 609 69 560 q 176 688 121 658 q 321 718 232 718 q 476 688 417 718 q 561 607 536 657 q 576 500 586 557 l 424 472 q 413 618 443 567 q 314 669 383 669 q 233 641 265 669 q 201 560 201 613 q 229 474 201 511 q 311 425 257 438 l 407 403 q 556 328 510 379 q 601 203 601 278 q 533 48 601 110 q 328 -14 464 -14 q 224 1 281 -14 q 122 54 168 15 q 54 165 75 93 l 144 201 q 208 72 154 110 q 328 35 261 35 q 430 63 390 35 q 469 146 469 92 q 444 215 469 183 q 349 263 418 246 m 332 804 l 299 833 q 349 922 326 878 q 385 1028 371 965 l 560 1028 q 461 913 513 964 q 332 804 410 861 z "},"š":{"ha":667,"x_min":54,"x_max":601,"o":"m 349 263 l 253 285 q 115 365 160 307 q 69 501 69 422 q 95 609 69 560 q 176 688 121 658 q 321 718 232 718 q 476 688 417 718 q 561 607 536 657 q 576 500 586 557 l 424 472 q 413 618 443 567 q 314 669 383 669 q 233 641 265 669 q 201 560 201 613 q 229 474 201 511 q 311 425 257 438 l 407 403 q 556 328 510 379 q 601 203 601 278 q 533 48 601 110 q 328 -14 464 -14 q 224 1 281 -14 q 122 54 168 15 q 54 165 75 93 l 144 201 q 208 72 154 110 q 328 35 261 35 q 430 63 390 35 q 469 146 469 92 q 444 215 469 183 q 349 263 418 246 m 524 1004 q 469 939 490 967 q 433 883 449 911 q 394 811 417 854 l 272 811 q 235 883 251 854 q 197 939 218 911 q 143 1004 176 967 l 163 1035 q 258 974 213 1006 q 339 911 304 942 q 504 1035 410 975 l 524 1004 z "},"ş":{"ha":667,"x_min":54,"x_max":601,"o":"m 493 -194 q 447 -279 493 -249 q 328 -310 400 -310 q 228 -285 271 -310 q 174 -201 185 -261 l 250 -182 q 273 -247 256 -228 q 317 -265 290 -265 q 363 -245 349 -265 q 378 -194 378 -225 q 363 -142 378 -162 q 306 -121 347 -121 q 292 -122 300 -121 q 278 -124 285 -122 l 260 -87 l 290 -12 q 198 9 246 -8 q 111 64 150 26 q 54 165 72 101 l 144 201 q 208 72 154 110 q 328 35 261 35 q 430 63 390 35 q 469 146 469 92 q 444 215 469 183 q 349 263 418 246 l 253 285 q 115 365 160 307 q 69 501 69 422 q 95 609 69 560 q 176 688 121 658 q 321 718 232 718 q 476 688 417 718 q 561 607 536 657 q 576 500 586 557 l 424 472 q 413 618 443 567 q 314 669 383 669 q 233 641 265 669 q 201 560 201 613 q 229 474 201 511 q 311 425 257 438 l 407 403 q 556 328 510 379 q 601 203 601 278 q 537 53 601 114 q 346 -14 472 -8 l 319 -76 q 446 -109 399 -78 q 493 -194 493 -140 z "},"ŝ":{"ha":667,"x_min":54,"x_max":601,"o":"m 349 263 l 253 285 q 115 365 160 307 q 69 501 69 422 q 95 609 69 560 q 176 688 121 658 q 321 718 232 718 q 476 688 417 718 q 561 607 536 657 q 576 500 586 557 l 424 472 q 413 618 443 567 q 314 669 383 669 q 233 641 265 669 q 201 560 201 613 q 229 474 201 511 q 311 425 257 438 l 407 403 q 556 328 510 379 q 601 203 601 278 q 533 48 601 110 q 328 -14 464 -14 q 224 1 281 -14 q 122 54 168 15 q 54 165 75 93 l 144 201 q 208 72 154 110 q 328 35 261 35 q 430 63 390 35 q 469 146 469 92 q 444 215 469 183 q 349 263 418 246 m 524 835 l 504 804 q 408 865 454 833 q 328 928 363 897 q 163 804 257 864 l 143 835 q 197 901 176 874 q 235 956 218 928 q 272 1028 251 985 l 394 1028 q 433 956 417 985 q 469 901 449 928 q 524 835 490 874 z "},"ß":{"ha":876,"x_min":32,"x_max":843,"o":"m 299 807 l 299 0 l 32 0 l 32 39 l 108 49 q 135 60 131 51 q 139 117 139 69 l 139 588 q 135 644 139 635 q 108 656 131 653 l 32 665 l 32 704 l 139 704 l 139 779 q 167 906 139 846 q 259 1004 194 967 q 436 1042 324 1042 q 578 1018 522 1042 q 661 957 633 994 q 689 876 689 919 q 668 803 689 836 q 621 740 647 771 q 574 676 594 710 q 553 600 553 643 q 584 516 553 549 q 669 444 615 483 l 724 406 q 843 190 843 319 q 783 44 843 103 q 619 -14 722 -14 q 528 1 575 -14 q 444 54 482 15 q 386 165 407 93 l 476 201 q 524 72 486 110 q 618 35 563 35 q 689 60 661 35 q 717 138 717 85 q 697 202 717 175 q 629 264 678 229 l 575 303 q 507 357 538 331 q 459 417 476 383 q 442 500 442 450 q 460 592 442 553 q 503 667 479 631 q 547 748 528 704 q 565 851 565 792 q 528 963 565 933 q 436 993 492 993 q 335 954 372 993 q 299 807 299 915 z "},"t":{"ha":549,"x_min":15,"x_max":526,"o":"m 526 144 q 458 23 508 60 q 335 -14 407 -14 q 214 19 261 -14 q 144 106 167 51 q 122 221 122 160 l 122 588 q 118 644 122 635 q 92 656 114 653 l 15 665 l 15 704 l 122 704 l 122 865 l 282 897 l 282 704 l 504 704 l 504 656 l 282 656 l 282 193 q 304 70 282 104 q 361 36 326 36 q 417 64 397 36 q 443 165 438 92 l 526 144 z "},"ŧ":{"ha":569,"x_min":36,"x_max":547,"o":"m 547 144 q 478 23 529 60 q 356 -14 428 -14 q 235 19 282 -14 q 165 106 188 51 q 143 221 143 160 l 143 389 l 36 389 l 36 438 l 143 438 l 143 588 q 139 644 143 635 q 113 656 135 653 l 36 665 l 36 704 l 143 704 l 143 865 l 303 897 l 303 704 l 525 704 l 525 656 l 303 656 l 303 438 l 481 438 l 481 389 l 303 389 l 303 193 q 325 70 303 104 q 382 36 347 36 q 438 64 418 36 q 464 165 458 92 l 547 144 z "},"ť":{"ha":549,"x_min":15,"x_max":526,"o":"m 526 144 q 458 23 508 60 q 335 -14 407 -14 q 214 19 261 -14 q 144 106 167 51 q 122 221 122 160 l 122 588 q 118 644 122 635 q 92 656 114 653 l 15 665 l 15 704 l 122 704 l 122 865 l 282 897 l 282 704 l 504 704 l 504 656 l 282 656 l 282 193 q 304 70 282 104 q 361 36 326 36 q 417 64 397 36 q 443 165 438 92 l 526 144 m 394 772 l 361 772 l 361 1069 l 513 1069 q 460 922 488 992 q 394 772 433 853 z "},"u":{"ha":842,"x_min":15,"x_max":819,"o":"m 819 39 l 819 0 l 561 0 l 561 122 q 461 19 522 51 q 338 -14 400 -14 q 181 52 239 -14 q 122 236 122 118 l 122 588 q 118 644 122 635 q 92 656 114 653 l 15 665 l 15 704 l 282 704 l 282 238 q 309 98 282 142 q 388 54 336 54 q 440 66 410 54 q 500 109 469 78 q 553 199 531 140 l 553 588 q 549 644 553 635 q 522 656 544 654 l 418 665 l 418 704 l 713 704 l 713 117 q 717 60 713 69 q 743 49 721 51 l 819 39 z "},"ú":{"ha":842,"x_min":15,"x_max":819,"o":"m 819 39 l 819 0 l 561 0 l 561 122 q 461 19 522 51 q 338 -14 400 -14 q 181 52 239 -14 q 122 236 122 118 l 122 588 q 118 644 122 635 q 92 656 114 653 l 15 665 l 15 704 l 282 704 l 282 238 q 309 98 282 142 q 388 54 336 54 q 440 66 410 54 q 500 109 469 78 q 553 199 531 140 l 553 588 q 549 644 553 635 q 522 656 544 654 l 418 665 l 418 704 l 713 704 l 713 117 q 717 60 713 69 q 743 49 721 51 l 819 39 m 414 804 l 381 833 q 431 922 408 878 q 467 1028 453 965 l 642 1028 q 543 913 594 964 q 414 804 492 861 z "},"ŭ":{"ha":842,"x_min":15,"x_max":819,"o":"m 819 39 l 819 0 l 561 0 l 561 122 q 461 19 522 51 q 338 -14 400 -14 q 181 52 239 -14 q 122 236 122 118 l 122 588 q 118 644 122 635 q 92 656 114 653 l 15 665 l 15 704 l 282 704 l 282 238 q 309 98 282 142 q 388 54 336 54 q 440 66 410 54 q 500 109 469 78 q 553 199 531 140 l 553 588 q 549 644 553 635 q 522 656 544 654 l 418 665 l 418 704 l 713 704 l 713 117 q 717 60 713 69 q 743 49 721 51 l 819 39 m 415 918 q 519 945 481 918 q 572 1035 558 972 l 618 1021 q 549 861 599 918 q 415 804 499 804 q 282 861 332 804 q 213 1021 232 918 l 258 1035 q 313 945 274 972 q 415 918 351 918 z "},"û":{"ha":842,"x_min":15,"x_max":819,"o":"m 819 39 l 819 0 l 561 0 l 561 122 q 461 19 522 51 q 338 -14 400 -14 q 181 52 239 -14 q 122 236 122 118 l 122 588 q 118 644 122 635 q 92 656 114 653 l 15 665 l 15 704 l 282 704 l 282 238 q 309 98 282 142 q 388 54 336 54 q 440 66 410 54 q 500 109 469 78 q 553 199 531 140 l 553 588 q 549 644 553 635 q 522 656 544 654 l 418 665 l 418 704 l 713 704 l 713 117 q 717 60 713 69 q 743 49 721 51 l 819 39 m 606 835 l 586 804 q 490 865 536 833 q 410 928 444 897 q 244 804 339 864 l 225 835 q 279 901 258 874 q 317 956 300 928 q 354 1028 333 985 l 476 1028 q 515 956 499 985 q 551 901 531 928 q 606 835 572 874 z "},"ü":{"ha":842,"x_min":15,"x_max":819,"o":"m 819 39 l 819 0 l 561 0 l 561 122 q 461 19 522 51 q 338 -14 400 -14 q 181 52 239 -14 q 122 236 122 118 l 122 588 q 118 644 122 635 q 92 656 114 653 l 15 665 l 15 704 l 282 704 l 282 238 q 309 98 282 142 q 388 54 336 54 q 440 66 410 54 q 500 109 469 78 q 553 199 531 140 l 553 588 q 549 644 553 635 q 522 656 544 654 l 418 665 l 418 704 l 713 704 l 713 117 q 717 60 713 69 q 743 49 721 51 l 819 39 m 269 833 q 207 858 231 833 q 183 921 183 882 q 207 983 183 960 q 269 1007 231 1007 q 332 983 307 1007 q 357 921 357 960 q 332 858 357 882 q 269 833 307 833 m 561 833 q 499 858 522 833 q 475 921 475 882 q 499 983 475 960 q 561 1007 522 1007 q 624 983 599 1007 q 649 921 649 960 q 624 858 649 882 q 561 833 599 833 z "},"ù":{"ha":842,"x_min":15,"x_max":819,"o":"m 819 39 l 819 0 l 561 0 l 561 122 q 461 19 522 51 q 338 -14 400 -14 q 181 52 239 -14 q 122 236 122 118 l 122 588 q 118 644 122 635 q 92 656 114 653 l 15 665 l 15 704 l 282 704 l 282 238 q 309 98 282 142 q 388 54 336 54 q 440 66 410 54 q 500 109 469 78 q 553 199 531 140 l 553 588 q 549 644 553 635 q 522 656 544 654 l 418 665 l 418 704 l 713 704 l 713 117 q 717 60 713 69 q 743 49 721 51 l 819 39 m 417 804 q 288 913 340 861 q 189 1028 236 964 l 364 1028 q 401 922 379 965 q 450 833 422 878 l 417 804 z "},"ű":{"ha":842,"x_min":15,"x_max":819,"o":"m 819 39 l 819 0 l 561 0 l 561 122 q 461 19 522 51 q 338 -14 400 -14 q 181 52 239 -14 q 122 236 122 118 l 122 588 q 118 644 122 635 q 92 656 114 653 l 15 665 l 15 704 l 282 704 l 282 238 q 309 98 282 142 q 388 54 336 54 q 440 66 410 54 q 500 109 469 78 q 553 199 531 140 l 553 588 q 549 644 553 635 q 522 656 544 654 l 418 665 l 418 704 l 713 704 l 713 117 q 717 60 713 69 q 743 49 721 51 l 819 39 m 304 804 l 267 838 q 311 923 294 879 q 342 1028 328 967 l 496 1028 q 411 912 457 965 q 304 804 365 858 m 499 804 l 461 838 q 506 923 489 879 q 536 1028 522 967 l 690 1028 q 606 912 651 965 q 499 804 560 858 z "},"ū":{"ha":842,"x_min":15,"x_max":819,"o":"m 819 39 l 819 0 l 561 0 l 561 122 q 461 19 522 51 q 338 -14 400 -14 q 181 52 239 -14 q 122 236 122 118 l 122 588 q 118 644 122 635 q 92 656 114 653 l 15 665 l 15 704 l 282 704 l 282 238 q 309 98 282 142 q 388 54 336 54 q 440 66 410 54 q 500 109 469 78 q 553 199 531 140 l 553 588 q 549 644 553 635 q 522 656 544 654 l 418 665 l 418 704 l 713 704 l 713 117 q 717 60 713 69 q 743 49 721 51 l 819 39 m 615 936 l 615 860 l 217 860 l 217 936 l 615 936 z "},"ţ":{"ha":549,"x_min":15,"x_max":526,"o":"m 526 144 q 458 23 508 60 q 335 -14 407 -14 q 214 19 261 -14 q 144 106 167 51 q 122 221 122 160 l 122 588 q 118 644 122 635 q 92 656 114 653 l 15 665 l 15 704 l 122 704 l 122 865 l 282 897 l 282 704 l 504 704 l 504 656 l 282 656 l 282 193 q 304 70 282 104 q 361 36 326 36 q 417 64 397 36 q 443 165 438 92 l 526 144 m 213 -344 l 186 -319 q 223 -224 208 -274 q 246 -107 238 -175 l 403 -107 q 324 -230 371 -171 q 213 -344 278 -289 z "},"ș":{"ha":667,"x_min":54,"x_max":601,"o":"m 349 263 l 253 285 q 115 365 160 307 q 69 501 69 422 q 95 609 69 560 q 176 688 121 658 q 321 718 232 718 q 476 688 417 718 q 561 607 536 657 q 576 500 586 557 l 424 472 q 413 618 443 567 q 314 669 383 669 q 233 641 265 669 q 201 560 201 613 q 229 474 201 511 q 311 425 257 438 l 407 403 q 556 328 510 379 q 601 203 601 278 q 533 48 601 110 q 328 -14 464 -14 q 224 1 281 -14 q 122 54 168 15 q 54 165 75 93 l 144 201 q 208 72 154 110 q 328 35 261 35 q 430 63 390 35 q 469 146 469 92 q 444 215 469 183 q 349 263 418 246 m 222 -344 l 196 -319 q 233 -224 218 -274 q 256 -107 247 -175 l 413 -107 q 334 -230 381 -171 q 222 -344 288 -289 z "},"ț":{"ha":549,"x_min":15,"x_max":526,"o":"m 526 144 q 458 23 508 60 q 335 -14 407 -14 q 214 19 261 -14 q 144 106 167 51 q 122 221 122 160 l 122 588 q 118 644 122 635 q 92 656 114 653 l 15 665 l 15 704 l 122 704 l 122 865 l 282 897 l 282 704 l 504 704 l 504 656 l 282 656 l 282 193 q 304 70 282 104 q 361 36 326 36 q 417 64 397 36 q 443 165 438 92 l 526 144 m 213 -344 l 186 -319 q 223 -224 208 -274 q 246 -107 238 -175 l 403 -107 q 324 -230 371 -171 q 213 -344 278 -289 z "},"ų":{"ha":842,"x_min":15,"x_max":819,"o":"m 418 665 l 418 704 l 713 704 l 713 117 q 717 60 713 69 q 743 49 721 51 l 819 39 l 819 0 l 753 0 q 608 -53 658 0 q 557 -179 557 -106 q 572 -240 557 -218 q 617 -262 586 -262 q 666 -240 644 -262 q 696 -156 688 -217 l 785 -174 q 715 -279 764 -249 q 606 -310 665 -310 q 489 -275 536 -310 q 442 -181 442 -240 q 476 -86 442 -129 q 561 -14 510 -43 l 561 122 q 461 19 522 51 q 338 -14 400 -14 q 181 52 239 -14 q 122 236 122 118 l 122 588 q 118 644 122 635 q 92 656 114 653 l 15 665 l 15 704 l 282 704 l 282 238 q 309 98 282 142 q 388 54 336 54 q 440 66 410 54 q 500 109 469 78 q 553 199 531 140 l 553 588 q 549 644 553 635 q 522 656 544 654 l 418 665 z "},"ů":{"ha":842,"x_min":15,"x_max":819,"o":"m 819 39 l 819 0 l 561 0 l 561 122 q 461 19 522 51 q 338 -14 400 -14 q 181 52 239 -14 q 122 236 122 118 l 122 588 q 118 644 122 635 q 92 656 114 653 l 15 665 l 15 704 l 282 704 l 282 238 q 309 98 282 142 q 388 54 336 54 q 440 66 410 54 q 500 109 469 78 q 553 199 531 140 l 553 588 q 549 644 553 635 q 522 656 544 654 l 418 665 l 418 704 l 713 704 l 713 117 q 717 60 713 69 q 743 49 721 51 l 819 39 m 586 957 l 586 942 q 566 866 586 903 q 508 806 546 829 q 415 782 469 782 q 323 806 361 782 q 265 866 285 829 q 244 942 244 903 l 244 957 q 265 1033 244 997 q 323 1092 285 1069 q 415 1115 361 1115 q 508 1092 469 1115 q 566 1033 546 1069 q 586 957 586 997 m 485 967 q 415 1078 485 1078 q 347 967 347 1078 l 347 932 q 415 819 347 819 q 485 932 485 819 l 485 967 z "},"ũ":{"ha":842,"x_min":15,"x_max":819,"o":"m 819 39 l 819 0 l 561 0 l 561 122 q 461 19 522 51 q 338 -14 400 -14 q 181 52 239 -14 q 122 236 122 118 l 122 588 q 118 644 122 635 q 92 656 114 653 l 15 665 l 15 704 l 282 704 l 282 238 q 309 98 282 142 q 388 54 336 54 q 440 66 410 54 q 500 109 469 78 q 553 199 531 140 l 553 588 q 549 644 553 635 q 522 656 544 654 l 418 665 l 418 704 l 713 704 l 713 117 q 717 60 713 69 q 743 49 721 51 l 819 39 m 501 810 q 445 827 471 810 q 397 867 419 844 q 355 908 375 890 q 315 925 335 925 q 278 899 292 925 q 258 817 265 874 l 208 817 q 249 981 219 928 q 332 1035 278 1035 q 388 1017 363 1035 q 435 977 413 1000 q 476 937 457 954 q 517 919 496 919 q 553 946 540 919 q 572 1028 565 972 l 622 1028 q 583 863 611 917 q 501 810 554 810 z "},"v":{"ha":764,"x_min":-7,"x_max":771,"o":"m 643 588 l 446 0 l 319 0 l 122 588 q 106 633 113 619 q 92 650 100 646 q 69 656 85 654 l -7 665 l -7 704 l 368 704 l 368 665 l 292 656 q 269 644 271 653 q 283 588 268 636 l 436 126 l 590 588 q 605 644 606 636 q 582 656 604 653 l 506 665 l 506 704 l 771 704 l 771 665 l 694 656 q 673 650 681 654 q 660 633 665 646 q 643 588 654 619 z "},"w":{"ha":1108,"x_min":-7,"x_max":1115,"o":"m 993 588 l 842 0 l 715 0 l 549 558 l 381 0 l 265 0 l 115 588 q 102 633 107 619 q 90 650 97 646 q 69 656 83 654 l -7 665 l -7 704 l 363 704 l 363 665 l 286 656 q 261 644 264 653 q 271 588 258 635 l 379 169 l 539 704 l 661 704 l 826 146 l 939 588 q 949 644 951 635 q 924 656 946 653 l 847 665 l 847 704 l 1115 704 l 1115 665 l 1039 656 q 1018 650 1025 654 q 1006 633 1011 646 q 993 588 1001 619 z "},"ẃ":{"ha":1108,"x_min":-7,"x_max":1115,"o":"m 993 588 l 842 0 l 715 0 l 549 558 l 381 0 l 265 0 l 115 588 q 102 633 107 619 q 90 650 97 646 q 69 656 83 654 l -7 665 l -7 704 l 363 704 l 363 665 l 286 656 q 261 644 264 653 q 271 588 258 635 l 379 169 l 539 704 l 661 704 l 826 146 l 939 588 q 949 644 951 635 q 924 656 946 653 l 847 665 l 847 704 l 1115 704 l 1115 665 l 1039 656 q 1018 650 1025 654 q 1006 633 1011 646 q 993 588 1001 619 m 597 804 l 564 833 q 614 922 592 878 q 650 1028 636 965 l 825 1028 q 726 913 778 964 q 597 804 675 861 z "},"ŵ":{"ha":1108,"x_min":-7,"x_max":1115,"o":"m 993 588 l 842 0 l 715 0 l 549 558 l 381 0 l 265 0 l 115 588 q 102 633 107 619 q 90 650 97 646 q 69 656 83 654 l -7 665 l -7 704 l 363 704 l 363 665 l 286 656 q 261 644 264 653 q 271 588 258 635 l 379 169 l 539 704 l 661 704 l 826 146 l 939 588 q 949 644 951 635 q 924 656 946 653 l 847 665 l 847 704 l 1115 704 l 1115 665 l 1039 656 q 1018 650 1025 654 q 1006 633 1011 646 q 993 588 1001 619 m 789 835 l 769 804 q 674 865 719 833 q 593 928 628 897 q 428 804 522 864 l 408 835 q 463 901 442 874 q 500 956 483 928 q 538 1028 517 985 l 660 1028 q 698 956 682 985 q 735 901 714 928 q 789 835 756 874 z "},"ẅ":{"ha":1108,"x_min":-7,"x_max":1115,"o":"m 993 588 l 842 0 l 715 0 l 549 558 l 381 0 l 265 0 l 115 588 q 102 633 107 619 q 90 650 97 646 q 69 656 83 654 l -7 665 l -7 704 l 363 704 l 363 665 l 286 656 q 261 644 264 653 q 271 588 258 635 l 379 169 l 539 704 l 661 704 l 826 146 l 939 588 q 949 644 951 635 q 924 656 946 653 l 847 665 l 847 704 l 1115 704 l 1115 665 l 1039 656 q 1018 650 1025 654 q 1006 633 1011 646 q 993 588 1001 619 m 453 833 q 390 858 414 833 q 367 921 367 882 q 390 983 367 960 q 453 1007 414 1007 q 515 983 490 1007 q 540 921 540 960 q 515 858 540 882 q 453 833 490 833 m 744 833 q 682 858 706 833 q 658 921 658 882 q 682 983 658 960 q 744 1007 706 1007 q 807 983 782 1007 q 832 921 832 960 q 807 858 832 882 q 744 833 782 833 z "},"ẁ":{"ha":1108,"x_min":-7,"x_max":1115,"o":"m 993 588 l 842 0 l 715 0 l 549 558 l 381 0 l 265 0 l 115 588 q 102 633 107 619 q 90 650 97 646 q 69 656 83 654 l -7 665 l -7 704 l 363 704 l 363 665 l 286 656 q 261 644 264 653 q 271 588 258 635 l 379 169 l 539 704 l 661 704 l 826 146 l 939 588 q 949 644 951 635 q 924 656 946 653 l 847 665 l 847 704 l 1115 704 l 1115 665 l 1039 656 q 1018 650 1025 654 q 1006 633 1011 646 q 993 588 1001 619 m 600 804 q 472 913 524 861 q 372 1028 419 964 l 547 1028 q 584 922 563 965 q 633 833 606 878 l 600 804 z "},"x":{"ha":754,"x_min":7,"x_max":747,"o":"m 285 39 l 285 0 l 7 0 l 7 39 l 83 49 q 105 55 97 51 q 124 72 113 58 q 156 117 135 86 l 304 333 l 156 588 q 128 633 138 619 q 110 650 118 646 q 88 656 101 654 l 11 665 l 11 704 l 396 704 l 396 665 l 319 656 q 299 644 297 653 q 328 588 300 636 l 421 429 l 528 588 q 560 644 560 635 q 539 656 561 653 l 463 665 l 463 704 l 740 704 l 740 665 l 664 656 q 642 650 650 654 q 624 633 635 646 q 592 588 614 619 l 450 379 l 603 117 q 631 72 622 85 q 649 55 640 58 q 671 49 657 51 l 747 39 l 747 0 l 363 0 l 363 39 l 439 49 q 460 60 461 51 q 431 117 458 69 l 333 285 l 219 117 q 187 60 188 69 q 208 49 186 51 l 285 39 z "},"y":{"ha":764,"x_min":-7,"x_max":771,"o":"m 421 -69 q 351 -210 389 -157 q 257 -286 313 -262 q 118 -310 201 -310 l 118 -157 q 255 -145 203 -157 q 335 -108 307 -133 q 378 -42 364 -82 l 392 0 l 319 0 l 122 588 q 106 633 113 619 q 92 650 100 646 q 69 656 85 654 l -7 665 l -7 704 l 368 704 l 368 665 l 292 656 q 272 645 275 654 q 283 588 268 636 l 435 129 l 592 593 q 605 645 607 638 q 582 656 603 653 l 506 665 l 506 704 l 771 704 l 771 665 l 694 656 q 667 644 674 653 q 644 593 660 636 l 421 -69 z "},"ý":{"ha":764,"x_min":-7,"x_max":771,"o":"m 421 -69 q 351 -210 389 -157 q 257 -286 313 -262 q 118 -310 201 -310 l 118 -157 q 255 -145 203 -157 q 335 -108 307 -133 q 378 -42 364 -82 l 392 0 l 319 0 l 122 588 q 106 633 113 619 q 92 650 100 646 q 69 656 85 654 l -7 665 l -7 704 l 368 704 l 368 665 l 292 656 q 272 645 275 654 q 283 588 268 636 l 435 129 l 592 593 q 605 645 607 638 q 582 656 603 653 l 506 665 l 506 704 l 771 704 l 771 665 l 694 656 q 667 644 674 653 q 644 593 660 636 l 421 -69 m 428 804 l 394 833 q 444 922 422 878 q 481 1028 467 965 l 656 1028 q 557 913 608 964 q 428 804 506 861 z "},"ŷ":{"ha":764,"x_min":-7,"x_max":771,"o":"m 421 -69 q 351 -210 389 -157 q 257 -286 313 -262 q 118 -310 201 -310 l 118 -157 q 255 -145 203 -157 q 335 -108 307 -133 q 378 -42 364 -82 l 392 0 l 319 0 l 122 588 q 106 633 113 619 q 92 650 100 646 q 69 656 85 654 l -7 665 l -7 704 l 368 704 l 368 665 l 292 656 q 272 645 275 654 q 283 588 268 636 l 435 129 l 592 593 q 605 645 607 638 q 582 656 603 653 l 506 665 l 506 704 l 771 704 l 771 665 l 694 656 q 667 644 674 653 q 644 593 660 636 l 421 -69 m 619 835 l 600 804 q 504 865 550 833 q 424 928 458 897 q 258 804 353 864 l 239 835 q 293 901 272 874 q 331 956 314 928 q 368 1028 347 985 l 490 1028 q 528 956 513 985 q 565 901 544 928 q 619 835 586 874 z "},"ÿ":{"ha":764,"x_min":-7,"x_max":771,"o":"m 421 -69 q 351 -210 389 -157 q 257 -286 313 -262 q 118 -310 201 -310 l 118 -157 q 255 -145 203 -157 q 335 -108 307 -133 q 378 -42 364 -82 l 392 0 l 319 0 l 122 588 q 106 633 113 619 q 92 650 100 646 q 69 656 85 654 l -7 665 l -7 704 l 368 704 l 368 665 l 292 656 q 272 645 275 654 q 283 588 268 636 l 435 129 l 592 593 q 605 645 607 638 q 582 656 603 653 l 506 665 l 506 704 l 771 704 l 771 665 l 694 656 q 667 644 674 653 q 644 593 660 636 l 421 -69 m 283 833 q 221 858 244 833 q 197 921 197 882 q 221 983 197 960 q 283 1007 244 1007 q 346 983 321 1007 q 371 921 371 960 q 346 858 371 882 q 283 833 321 833 m 575 833 q 513 858 536 833 q 489 921 489 882 q 513 983 489 960 q 575 1007 536 1007 q 638 983 613 1007 q 663 921 663 960 q 638 858 663 882 q 575 833 613 833 z "},"ỳ":{"ha":764,"x_min":-7,"x_max":771,"o":"m 421 -69 q 351 -210 389 -157 q 257 -286 313 -262 q 118 -310 201 -310 l 118 -157 q 255 -145 203 -157 q 335 -108 307 -133 q 378 -42 364 -82 l 392 0 l 319 0 l 122 588 q 106 633 113 619 q 92 650 100 646 q 69 656 85 654 l -7 665 l -7 704 l 368 704 l 368 665 l 292 656 q 272 645 275 654 q 283 588 268 636 l 435 129 l 592 593 q 605 645 607 638 q 582 656 603 653 l 506 665 l 506 704 l 771 704 l 771 665 l 694 656 q 667 644 674 653 q 644 593 660 636 l 421 -69 m 431 804 q 302 913 354 861 q 203 1028 250 964 l 378 1028 q 415 922 393 965 q 464 833 436 878 l 431 804 z "},"z":{"ha":646,"x_min":53,"x_max":590,"o":"m 551 211 l 590 211 l 590 0 l 53 0 l 53 35 l 401 656 l 221 656 q 174 653 189 656 q 156 644 160 651 q 146 619 151 636 l 108 493 l 69 493 l 69 704 l 576 704 l 576 669 l 228 49 l 439 49 q 486 51 472 49 q 505 60 500 53 q 514 85 510 68 l 551 211 z "},"ź":{"ha":646,"x_min":53,"x_max":590,"o":"m 551 211 l 590 211 l 590 0 l 53 0 l 53 35 l 401 656 l 221 656 q 174 653 189 656 q 156 644 160 651 q 146 619 151 636 l 108 493 l 69 493 l 69 704 l 576 704 l 576 669 l 228 49 l 439 49 q 486 51 472 49 q 505 60 500 53 q 514 85 510 68 l 551 211 m 322 804 l 289 833 q 339 922 317 878 q 375 1028 361 965 l 550 1028 q 451 913 503 964 q 322 804 400 861 z "},"ž":{"ha":646,"x_min":53,"x_max":590,"o":"m 551 211 l 590 211 l 590 0 l 53 0 l 53 35 l 401 656 l 221 656 q 174 653 189 656 q 156 644 160 651 q 146 619 151 636 l 108 493 l 69 493 l 69 704 l 576 704 l 576 669 l 228 49 l 439 49 q 486 51 472 49 q 505 60 500 53 q 514 85 510 68 l 551 211 m 514 1004 q 460 939 481 967 q 423 883 439 911 q 385 811 407 854 l 263 811 q 225 883 242 854 q 188 939 208 911 q 133 1004 167 967 l 153 1035 q 249 974 203 1006 q 329 911 294 942 q 494 1035 400 975 l 514 1004 z "},"ż":{"ha":646,"x_min":53,"x_max":590,"o":"m 551 211 l 590 211 l 590 0 l 53 0 l 53 35 l 401 656 l 221 656 q 174 653 189 656 q 156 644 160 651 q 146 619 151 636 l 108 493 l 69 493 l 69 704 l 576 704 l 576 669 l 228 49 l 439 49 q 486 51 472 49 q 505 60 500 53 q 514 85 510 68 l 551 211 m 324 824 q 254 851 281 824 q 228 921 228 878 q 254 990 228 964 q 324 1017 281 1017 q 393 990 365 1017 q 421 921 421 964 q 393 851 421 878 q 324 824 365 824 z "},"ﬀ":{"ha":953,"x_min":32,"x_max":1079,"o":"m 882 39 l 882 0 l 481 0 l 481 39 l 557 49 q 583 60 579 51 q 588 117 588 69 l 588 656 l 299 656 l 299 117 q 303 60 299 69 q 329 49 307 51 l 406 39 l 406 0 l 32 0 l 32 39 l 108 49 q 135 60 131 51 q 139 117 139 69 l 139 588 q 135 644 139 635 q 108 656 131 653 l 32 665 l 32 704 l 139 704 l 139 738 q 169 878 139 811 q 267 986 199 944 q 447 1028 335 1028 q 558 1009 510 1028 q 640 958 607 990 q 717 1019 669 996 q 836 1042 765 1042 q 976 1013 921 1042 q 1055 935 1031 983 q 1069 829 1079 886 l 917 807 q 909 952 931 911 q 836 993 888 993 q 788 978 808 993 q 758 923 768 963 q 747 807 747 883 l 747 704 l 956 704 l 956 656 l 747 656 l 747 117 q 751 60 747 69 q 778 49 756 51 l 882 39 m 299 765 l 299 704 l 588 704 l 588 765 q 553 935 588 890 q 447 979 518 979 q 371 962 404 979 q 318 899 338 944 q 299 765 299 853 z "},"ﬃ":{"ha":1325,"x_min":32,"x_max":1303,"o":"m 854 39 l 854 0 l 481 0 l 481 39 l 557 49 q 583 60 579 51 q 588 117 588 69 l 588 656 l 299 656 l 299 117 q 303 60 299 69 q 329 49 307 51 l 406 39 l 406 0 l 32 0 l 32 39 l 108 49 q 135 60 131 51 q 139 117 139 69 l 139 588 q 135 644 139 635 q 108 656 131 653 l 32 665 l 32 704 l 139 704 l 139 738 q 169 878 139 811 q 267 986 199 944 q 447 1028 335 1028 q 567 1006 515 1028 q 651 947 618 983 q 747 1016 688 990 q 896 1042 807 1042 q 1060 1012 993 1042 q 1158 934 1126 982 q 1181 829 1190 886 l 1028 807 q 1006 949 1043 906 q 896 993 969 993 q 817 974 851 993 q 765 909 783 956 q 747 779 747 863 l 747 704 l 1196 704 l 1196 117 q 1200 60 1196 69 q 1226 49 1204 51 l 1303 39 l 1303 0 l 929 0 l 929 39 l 1006 49 q 1032 60 1028 51 q 1036 117 1036 69 l 1036 656 l 747 656 l 747 117 q 751 60 747 69 q 778 49 756 51 l 854 39 m 299 704 l 588 704 l 588 765 q 553 935 588 890 q 447 979 518 979 q 371 962 404 979 q 318 899 338 944 q 299 765 299 853 l 299 704 z "},"ﬄ":{"ha":1325,"x_min":32,"x_max":1303,"o":"m 854 39 l 854 0 l 481 0 l 481 39 l 557 49 q 583 60 579 51 q 588 117 588 69 l 588 656 l 299 656 l 299 117 q 303 60 299 69 q 329 49 307 51 l 406 39 l 406 0 l 32 0 l 32 39 l 108 49 q 135 60 131 51 q 139 117 139 69 l 139 588 q 135 644 139 635 q 108 656 131 653 l 32 665 l 32 704 l 139 704 l 139 738 q 169 878 139 811 q 267 986 199 944 q 447 1028 335 1028 q 567 1006 517 1028 q 653 947 618 983 q 749 1016 689 990 q 896 1042 808 1042 q 1001 1027 954 1042 q 1083 986 1049 1013 q 1158 1028 1125 1006 l 1196 1028 l 1196 117 q 1200 60 1196 69 q 1226 49 1204 51 l 1303 39 l 1303 0 l 929 0 l 929 39 l 1006 49 q 1032 60 1028 51 q 1036 117 1036 69 l 1036 819 q 999 957 1036 921 q 896 993 961 993 q 819 976 853 993 q 767 913 786 958 q 747 779 747 867 l 747 704 l 926 704 l 926 656 l 747 656 l 747 117 q 751 60 747 69 q 778 49 756 51 l 854 39 m 299 704 l 588 704 l 588 765 q 553 935 588 890 q 447 979 518 979 q 371 962 404 979 q 318 899 338 944 q 299 765 299 853 l 299 704 z "},"ﬁ":{"ha":876,"x_min":32,"x_max":854,"o":"m 854 39 l 854 0 l 481 0 l 481 39 l 557 49 q 583 60 579 51 q 588 117 588 69 l 588 656 l 299 656 l 299 117 q 303 60 299 69 q 329 49 307 51 l 406 39 l 406 0 l 32 0 l 32 39 l 108 49 q 135 60 131 51 q 139 117 139 69 l 139 588 q 135 644 139 635 q 108 656 131 653 l 32 665 l 32 704 l 139 704 l 139 751 q 168 892 139 825 q 265 1000 197 958 q 447 1042 332 1042 q 611 1012 544 1042 q 710 934 678 982 q 732 829 742 886 l 579 807 q 558 949 594 906 q 447 993 521 993 q 369 974 403 993 q 317 909 335 956 q 299 779 299 863 l 299 704 l 747 704 l 747 117 q 751 60 747 69 q 778 49 756 51 l 854 39 z "},"ﬂ":{"ha":876,"x_min":32,"x_max":854,"o":"m 854 39 l 854 0 l 481 0 l 481 39 l 557 49 q 583 60 579 51 q 588 117 588 69 l 588 819 q 550 957 588 921 q 447 993 513 993 q 371 976 404 993 q 318 913 338 958 q 299 779 299 867 l 299 704 l 507 704 l 507 656 l 299 656 l 299 117 q 303 60 299 69 q 329 49 307 51 l 406 39 l 406 0 l 32 0 l 32 39 l 108 49 q 135 60 131 51 q 139 117 139 69 l 139 588 q 135 644 139 635 q 108 656 131 653 l 32 665 l 32 704 l 139 704 l 139 751 q 169 892 139 825 q 267 1000 199 958 q 447 1042 335 1042 q 553 1027 506 1042 q 635 986 600 1013 q 710 1028 676 1006 l 747 1028 l 747 117 q 751 60 747 69 q 778 49 756 51 l 854 39 z "},"ª":{"ha":519,"x_min":63,"x_max":504,"o":"m 429 471 q 335 526 356 471 q 267 480 303 494 q 196 465 232 465 q 95 503 128 465 q 63 592 63 540 q 101 681 63 649 q 233 713 140 713 l 329 713 l 329 789 q 306 889 329 864 q 243 914 283 914 q 199 904 218 914 q 170 867 179 894 q 167 788 161 840 l 85 797 q 120 908 79 864 q 244 951 161 951 q 348 928 311 951 q 399 869 385 906 q 414 789 414 832 l 414 578 q 424 519 414 529 q 447 508 435 508 q 466 512 456 508 q 488 525 476 515 l 504 499 q 472 478 490 486 q 429 471 454 471 m 217 508 q 267 520 239 508 q 329 568 294 532 l 329 675 l 240 675 q 172 657 193 675 q 150 597 150 639 q 217 508 150 508 z "},"º":{"ha":544,"x_min":65,"x_max":479,"o":"m 479 718 l 479 700 q 425 529 479 593 q 272 465 371 465 q 119 529 174 465 q 65 700 65 593 l 65 718 q 119 888 65 825 q 272 951 174 951 q 425 888 371 951 q 479 718 479 825 m 385 738 q 357 874 385 835 q 272 914 329 914 q 188 874 215 914 q 160 738 160 835 l 160 681 q 188 543 160 583 q 272 503 215 503 q 357 543 329 503 q 385 681 385 583 l 385 738 z "},"π":{"ha":854,"x_min":24,"x_max":831,"o":"m 24 665 l 24 704 l 831 704 l 831 656 l 707 656 l 707 149 q 719 60 707 78 q 749 42 731 42 q 776 47 761 42 q 804 64 790 51 l 828 26 q 710 -14 783 -14 q 590 34 632 -14 q 547 171 547 82 l 547 656 l 290 656 l 290 0 l 131 0 l 131 588 q 126 644 131 635 q 100 656 122 653 l 24 665 z "},"₀":{"ha":468,"x_min":46,"x_max":422,"o":"m 422 113 l 422 69 q 373 -92 422 -32 q 233 -153 324 -153 q 94 -92 143 -153 q 46 69 46 -32 l 46 113 q 94 273 46 213 q 233 333 143 333 q 373 273 324 333 q 422 113 422 213 m 308 161 q 289 265 308 233 q 233 296 269 296 q 178 265 197 296 q 158 161 158 233 l 158 21 q 178 -83 158 -51 q 233 -114 197 -114 q 289 -83 269 -114 q 308 21 308 -51 l 308 161 z "},"₁":{"ha":333,"x_min":49,"x_max":286,"o":"m 49 265 l 144 326 l 232 326 l 232 -74 q 235 -101 232 -96 q 247 -107 238 -106 l 286 -112 l 286 -146 l 61 -146 l 61 -112 l 113 -107 q 126 -101 124 -106 q 128 -74 128 -96 l 128 271 l 69 233 l 49 265 z "},"₂":{"ha":415,"x_min":28,"x_max":360,"o":"m 318 22 l 351 22 l 351 -146 l 39 -146 l 39 -97 q 69 3 39 -31 q 139 63 100 38 q 190 96 165 79 q 232 138 215 113 q 249 204 249 164 q 196 296 249 296 q 142 175 129 296 l 38 186 q 67 288 28 243 q 196 333 106 333 q 322 292 285 333 q 360 197 360 250 q 340 127 360 154 q 290 83 321 100 q 224 54 258 67 q 158 26 189 42 q 113 -8 132 13 q 88 -60 94 -28 l 269 -60 q 299 -57 293 -60 q 307 -42 306 -54 l 318 22 z "},"₃":{"ha":407,"x_min":21,"x_max":357,"o":"m 161 82 l 128 82 l 128 113 l 161 113 q 224 141 206 113 q 242 213 242 169 q 188 303 242 303 q 141 271 154 303 q 135 179 128 239 l 31 190 q 58 290 21 246 q 188 333 96 333 q 314 297 275 333 q 353 213 353 261 q 261 97 353 125 q 357 -28 357 69 q 314 -116 357 -79 q 185 -153 271 -153 q 85 -131 129 -153 q 31 -43 42 -108 l 81 -29 q 114 -102 88 -83 q 171 -121 140 -121 q 228 -98 211 -121 q 246 -28 246 -75 q 226 51 246 21 q 161 82 207 82 z "},"₄":{"ha":376,"x_min":6,"x_max":358,"o":"m 201 -79 l 201 -24 l 6 -24 l 6 8 q 80 103 51 57 q 127 203 108 150 q 161 326 146 257 l 282 326 q 187 159 251 232 q 46 8 122 86 l 201 8 l 201 107 l 306 119 l 306 8 l 358 8 l 358 -24 l 306 -24 l 306 -79 q 308 -106 306 -101 q 321 -112 310 -110 l 358 -118 l 358 -146 l 133 -146 l 133 -118 l 186 -112 q 199 -106 197 -111 q 201 -79 201 -101 z "},"₅":{"ha":390,"x_min":40,"x_max":353,"o":"m 310 388 l 329 388 l 329 240 l 89 240 l 82 119 q 178 149 122 149 q 304 109 256 149 q 353 1 353 69 q 313 -106 353 -60 q 181 -153 274 -153 q 92 -129 131 -153 q 40 -56 54 -106 l 89 -37 q 117 -101 99 -82 q 163 -119 135 -119 q 223 -91 204 -119 q 242 1 242 -62 q 226 83 242 51 q 165 115 210 115 q 121 107 144 115 q 72 76 97 99 l 56 88 l 69 326 l 264 326 q 294 329 289 326 q 301 344 300 332 l 310 388 z "},"₆":{"ha":446,"x_min":54,"x_max":401,"o":"m 401 -8 q 355 -114 401 -75 q 231 -153 308 -153 q 100 -96 146 -153 q 54 67 54 -39 l 54 110 q 101 279 54 225 q 229 333 147 333 q 357 294 314 333 q 392 204 400 256 l 288 193 q 231 303 299 303 q 180 274 199 303 q 161 150 161 244 l 161 104 q 201 131 179 124 q 251 138 224 138 q 359 99 317 138 q 401 -1 401 61 l 401 -8 m 161 24 q 180 -90 161 -58 q 233 -121 199 -121 q 276 -97 260 -121 q 292 -12 292 -72 l 292 -6 q 278 72 292 43 q 228 100 264 100 q 193 92 210 100 q 161 58 176 83 l 161 24 z "},"₇":{"ha":397,"x_min":54,"x_max":358,"o":"m 88 160 l 54 160 l 54 326 l 358 326 l 358 247 q 294 142 319 196 q 256 20 269 89 q 239 -146 243 -49 l 117 -146 q 148 -23 126 -81 q 211 98 169 35 q 319 240 253 161 l 136 240 q 107 238 113 240 q 99 222 101 235 l 88 160 z "},"₈":{"ha":444,"x_min":60,"x_max":388,"o":"m 388 -18 q 347 -114 388 -75 q 228 -153 307 -153 q 101 -118 142 -153 q 60 -36 60 -83 q 85 31 60 1 q 154 83 110 61 q 90 137 114 107 q 67 210 67 167 q 106 297 67 261 q 218 333 146 333 q 333 301 290 333 q 375 222 375 269 q 353 167 375 192 q 292 124 332 143 q 362 66 336 99 q 388 -18 388 33 m 219 158 l 251 143 q 272 178 267 158 q 278 219 278 197 q 261 277 278 258 q 217 296 244 296 q 158 236 158 296 q 174 190 158 208 q 219 158 190 172 m 157 -35 q 174 -92 157 -69 q 228 -114 192 -114 q 278 -96 260 -114 q 296 -47 296 -78 q 232 43 296 11 l 192 63 q 157 -35 157 28 z "},"₉":{"ha":418,"x_min":31,"x_max":376,"o":"m 376 71 q 325 -98 376 -43 q 188 -153 274 -153 q 94 -128 132 -153 q 40 -56 56 -104 l 88 -35 q 126 -101 99 -82 q 183 -121 153 -121 q 226 -109 207 -121 q 256 -64 244 -97 q 268 31 268 -31 l 268 58 q 228 33 250 40 q 181 26 206 26 q 72 66 114 26 q 31 172 31 106 l 31 189 q 76 294 31 256 q 196 333 121 333 q 330 277 283 333 q 376 115 376 221 l 376 71 m 139 175 q 153 94 139 124 q 204 64 167 64 q 238 72 221 64 q 268 103 254 81 l 268 156 q 250 272 268 240 q 197 303 232 303 q 155 278 171 303 q 139 196 139 254 l 139 175 z "},"⁰":{"ha":468,"x_min":46,"x_max":422,"o":"m 422 876 l 422 833 q 373 672 422 732 q 233 611 324 611 q 94 672 143 611 q 46 833 46 732 l 46 876 q 94 1037 46 976 q 233 1097 143 1097 q 373 1037 324 1097 q 422 876 422 976 m 308 925 q 289 1028 308 997 q 233 1060 269 1060 q 178 1028 197 1060 q 158 925 158 997 l 158 785 q 178 681 158 713 q 233 650 197 650 q 289 681 269 650 q 308 785 308 713 l 308 925 z "},"¹":{"ha":333,"x_min":49,"x_max":286,"o":"m 49 1029 l 144 1090 l 232 1090 l 232 690 q 235 663 232 668 q 247 657 238 658 l 286 651 l 286 618 l 61 618 l 61 651 l 113 657 q 126 663 124 658 q 128 690 128 668 l 128 1035 l 69 997 l 49 1029 z "},"²":{"ha":415,"x_min":28,"x_max":360,"o":"m 318 786 l 351 786 l 351 618 l 39 618 l 39 667 q 69 767 39 733 q 139 826 100 801 q 190 860 165 843 q 232 902 215 876 q 249 968 249 928 q 196 1060 249 1060 q 142 939 129 1060 l 38 950 q 67 1052 28 1007 q 196 1097 106 1097 q 322 1056 285 1097 q 360 961 360 1014 q 340 891 360 918 q 290 847 321 864 q 224 818 258 831 q 158 790 189 806 q 113 756 132 776 q 88 704 94 736 l 269 704 q 299 707 293 704 q 307 722 306 710 l 318 786 z "},"³":{"ha":407,"x_min":21,"x_max":357,"o":"m 161 846 l 128 846 l 128 876 l 161 876 q 224 905 206 876 q 242 976 242 933 q 188 1067 242 1067 q 141 1035 154 1067 q 135 943 128 1003 l 31 954 q 58 1053 21 1010 q 188 1097 96 1097 q 314 1061 275 1097 q 353 976 353 1025 q 261 861 353 889 q 357 736 357 833 q 314 648 357 685 q 185 611 271 611 q 85 633 129 611 q 31 721 42 656 l 81 735 q 114 662 88 681 q 171 643 140 643 q 228 666 211 643 q 246 736 246 689 q 226 815 246 785 q 161 846 207 846 z "},"⁴":{"ha":376,"x_min":6,"x_max":358,"o":"m 201 685 l 201 740 l 6 740 l 6 772 q 80 867 51 821 q 127 967 108 914 q 161 1090 146 1021 l 282 1090 q 187 923 251 996 q 46 772 122 850 l 201 772 l 201 871 l 306 883 l 306 772 l 358 772 l 358 740 l 306 740 l 306 685 q 308 658 306 663 q 321 651 310 654 l 358 646 l 358 618 l 133 618 l 133 646 l 186 651 q 199 658 197 653 q 201 685 201 663 z "},"⁵":{"ha":390,"x_min":40,"x_max":353,"o":"m 310 1151 l 329 1151 l 329 1004 l 89 1004 l 82 883 q 178 913 122 913 q 304 873 256 913 q 353 765 353 833 q 313 658 353 704 q 181 611 274 611 q 92 635 131 611 q 40 708 54 658 l 89 726 q 117 663 99 682 q 163 644 135 644 q 223 673 204 644 q 242 765 242 701 q 226 847 242 815 q 165 879 210 879 q 121 871 144 879 q 72 840 97 863 l 56 851 l 69 1090 l 264 1090 q 294 1093 289 1090 q 301 1108 300 1096 l 310 1151 z "},"⁶":{"ha":446,"x_min":54,"x_max":401,"o":"m 401 756 q 355 650 401 689 q 231 611 308 611 q 100 668 146 611 q 54 831 54 725 l 54 874 q 101 1043 54 989 q 229 1097 147 1097 q 357 1058 314 1097 q 392 968 400 1019 l 288 957 q 231 1067 299 1067 q 180 1038 199 1067 q 161 914 161 1008 l 161 868 q 201 894 179 888 q 251 901 224 901 q 359 863 317 901 q 401 763 401 825 l 401 756 m 161 788 q 180 674 161 706 q 233 643 199 643 q 276 667 260 643 q 292 751 292 692 l 292 758 q 278 835 292 807 q 228 864 264 864 q 193 856 210 864 q 161 822 176 847 l 161 788 z "},"⁷":{"ha":397,"x_min":54,"x_max":358,"o":"m 88 924 l 54 924 l 54 1090 l 358 1090 l 358 1011 q 294 906 319 960 q 256 784 269 853 q 239 618 243 715 l 117 618 q 148 741 126 683 q 211 862 169 799 q 319 1004 253 925 l 136 1004 q 107 1001 113 1004 q 99 986 101 999 l 88 924 z "},"⁸":{"ha":444,"x_min":60,"x_max":388,"o":"m 388 746 q 347 650 388 689 q 228 611 307 611 q 101 646 142 611 q 60 728 60 681 q 85 795 60 765 q 154 847 110 825 q 90 901 114 871 q 67 974 67 931 q 106 1061 67 1025 q 218 1097 146 1097 q 333 1065 290 1097 q 375 986 375 1033 q 353 931 375 956 q 292 888 332 907 q 362 830 336 863 q 388 746 388 797 m 219 922 l 251 907 q 272 942 267 922 q 278 983 278 961 q 261 1041 278 1022 q 217 1060 244 1060 q 158 1000 158 1060 q 174 954 158 972 q 219 922 190 936 m 157 729 q 174 672 157 694 q 228 650 192 650 q 278 668 260 650 q 296 717 296 686 q 232 807 296 775 l 192 826 q 157 729 157 792 z "},"⁹":{"ha":418,"x_min":31,"x_max":376,"o":"m 376 835 q 325 666 376 721 q 188 611 274 611 q 94 635 132 611 q 40 708 56 660 l 88 729 q 126 663 99 682 q 183 643 153 643 q 226 655 207 643 q 256 700 244 667 q 268 794 268 733 l 268 822 q 228 797 250 804 q 181 790 206 790 q 72 830 114 790 q 31 936 31 869 l 31 953 q 76 1058 31 1019 q 196 1097 121 1097 q 330 1041 283 1097 q 376 879 376 985 l 376 835 m 139 939 q 153 858 139 888 q 204 828 167 828 q 238 836 221 828 q 268 867 254 844 l 268 919 q 250 1035 268 1004 q 197 1067 232 1067 q 155 1042 171 1067 q 139 960 139 1018 l 139 939 z "},"⁄":{"ha":71,"x_min":-244,"x_max":317,"o":"m 276 944 l 317 921 l -204 0 l -244 24 l 276 944 z "},"½":{"ha":847,"x_min":49,"x_max":792,"o":"m 49 883 l 144 944 l 232 944 l 232 544 q 235 517 232 522 q 247 511 238 513 l 286 506 l 286 472 l 61 472 l 61 506 l 113 511 q 126 517 124 513 q 128 544 128 522 l 128 889 l 69 851 l 49 883 m 638 944 l 678 921 l 157 0 l 117 24 l 638 944 m 750 168 l 783 168 l 783 0 l 471 0 l 471 49 q 501 149 471 115 q 571 208 532 183 q 622 242 597 225 q 664 284 647 258 q 681 350 681 310 q 628 442 681 442 q 574 321 561 442 l 469 332 q 499 434 460 389 q 628 479 538 479 q 754 438 717 479 q 792 343 792 396 q 772 273 792 300 q 722 229 753 246 q 656 200 690 213 q 590 172 621 188 q 545 138 564 158 q 519 86 526 118 l 701 86 q 731 89 725 86 q 739 104 738 92 l 750 168 z "},"⅓":{"ha":839,"x_min":49,"x_max":789,"o":"m 49 883 l 144 944 l 232 944 l 232 544 q 235 517 232 522 q 247 511 238 513 l 286 506 l 286 472 l 61 472 l 61 506 l 113 511 q 126 517 124 513 q 128 544 128 522 l 128 889 l 69 851 l 49 883 m 638 944 l 678 921 l 157 0 l 117 24 l 638 944 m 593 228 l 560 228 l 560 258 l 593 258 q 656 287 638 258 q 674 358 674 315 q 619 449 674 449 q 573 417 586 449 q 567 325 560 385 l 463 336 q 490 435 453 392 q 619 479 528 479 q 746 443 707 479 q 785 358 785 407 q 693 243 785 271 q 789 118 789 215 q 746 30 789 67 q 617 -7 703 -7 q 517 15 561 -7 q 463 103 474 38 l 513 117 q 546 44 519 63 q 603 25 572 25 q 660 48 643 25 q 678 118 678 71 q 658 197 678 167 q 593 228 639 228 z "},"⅔":{"ha":893,"x_min":28,"x_max":843,"o":"m 318 640 l 351 640 l 351 472 l 39 472 l 39 521 q 69 622 39 588 q 139 681 100 656 q 190 714 165 697 q 232 756 215 731 q 249 822 249 782 q 196 914 249 914 q 142 793 129 914 l 38 804 q 67 906 28 861 q 196 951 106 951 q 322 910 285 951 q 360 815 360 868 q 340 745 360 772 q 290 701 321 718 q 224 672 258 685 q 158 644 189 660 q 113 610 132 631 q 88 558 94 590 l 269 558 q 299 561 293 558 q 307 576 306 564 l 318 640 m 692 944 l 732 921 l 211 0 l 171 24 l 692 944 m 647 228 l 614 228 l 614 258 l 647 258 q 710 287 692 258 q 728 358 728 315 q 674 449 728 449 q 627 417 640 449 q 621 325 614 385 l 517 336 q 544 435 507 392 q 674 479 582 479 q 800 443 761 479 q 839 358 839 407 q 747 243 839 271 q 843 118 843 215 q 800 30 843 67 q 671 -7 757 -7 q 572 15 615 -7 q 517 103 528 38 l 567 117 q 600 44 574 63 q 657 25 626 25 q 715 48 697 25 q 732 118 732 71 q 713 197 732 167 q 647 228 693 228 z "},"¼":{"ha":794,"x_min":49,"x_max":790,"o":"m 49 883 l 144 944 l 232 944 l 232 544 q 235 517 232 522 q 247 511 238 513 l 286 506 l 286 472 l 61 472 l 61 506 l 113 511 q 126 517 124 513 q 128 544 128 522 l 128 889 l 69 851 l 49 883 m 638 944 l 678 921 l 157 0 l 117 24 l 638 944 m 633 67 l 633 122 l 438 122 l 438 154 q 512 249 483 203 q 559 349 540 296 q 593 472 578 403 l 714 472 q 619 305 683 378 q 478 154 554 232 l 633 154 l 633 253 l 738 265 l 738 154 l 790 154 l 790 122 l 738 122 l 738 67 q 740 40 738 44 q 753 33 742 36 l 790 28 l 790 0 l 565 0 l 565 28 l 618 33 q 631 40 629 35 q 633 67 633 44 z "},"¾":{"ha":840,"x_min":21,"x_max":836,"o":"m 161 700 l 128 700 l 128 731 l 161 731 q 224 759 206 731 q 242 831 242 788 q 188 921 242 921 q 141 889 154 921 q 135 797 128 857 l 31 808 q 58 908 21 864 q 188 951 96 951 q 314 915 275 951 q 353 831 353 879 q 261 715 353 743 q 357 590 357 688 q 314 502 357 539 q 185 465 271 465 q 85 488 129 465 q 31 575 42 510 l 81 589 q 114 516 88 535 q 171 497 140 497 q 228 520 211 497 q 246 590 246 543 q 226 669 246 639 q 161 700 207 700 m 683 944 l 724 921 l 203 0 l 163 24 l 683 944 m 679 67 l 679 122 l 483 122 l 483 154 q 558 249 529 203 q 605 349 586 296 q 639 472 624 403 l 760 472 q 665 305 729 378 q 524 154 600 232 l 679 154 l 679 253 l 783 265 l 783 154 l 836 154 l 836 122 l 783 122 l 783 67 q 785 40 783 44 q 799 33 788 36 l 836 28 l 836 0 l 611 0 l 611 28 l 664 33 q 677 40 675 35 q 679 67 679 44 z "},"⅛":{"ha":876,"x_min":49,"x_max":819,"o":"m 49 883 l 144 944 l 232 944 l 232 544 q 235 517 232 522 q 247 511 238 513 l 286 506 l 286 472 l 61 472 l 61 506 l 113 511 q 126 517 124 513 q 128 544 128 522 l 128 889 l 69 851 l 49 883 m 638 944 l 678 921 l 157 0 l 117 24 l 638 944 m 819 128 q 779 32 819 71 q 660 -7 739 -7 q 533 28 574 -7 q 492 110 492 63 q 517 177 492 147 q 586 229 542 207 q 522 283 546 253 q 499 356 499 313 q 538 443 499 407 q 650 479 578 479 q 765 447 722 479 q 807 368 807 415 q 785 313 807 338 q 724 269 764 289 q 794 212 768 244 q 819 128 819 179 m 651 304 l 683 289 q 704 324 699 304 q 710 365 710 343 q 693 423 710 404 q 649 442 676 442 q 590 382 590 442 q 606 336 590 354 q 651 304 622 318 m 589 111 q 606 54 589 76 q 660 32 624 32 q 710 50 692 32 q 728 99 728 68 q 664 189 728 157 l 624 208 q 589 111 589 174 z "},"⅜":{"ha":922,"x_min":21,"x_max":865,"o":"m 161 700 l 128 700 l 128 731 l 161 731 q 224 759 206 731 q 242 831 242 788 q 188 921 242 921 q 141 889 154 921 q 135 797 128 857 l 31 808 q 58 908 21 864 q 188 951 96 951 q 314 915 275 951 q 353 831 353 879 q 261 715 353 743 q 357 590 357 688 q 314 502 357 539 q 185 465 271 465 q 85 488 129 465 q 31 575 42 510 l 81 589 q 114 516 88 535 q 171 497 140 497 q 228 520 211 497 q 246 590 246 543 q 226 669 246 639 q 161 700 207 700 m 683 944 l 724 921 l 203 0 l 163 24 l 683 944 m 865 128 q 825 32 865 71 q 706 -7 785 -7 q 578 28 619 -7 q 538 110 538 63 q 563 177 538 147 q 632 229 588 207 q 568 283 592 253 q 544 356 544 313 q 584 443 544 407 q 696 479 624 479 q 810 447 768 479 q 853 368 853 415 q 831 313 853 338 q 769 269 810 289 q 840 212 814 244 q 865 128 865 179 m 697 304 l 729 289 q 750 324 744 304 q 756 365 756 343 q 739 423 756 404 q 694 442 722 442 q 636 382 636 442 q 652 336 636 354 q 697 304 668 318 m 635 111 q 652 54 635 76 q 706 32 669 32 q 756 50 738 32 q 774 99 774 68 q 710 189 774 157 l 669 208 q 635 111 635 174 z "},"⅝":{"ha":906,"x_min":40,"x_max":849,"o":"m 310 1006 l 329 1006 l 329 858 l 89 858 l 82 738 q 178 767 122 767 q 304 727 256 767 q 353 619 353 688 q 313 512 353 558 q 181 465 274 465 q 92 489 131 465 q 40 563 54 513 l 89 581 q 117 517 99 536 q 163 499 135 499 q 223 527 204 499 q 242 619 242 556 q 226 701 242 669 q 165 733 210 733 q 121 725 144 733 q 72 694 97 717 l 56 706 l 69 944 l 264 944 q 294 947 289 944 q 301 963 300 950 l 310 1006 m 667 944 l 707 921 l 186 0 l 146 24 l 667 944 m 849 128 q 808 32 849 71 q 689 -7 768 -7 q 562 28 603 -7 q 521 110 521 63 q 546 177 521 147 q 615 229 571 207 q 551 283 575 253 q 528 356 528 313 q 567 443 528 407 q 679 479 607 479 q 794 447 751 479 q 836 368 836 415 q 815 313 836 338 q 753 269 793 289 q 823 212 797 244 q 849 128 849 179 m 681 304 l 713 289 q 733 324 728 304 q 739 365 739 343 q 722 423 739 404 q 678 442 706 442 q 619 382 619 442 q 635 336 619 354 q 681 304 651 318 m 618 111 q 635 54 618 76 q 689 32 653 32 q 739 50 721 32 q 757 99 757 68 q 693 189 757 157 l 653 208 q 618 111 618 174 z "},"⅞":{"ha":913,"x_min":54,"x_max":856,"o":"m 88 778 l 54 778 l 54 944 l 358 944 l 358 865 q 294 760 319 814 q 256 638 269 707 q 239 472 243 569 l 117 472 q 148 595 126 538 q 211 716 169 653 q 319 858 253 779 l 136 858 q 107 856 113 858 q 99 840 101 853 l 88 778 m 674 944 l 714 921 l 193 0 l 153 24 l 674 944 m 856 128 q 815 32 856 71 q 696 -7 775 -7 q 569 28 610 -7 q 528 110 528 63 q 553 177 528 147 q 622 229 578 207 q 558 283 582 253 q 535 356 535 313 q 574 443 535 407 q 686 479 614 479 q 801 447 758 479 q 843 368 843 415 q 822 313 843 338 q 760 269 800 289 q 830 212 804 244 q 856 128 856 179 m 688 304 l 719 289 q 740 324 735 304 q 746 365 746 343 q 729 423 746 404 q 685 442 713 442 q 626 382 626 442 q 642 336 626 354 q 688 304 658 318 m 625 111 q 642 54 625 76 q 696 32 660 32 q 746 50 728 32 q 764 99 764 68 q 700 189 764 157 l 660 208 q 625 111 625 174 z "},".":{"ha":354,"x_min":79,"x_max":275,"o":"m 176 -14 q 106 13 133 -14 q 79 85 79 40 q 106 156 79 129 q 176 182 133 182 q 247 156 219 182 q 275 85 275 129 q 247 13 275 40 q 176 -14 219 -14 z "},",":{"ha":354,"x_min":76,"x_max":272,"o":"m 272 61 q 229 -82 272 1 q 108 -258 186 -165 l 76 -231 q 157 -109 133 -161 q 182 -14 181 -57 l 178 -14 q 110 12 136 -14 q 85 81 85 38 q 110 148 85 122 q 178 174 136 174 q 245 144 218 174 q 272 61 272 115 z "},":":{"ha":354,"x_min":79,"x_max":275,"o":"m 176 522 q 106 549 133 522 q 79 621 79 576 q 106 692 79 665 q 176 718 133 718 q 247 692 219 718 q 275 621 275 665 q 247 549 275 576 q 176 522 219 522 m 176 -14 q 106 13 133 -14 q 79 85 79 40 q 106 156 79 129 q 176 182 133 182 q 247 156 219 182 q 275 85 275 129 q 247 13 275 40 q 176 -14 219 -14 z "},";":{"ha":354,"x_min":76,"x_max":275,"o":"m 176 522 q 106 549 133 522 q 79 621 79 576 q 106 692 79 665 q 176 718 133 718 q 247 692 219 718 q 275 621 275 665 q 247 549 275 576 q 176 522 219 522 m 272 61 q 229 -82 272 1 q 108 -258 186 -165 l 76 -231 q 157 -109 133 -161 q 182 -14 181 -57 l 178 -14 q 110 12 136 -14 q 85 81 85 38 q 110 148 85 122 q 178 174 136 174 q 245 144 218 174 q 272 61 272 115 z "},"…":{"ha":910,"x_min":79,"x_max":831,"o":"m 176 -14 q 106 13 133 -14 q 79 85 79 40 q 106 156 79 129 q 176 182 133 182 q 247 156 219 182 q 275 85 275 129 q 247 13 275 40 q 176 -14 219 -14 m 454 -14 q 384 13 411 -14 q 357 85 357 40 q 384 156 357 129 q 454 182 411 182 q 525 156 497 182 q 553 85 553 129 q 525 13 553 40 q 454 -14 497 -14 m 732 -14 q 662 13 689 -14 q 635 85 635 40 q 662 156 635 129 q 732 182 689 182 q 803 156 775 182 q 831 85 831 129 q 803 13 831 40 q 732 -14 775 -14 z "},"!":{"ha":354,"x_min":79,"x_max":275,"o":"m 201 281 l 153 281 q 147 446 153 375 q 133 574 142 517 q 117 686 125 632 q 103 802 108 740 q 97 944 97 864 l 257 944 q 251 802 257 864 q 238 686 246 740 q 221 574 229 632 q 207 446 213 517 q 201 281 201 375 m 176 -14 q 106 13 133 -14 q 79 85 79 40 q 106 156 79 129 q 176 182 133 182 q 247 156 219 182 q 275 85 275 129 q 247 13 275 40 q 176 -14 219 -14 z "},"¡":{"ha":354,"x_min":79,"x_max":275,"o":"m 178 718 q 249 691 222 718 q 275 619 275 664 q 249 549 275 576 q 178 522 222 522 q 107 549 135 522 q 79 619 79 576 q 107 691 79 664 q 178 718 135 718 m 153 424 l 201 424 q 207 258 201 329 q 221 130 213 188 q 238 18 229 72 q 251 -98 246 -36 q 257 -240 257 -160 l 97 -240 q 103 -98 97 -160 q 117 18 108 -36 q 133 130 125 72 q 147 258 142 188 q 153 424 153 329 z "},"?":{"ha":683,"x_min":43,"x_max":631,"o":"m 364 281 l 293 281 l 293 303 q 310 401 293 364 q 351 464 326 438 q 399 519 375 490 q 440 591 424 547 q 457 707 457 635 q 426 858 457 806 q 335 910 394 910 q 231 842 260 910 q 217 649 203 774 l 57 671 q 69 811 43 746 q 161 917 94 876 q 336 958 228 958 q 505 924 440 958 q 600 836 569 890 q 631 721 631 782 q 610 620 631 661 q 556 551 589 579 q 488 499 524 522 q 420 449 451 475 q 372 390 389 424 q 361 304 356 356 l 364 281 m 326 -14 q 256 13 283 -14 q 229 85 229 40 q 256 156 229 129 q 326 182 283 182 q 397 156 369 182 q 425 85 425 129 q 397 13 425 40 q 326 -14 369 -14 z "},"¿":{"ha":683,"x_min":57,"x_max":644,"o":"m 361 718 q 432 691 406 718 q 458 619 458 664 q 432 549 458 576 q 361 522 406 522 q 290 549 318 522 q 263 619 263 576 q 290 691 263 664 q 361 718 318 718 m 324 424 l 394 424 l 394 401 q 378 303 394 340 q 337 240 361 267 q 288 185 313 214 q 247 113 264 157 q 231 -3 231 69 q 262 -153 231 -101 q 353 -206 293 -206 q 456 -137 428 -206 q 471 56 485 -69 l 631 33 q 619 -106 644 -40 q 527 -213 593 -172 q 351 -254 461 -254 q 182 -220 247 -254 q 87 -131 117 -186 q 57 -17 57 -76 q 78 84 57 43 q 131 153 99 125 q 200 206 164 182 q 267 255 236 229 q 315 315 299 281 q 326 400 332 349 l 324 424 z "},"·":{"ha":694,"x_min":251,"x_max":444,"o":"m 347 438 q 278 465 304 438 q 251 535 251 492 q 278 604 251 578 q 347 631 304 631 q 417 604 389 631 q 444 535 444 578 q 417 465 444 492 q 347 438 389 438 z "},"•":{"ha":367,"x_min":54,"x_max":313,"o":"m 183 333 q 91 370 128 333 q 54 464 54 407 q 91 556 54 519 q 183 592 128 592 q 276 556 240 592 q 313 464 313 519 q 276 370 313 407 q 183 333 240 333 z "},"*":{"ha":625,"x_min":26,"x_max":599,"o":"m 529 478 l 422 400 q 389 458 399 432 q 372 508 379 483 q 353 561 365 532 q 311 631 340 590 q 269 563 282 592 q 251 509 257 533 q 235 459 244 485 q 201 401 225 433 l 94 479 q 139 528 118 511 q 181 560 160 546 q 227 594 203 574 q 281 656 251 615 q 201 674 233 671 q 144 675 169 676 q 92 675 119 674 q 26 689 65 676 l 68 815 q 128 788 106 803 q 171 758 151 774 q 218 725 190 742 q 293 693 246 708 q 286 774 293 743 q 270 829 279 806 q 254 879 261 853 q 247 944 247 906 l 379 944 q 372 878 379 904 q 356 828 365 851 q 340 773 347 804 q 333 692 333 742 q 408 724 381 707 q 454 756 435 740 q 497 787 474 772 q 558 814 519 801 l 599 688 q 534 674 561 675 q 481 674 507 672 q 424 672 456 675 q 344 654 392 669 q 397 593 374 614 q 442 558 421 572 q 485 527 464 544 q 529 478 506 510 z "},"#":{"ha":886,"x_min":28,"x_max":858,"o":"m 763 292 l 597 292 l 503 -14 l 453 1 l 542 292 l 233 292 l 139 -14 l 89 1 l 178 292 l 28 292 l 28 340 l 193 340 l 275 604 l 124 604 l 124 653 l 289 653 l 383 958 l 433 943 l 344 653 l 653 653 l 747 958 l 797 943 l 708 653 l 858 653 l 858 604 l 693 604 l 611 340 l 763 340 l 763 292 m 247 340 l 557 340 l 639 604 l 329 604 l 247 340 z "},"/":{"ha":518,"x_min":-31,"x_max":504,"o":"m 450 1028 l 504 1007 l 24 -199 l -31 -178 l 450 1028 z "},"\\":{"ha":518,"x_min":14,"x_max":549,"o":"m 68 1028 l 549 -178 l 494 -199 l 14 1007 l 68 1028 z "},"(":{"ha":463,"x_min":78,"x_max":449,"o":"m 78 389 l 78 440 q 162 759 78 614 q 417 1042 246 904 l 449 1008 q 327 844 371 936 q 266 650 283 753 q 249 440 249 547 l 249 389 q 266 179 249 282 q 327 -15 283 76 q 449 -179 371 -107 l 417 -212 q 162 71 246 -75 q 78 389 78 217 z "},")":{"ha":463,"x_min":14,"x_max":385,"o":"m 385 440 l 385 389 q 301 71 385 217 q 46 -212 217 -75 l 14 -179 q 135 -15 92 -107 q 197 179 179 76 q 214 389 214 282 l 214 440 q 197 650 214 547 q 135 844 179 753 q 14 1008 92 936 l 46 1042 q 301 759 217 904 q 385 440 385 614 z "},"{":{"ha":544,"x_min":44,"x_max":531,"o":"m 531 -151 l 531 -200 l 413 -200 q 266 -171 328 -200 q 178 -85 204 -142 q 176 57 153 -28 l 218 204 q 220 336 240 282 q 160 390 200 390 l 44 390 l 44 439 l 160 439 q 220 492 200 439 q 218 624 240 546 l 176 771 q 178 913 153 856 q 266 999 204 969 q 413 1028 328 1028 l 531 1028 l 531 979 l 413 979 q 328 930 347 979 q 333 797 310 881 l 375 650 q 365 494 403 554 q 250 414 328 435 q 365 333 328 393 q 375 178 403 274 l 333 31 q 328 -102 310 -53 q 413 -151 347 -151 l 531 -151 z "},"}":{"ha":544,"x_min":14,"x_max":500,"o":"m 368 57 q 366 -85 392 -28 q 279 -171 340 -142 q 132 -200 218 -200 l 14 -200 l 14 -151 l 132 -151 q 216 -102 197 -151 q 211 31 235 -53 l 169 178 q 180 333 143 274 q 294 414 217 393 q 180 494 217 435 q 169 650 143 554 l 211 797 q 216 930 235 881 q 132 979 197 979 l 14 979 l 14 1028 l 132 1028 q 279 999 218 1028 q 366 913 340 969 q 368 771 392 856 l 326 624 q 324 492 304 546 q 385 438 344 438 l 500 438 l 500 389 l 385 389 q 324 335 344 389 q 326 204 304 282 l 368 57 z "},"[":{"ha":486,"x_min":132,"x_max":472,"o":"m 472 979 l 292 979 l 292 -150 l 472 -150 l 472 -199 l 132 -199 l 132 1028 l 472 1028 l 472 979 z "},"]":{"ha":486,"x_min":14,"x_max":354,"o":"m 14 1028 l 354 1028 l 354 -199 l 14 -199 l 14 -150 l 194 -150 l 194 979 l 14 979 l 14 1028 z "},"-":{"ha":533,"x_min":83,"x_max":450,"o":"m 83 440 l 83 489 l 450 489 l 450 440 l 83 440 z "},"­":{"ha":0,"x_min":0,"x_max":0,"o":""},"–":{"ha":811,"x_min":83,"x_max":728,"o":"m 83 440 l 83 489 l 728 489 l 728 440 l 83 440 z "},"—":{"ha":1089,"x_min":83,"x_max":1006,"o":"m 83 440 l 83 489 l 1006 489 l 1006 440 l 83 440 z "},"_":{"ha":581,"x_min":24,"x_max":557,"o":"m 24 -201 l 24 -153 l 557 -153 l 557 -201 l 24 -201 z "},"‚":{"ha":354,"x_min":88,"x_max":269,"o":"m 269 58 q 234 -69 269 6 q 128 -225 199 -143 l 96 -197 q 162 -96 143 -140 q 182 -14 181 -51 l 178 -14 q 113 11 138 -14 q 88 78 88 36 q 113 143 88 118 q 178 168 138 168 q 244 140 218 168 q 269 58 269 111 z "},"„":{"ha":622,"x_min":88,"x_max":538,"o":"m 269 58 q 234 -69 269 6 q 128 -225 199 -143 l 96 -197 q 162 -96 143 -140 q 182 -14 181 -51 l 178 -14 q 113 11 138 -14 q 88 78 88 36 q 113 143 88 118 q 178 168 138 168 q 244 140 218 168 q 269 58 269 111 m 538 58 q 502 -69 538 6 q 396 -225 467 -143 l 364 -197 q 430 -96 411 -140 q 450 -14 449 -51 l 446 -14 q 381 11 406 -14 q 356 78 356 36 q 381 143 356 118 q 446 168 406 168 q 512 140 486 168 q 538 58 538 111 z "},"“":{"ha":622,"x_min":86,"x_max":536,"o":"m 536 656 q 511 590 536 615 q 446 565 486 565 q 381 594 407 565 q 354 675 354 622 q 390 803 354 728 q 496 958 425 878 l 528 931 q 463 830 481 875 q 442 747 444 785 l 446 747 q 511 722 486 747 q 536 656 536 697 m 268 656 q 243 590 268 615 q 178 565 218 565 q 113 594 139 565 q 86 675 86 622 q 122 803 86 728 q 228 958 157 878 l 260 931 q 194 830 213 875 q 174 747 176 785 l 178 747 q 243 722 218 747 q 268 656 268 697 z "},"”":{"ha":622,"x_min":86,"x_max":536,"o":"m 268 849 q 233 722 268 796 q 126 565 197 647 l 94 593 q 160 694 142 650 q 181 776 179 739 l 176 776 q 111 801 136 776 q 86 868 86 826 q 111 933 86 908 q 176 958 136 958 q 242 930 217 958 q 268 849 268 901 m 536 849 q 501 722 536 796 q 394 565 465 647 l 363 593 q 428 694 410 650 q 449 776 447 739 l 444 776 q 379 801 404 776 q 354 868 354 826 q 379 933 354 908 q 444 958 404 958 q 510 930 485 958 q 536 849 536 901 z "},"‘":{"ha":354,"x_min":86,"x_max":268,"o":"m 268 656 q 243 590 268 615 q 178 565 218 565 q 113 594 139 565 q 86 675 86 622 q 122 803 86 728 q 228 958 157 878 l 260 931 q 194 830 213 875 q 174 747 176 785 l 178 747 q 243 722 218 747 q 268 656 268 697 z "},"’":{"ha":354,"x_min":86,"x_max":268,"o":"m 268 849 q 233 722 268 796 q 126 565 197 647 l 94 593 q 160 694 142 650 q 181 776 179 739 l 176 776 q 111 801 136 776 q 86 868 86 826 q 111 933 86 908 q 176 958 136 958 q 242 930 217 958 q 268 849 268 901 z "},"«":{"ha":904,"x_min":69,"x_max":828,"o":"m 828 42 l 799 14 l 417 322 l 417 356 l 799 664 l 828 636 l 597 339 l 828 42 m 481 42 l 451 14 l 69 322 l 69 356 l 451 664 l 481 636 l 250 339 l 481 42 z "},"»":{"ha":904,"x_min":76,"x_max":835,"o":"m 76 636 l 106 664 l 488 356 l 488 322 l 106 14 l 76 42 l 307 339 l 76 636 m 424 636 l 453 664 l 835 356 l 835 322 l 453 14 l 424 42 l 654 339 l 424 636 z "},"‹":{"ha":557,"x_min":69,"x_max":481,"o":"m 481 42 l 451 14 l 69 322 l 69 356 l 451 664 l 481 636 l 250 339 l 481 42 z "},"›":{"ha":557,"x_min":76,"x_max":488,"o":"m 76 638 l 106 665 l 488 357 l 488 324 l 106 15 l 76 43 l 307 340 l 76 638 z "},"\"":{"ha":624,"x_min":93,"x_max":531,"o":"m 196 565 l 161 565 q 151 674 161 631 q 127 748 140 717 q 103 806 114 779 q 93 863 93 832 q 117 933 93 907 q 178 958 142 958 q 238 933 214 958 q 263 863 263 907 q 253 806 263 832 q 230 748 243 779 q 206 674 217 717 q 196 565 196 631 m 464 565 l 429 565 q 419 674 429 631 q 395 748 408 717 q 372 806 382 779 q 361 863 361 832 q 385 933 361 907 q 446 958 410 958 q 506 933 482 958 q 531 863 531 907 q 521 806 531 832 q 498 748 511 779 q 474 674 485 717 q 464 565 464 631 z "},"'":{"ha":356,"x_min":93,"x_max":263,"o":"m 196 565 l 161 565 q 151 674 161 631 q 127 748 140 717 q 103 806 114 779 q 93 863 93 832 q 117 933 93 907 q 178 958 142 958 q 238 933 214 958 q 263 863 263 907 q 253 806 263 832 q 230 748 243 779 q 206 674 217 717 q 196 565 196 631 z "}," ":{"ha":311,"x_min":0,"x_max":0,"o":""}," ":{"ha":311,"x_min":0,"x_max":0,"o":""},"\r":{"ha":311,"x_min":0,"x_max":0,"o":""},"€":{"ha":867,"x_min":22,"x_max":814,"o":"m 813 199 q 750 74 793 121 q 649 6 707 26 q 526 -14 592 -14 q 259 79 358 -14 q 136 332 160 172 l 22 332 l 22 381 l 131 381 q 129 404 129 392 q 129 429 129 417 l 129 526 l 22 526 l 22 575 l 131 575 q 235 854 144 750 q 499 958 326 958 q 675 917 604 958 q 780 809 746 876 q 808 663 814 742 l 646 622 q 617 835 660 761 q 492 910 575 910 q 355 835 403 910 q 307 586 307 760 l 307 575 l 588 575 l 579 526 l 307 526 l 307 381 l 554 381 l 546 332 l 307 332 q 365 104 311 174 q 526 35 419 35 q 612 51 572 35 q 678 109 651 68 q 713 225 706 150 l 813 199 z "},"¢":{"ha":699,"x_min":74,"x_max":649,"o":"m 640 165 q 550 27 615 68 q 399 -14 485 -14 l 399 -174 l 349 -174 l 349 -11 q 142 97 211 3 q 74 339 74 190 l 74 367 q 144 613 74 519 q 349 717 215 707 l 349 878 l 399 878 l 399 718 q 544 674 488 714 q 625 575 601 635 q 636 447 649 515 l 483 425 q 475 594 497 532 q 399 668 453 657 l 399 35 l 404 35 q 506 70 467 35 q 551 190 546 106 l 640 165 m 244 311 q 269 126 244 190 q 349 43 293 63 l 349 667 q 271 591 297 656 q 244 394 244 526 l 244 311 z "},"¤":{"ha":783,"x_min":50,"x_max":733,"o":"m 733 96 l 699 60 l 560 203 q 483 159 525 175 q 392 143 440 143 q 301 159 344 143 q 224 203 258 175 l 85 60 l 50 96 l 188 239 q 142 320 158 275 q 125 417 125 365 q 142 515 125 469 q 188 594 158 560 l 50 738 l 85 774 l 224 631 q 301 674 258 658 q 392 690 344 690 q 483 674 440 690 q 560 631 525 658 l 699 774 l 733 738 l 596 594 q 642 515 625 560 q 658 417 658 469 q 642 320 658 365 q 596 239 625 275 l 733 96 m 392 192 q 501 222 453 192 q 578 303 550 251 q 607 417 607 354 q 578 531 607 481 q 501 612 550 582 q 392 642 453 642 q 283 612 332 642 q 205 531 233 582 q 176 417 176 481 q 205 303 176 354 q 283 222 233 251 q 392 192 332 192 z "},"$":{"ha":781,"x_min":61,"x_max":704,"o":"m 704 258 q 630 69 704 146 q 407 -14 556 -7 l 407 -174 l 357 -174 l 357 -14 q 222 14 285 -11 q 115 91 158 39 q 61 228 72 143 l 154 261 q 190 131 161 179 q 262 62 218 83 q 357 36 306 40 l 357 388 l 278 411 q 128 512 181 440 q 76 690 76 583 q 106 817 76 758 q 199 915 136 876 q 357 958 261 954 l 357 1118 l 407 1118 l 407 957 q 573 911 510 953 q 660 806 636 869 q 672 671 685 742 l 513 642 q 503 820 532 753 q 407 904 475 888 l 407 549 l 493 522 q 651 430 599 492 q 704 258 704 368 m 206 749 q 241 636 206 685 q 357 564 276 588 l 357 910 q 247 867 289 908 q 206 749 206 825 m 407 372 l 407 36 q 528 81 481 42 q 575 199 575 121 q 538 303 575 261 q 407 372 501 344 z "},"ƒ":{"ha":656,"x_min":-108,"x_max":689,"o":"m 328 -47 q 299 -174 322 -114 q 226 -272 276 -233 q 83 -310 175 -310 q -62 -263 -15 -310 q -99 -153 -108 -217 l 54 -131 q 56 -233 44 -206 q 96 -261 68 -261 q 128 -247 115 -261 q 151 -192 142 -232 q 168 -75 161 -151 l 222 475 l 57 475 l 57 524 l 226 524 l 251 779 q 281 906 258 846 q 353 1004 303 967 q 496 1042 404 1042 q 642 995 594 1042 q 678 885 689 949 l 525 863 q 523 965 535 938 q 483 993 511 993 q 451 978 464 993 q 428 924 438 964 q 411 807 419 883 l 383 524 l 550 524 l 550 475 l 379 475 l 328 -47 z "},"£":{"ha":738,"x_min":67,"x_max":681,"o":"m 621 307 l 660 307 l 660 0 l 78 0 l 78 99 q 169 172 139 136 q 210 239 200 207 q 221 300 221 271 q 215 350 221 328 q 199 394 210 372 l 67 394 l 67 443 l 171 443 q 130 510 151 476 q 94 587 108 544 q 81 685 81 629 q 110 819 81 757 q 206 919 140 881 q 379 958 272 958 q 558 917 490 958 q 653 811 626 876 q 667 671 681 746 l 500 649 q 484 842 514 774 q 383 910 454 910 q 261 699 261 910 q 279 565 261 626 q 307 443 297 504 l 538 443 l 538 394 l 314 394 q 315 381 315 388 q 315 367 315 374 q 297 264 315 321 q 208 144 278 207 l 522 144 q 581 150 571 144 q 597 181 592 156 l 621 307 z "},"₹":{"ha":740,"x_min":54,"x_max":699,"o":"m 699 0 l 424 0 l 54 431 l 54 479 l 288 479 q 381 517 349 479 q 414 658 414 556 l 414 664 l 54 664 l 54 713 l 414 713 l 414 718 q 381 858 414 821 q 288 896 349 896 l 54 896 l 54 944 l 699 944 l 699 896 l 489 896 q 592 713 588 833 l 699 713 l 699 664 l 592 664 q 510 494 589 558 q 288 431 431 431 l 268 431 l 546 117 q 589 72 575 85 q 613 55 603 58 q 636 49 622 51 l 699 39 l 699 0 z "},"¥":{"ha":874,"x_min":-4,"x_max":878,"o":"m 629 39 l 629 0 l 249 0 l 249 39 l 325 49 q 351 60 347 51 q 356 117 356 69 l 356 297 l 125 297 l 125 346 l 356 346 l 356 404 l 310 492 l 125 492 l 125 540 l 285 540 l 135 828 q 110 873 118 860 q 94 890 101 886 q 72 896 86 894 l -4 906 l -4 944 l 392 944 l 392 906 l 315 896 q 294 884 294 893 q 317 828 294 875 l 496 469 l 682 828 q 705 883 706 874 q 683 896 704 893 l 607 906 l 607 944 l 878 944 l 878 906 l 801 896 q 780 890 788 894 q 765 873 772 886 q 740 828 757 860 l 592 540 l 753 540 l 753 492 l 567 492 l 522 407 l 522 346 l 753 346 l 753 297 l 522 297 l 522 117 q 526 60 522 69 q 553 49 531 51 l 629 39 z "},"+":{"ha":817,"x_min":121,"x_max":696,"o":"m 696 440 l 433 440 l 433 169 l 383 169 l 383 440 l 121 440 l 121 489 l 383 489 l 383 760 l 433 760 l 433 489 l 696 489 l 696 440 z "},"−":{"ha":817,"x_min":121,"x_max":696,"o":"m 121 440 l 121 489 l 696 489 l 696 440 l 121 440 z "},"×":{"ha":817,"x_min":144,"x_max":672,"o":"m 672 239 l 635 203 l 408 429 l 182 203 l 144 239 l 372 467 l 144 693 l 182 729 l 408 503 l 635 729 l 672 693 l 446 467 l 672 239 z "},"÷":{"ha":817,"x_min":121,"x_max":696,"o":"m 408 635 q 338 662 365 635 q 311 733 311 689 q 338 804 311 778 q 408 831 365 831 q 479 804 451 831 q 507 733 507 778 q 479 662 507 689 q 408 635 451 635 m 121 440 l 121 489 l 696 489 l 696 440 l 121 440 m 408 99 q 338 126 365 99 q 311 197 311 153 q 338 268 311 242 q 408 294 365 294 q 479 268 451 294 q 507 197 507 242 q 479 126 507 153 q 408 99 451 99 z "},"=":{"ha":817,"x_min":121,"x_max":696,"o":"m 121 579 l 121 628 l 696 628 l 696 579 l 121 579 m 121 301 l 121 350 l 696 350 l 696 301 l 121 301 z "},"≠":{"ha":817,"x_min":121,"x_max":696,"o":"m 696 300 l 342 300 l 232 111 l 190 136 l 285 300 l 121 300 l 121 349 l 314 349 l 447 579 l 121 579 l 121 628 l 475 628 l 585 817 l 626 792 l 532 628 l 696 628 l 696 579 l 503 579 l 369 349 l 696 349 l 696 300 z "},">":{"ha":817,"x_min":121,"x_max":696,"o":"m 696 442 l 138 218 l 121 264 l 615 461 l 121 657 l 138 704 l 696 481 l 696 442 z "},"<":{"ha":817,"x_min":121,"x_max":696,"o":"m 696 265 l 679 218 l 121 442 l 121 481 l 679 704 l 696 658 l 201 463 l 696 265 z "},"≥":{"ha":817,"x_min":121,"x_max":696,"o":"m 696 442 l 138 218 l 121 264 l 615 461 l 121 657 l 138 704 l 696 481 l 696 442 m 121 0 l 121 49 l 696 49 l 696 0 l 121 0 z "},"≤":{"ha":817,"x_min":121,"x_max":696,"o":"m 696 265 l 679 218 l 121 442 l 121 481 l 679 704 l 696 658 l 201 463 l 696 265 m 121 0 l 121 49 l 696 49 l 696 0 l 121 0 z "}}}
